<?xml version="1.0" encoding="utf-8"?>
<!-- Generator: Adobe Illustrator 26.0.0, SVG Export Plug-In . SVG Version: 6.00 Build 0)  -->
<svg version="1.1" id="Calque_1" xmlns="http://www.w3.org/2000/svg" xmlns:xlink="http://www.w3.org/1999/xlink" x="0px" y="0px"
	 viewBox="0 0 841.9 595.3" style="enable-background:new 0 0 841.9 595.3;" xml:space="preserve">
<style type="text/css">
	.st0{opacity:0.5;}
	.st1{fill:#FFFFFF;}
	.st2{fill:#949494;}
	.st3{fill:#030304;}
	.st4{fill:#0C0C0D;}
	.st5{fill:#939393;}
	.st6{fill:#F7A814;}
	.st7{fill:#0B0C0C;}
	.st8{fill:#F7A813;}
	.st9{fill:#F7A713;}
	.st10{fill:#171717;}
	.st11{fill:#141413;}
	.st12{fill:#F7A815;}
	.st13{fill:#0B0B0B;}
	.st14{fill:#0E0E0F;}
	.st15{fill:#222222;}
	.st16{fill:#2B2B2C;}
	.st17{fill:#141414;}
	.st18{fill:#121213;}
	.st19{fill:#363636;}
	.st20{fill:#191919;}
	.st21{fill:#1B1B1A;}
	.st22{fill:#F6A714;}
	.st23{fill:#646363;}
	.st24{fill:#2F220C;}
	.st25{fill:#575655;}
	.st26{fill:#1E1E1E;}
	.st27{fill:#363535;}
	.st28{fill:#464544;}
	.st29{fill:#5F5F5E;}
	.st30{fill:#F5A614;}
	.st31{fill:#333333;}
	.st32{fill:#535353;}
	.st33{fill:#444444;}
	.st34{fill:#060607;}
	.st35{fill:#202020;}
	.st36{fill:#CBCBCA;}
	.st37{fill:#FDFDFD;}
	.st38{fill:#161616;}
	.st39{fill:#212121;}
	.st40{fill:#DFDFDF;}
	.st41{fill:#1B1B1C;}
	.st42{fill:#ECEBEB;}
	.st43{fill:#2D2D2D;}
	.st44{fill:#323232;}
	.st45{fill:#D8D8D8;}
	.st46{fill:#323131;}
	.st47{fill:#F4F4F4;}
	.st48{fill:#3C3C3C;}
	.st49{fill:#E5E5E5;}
	.st50{fill:#B4B4B4;}
	.st51{fill:#535252;}
	.st52{fill:#878888;}
	.st53{fill:#343332;}
	.st54{fill:#717170;}
	.st55{fill:#646463;}
	.st56{fill:#A6A6A6;}
	.st57{fill:#4B4A49;}
	.st58{fill:#CBCACA;}
	.st59{fill:#828282;}
	.st60{fill:#7B7B7B;}
	.st61{fill:#EFEEED;}
	.st62{fill:#A09F9F;}
	.st63{fill:#3F3F3E;}
	.st64{fill:#494848;}
	.st65{fill:#737373;}
	.st66{fill:#484747;}
	.st67{fill:#C0C0C0;}
	.st68{fill:#DCDCDB;}
	.st69{fill:#5D5C5C;}
	.st70{fill:#7F7F7D;}
	.st71{fill:#6A6968;}
	.st72{fill:#D5D6D6;}
	.st73{fill:#545352;}
	.st74{fill:#BBBAB9;}
	.st75{fill:#414140;}
	.st76{fill:#7A7A7A;}
	.st77{fill:#CCCCCB;}
	.st78{fill:#B4B4B3;}
	.st79{fill:#A2A19F;}
	.st80{fill:#A7A6A6;}
	.st81{fill:#6C6C6A;}
	.st82{fill:#AEAEAE;}
	.st83{fill:#BCBCBC;}
	.st84{fill:#CFCECD;}
	.st85{fill:#8B8B8A;}
	.st86{fill:#C3C2C0;}
	.st87{fill:#303030;}
	.st88{fill:#252525;}
	.st89{fill:#292929;}
	.st90{fill:#181818;}
	.st91{fill:#121313;}
	.st92{fill:#232323;}
	.st93{fill:#020303;}
	.st94{fill:#111110;}
	.st95{fill:#393939;}
	.st96{fill:#1A1918;}
	.st97{fill:#4F4E4E;}
	.st98{fill:#272727;}
	.st99{fill:#2D2D2E;}
	.st100{fill:#383837;}
	.st101{fill:#5C5C5C;}
	.st102{fill:#898989;}
	.st103{fill:#424141;}
	.st104{fill:#6F6F6F;}
	.st105{fill:#717070;}
	.st106{fill:#4E4E4E;}
	.st107{fill:#2F2E2E;}
	.st108{fill:#808181;}
	.st109{fill:#60605F;}
	.st110{fill:#585756;}
	.st111{fill:#666666;}
	.st112{fill:#3E3E3D;}
	.st113{fill:#4D4C4B;}
	.st114{fill:#625F5B;}
	.st115{fill:#464443;}
	.st116{fill:#7E7E7E;}
	.st117{fill:#706F6E;}
	.st118{fill:#A6A5A4;}
	.st119{fill:#9C9C9B;}
	.st120{fill:#858584;}
	.st121{fill:#949493;}
	.st122{fill:#4D360F;}
	.st123{fill:#B7B7B7;}
	.st124{fill:#9B9A9A;}
	.st125{fill:#D8D8D7;}
	.st126{fill:#7F7F7F;}
	.st127{fill:#6A6A68;}
	.st128{fill:#565554;}
	.st129{fill:#464543;}
	.st130{fill:#787878;}
	.st131{fill:#161106;}
	.st132{fill:#424242;}
	.st133{fill:#8C8C8B;}
	.st134{fill:#AAAAAA;}
	.st135{fill:#D5D5D5;}
	.st136{fill:#7D7D7D;}
</style>
<g>
	<g class="st0">
		<path class="st1" d="M106,768.7c0-288.2,0-576.4,0-864.7c204.9,0,409.8,0,614.7,0c0,288.2,0,576.4,0,864.7
			C515.8,768.7,310.9,768.7,106,768.7z M414.7,593.8c6.5-0.4,13-0.8,19.5-1.1c15.2-0.9,30.1-2.7,44.8-7.1c15.6-4.6,31.5-8.1,46-16
			c9.7-5.2,19.8-9.6,29.1-15.4c11.7-7.3,23.1-15,33.9-23.6c14.1-11.2,27-24,38-38.4c7.5-9.8,14.8-19.7,21.7-30
			c13.3-19.7,22.8-41.2,30.6-63.6c5.8-16.4,9.9-33.3,12.2-50.6c2.4-17.3,4.1-34.5,3.8-51.9c-0.1-5.4-0.3-10.9-0.8-16.3
			c-1.2-12.5-2-25.1-4.1-37.5c-3.9-21.8-10.3-43-19.1-63.4c-8.2-19-17.7-37.4-29.8-54.2c-7.5-10.4-15.2-20.8-24.1-30.1
			c-10.9-11.4-22.8-21.8-34.7-32.1c-6.1-5.3-12.8-9.9-19.6-14.2c-9.7-6-19.5-11.9-29.7-16.8c-10.6-5.1-21.5-9.6-32.6-13.3
			C477.2,10.7,454,6.7,430.3,5.7c-9.3-0.4-18.6-0.4-27.8,0c-9.4,0.4-18.8,1.1-28.1,2.6c-17.2,2.8-34.3,6.2-50.4,13.3
			c-10.6,4.7-21.5,8.9-31.8,14.3c-10.1,5.2-19.8,11.3-29.4,17.4c-12.5,7.9-23.5,17.7-34.2,27.8c-16.3,15.3-30.4,32.2-42.5,51
			c-4.9,7.6-9.7,15.3-13.9,23.3c-13.6,25.7-23.3,52.9-29.2,81.5c-4,19.4-6.2,39.1-6.4,58.9c-0.1,12.5,1.1,24.9,2.1,37.4
			c1.5,19,5.7,37.5,11.1,55.7c8.2,27.4,20.2,53.1,35.7,77.2c10.6,16.6,23.2,31.7,36.8,45.9c6.9,7.1,14.4,13.8,22.2,19.8
			c11.6,8.9,23.5,17.6,35.9,25.4c9.7,6.1,20.2,11.3,30.9,15.4c14.5,5.6,29.4,10.6,44.5,14.6C375,592.1,394.8,593.8,414.7,593.8z"/>
		<path class="st2" d="M414.7,593.8c-19.9,0-39.6-1.8-58.8-6.8c-15.1-4-29.9-8.9-44.5-14.6c-10.7-4.1-21.2-9.4-30.9-15.4
			c-12.4-7.7-24.3-16.4-35.9-25.4c-7.9-6-15.4-12.7-22.2-19.8c-13.6-14.2-26.2-29.3-36.8-45.9c-15.4-24.1-27.5-49.8-35.7-77.2
			c-5.4-18.2-9.6-36.7-11.1-55.7c-1-12.4-2.2-24.9-2.1-37.4c0.2-19.8,2.4-39.5,6.4-58.9c5.9-28.6,15.6-55.7,29.2-81.5
			c4.2-8,9-15.7,13.9-23.3c12-18.7,26.2-35.7,42.5-51c10.8-10.1,21.8-19.9,34.2-27.8c9.6-6.1,19.3-12.2,29.4-17.4
			c10.3-5.3,21.1-9.5,31.8-14.3c16.1-7.1,33.2-10.5,50.4-13.3c9.3-1.5,18.7-2.2,28.1-2.6c9.3-0.4,18.6-0.4,27.8,0
			c23.7,1,46.9,5.1,69.4,12.7c11.1,3.8,22.1,8.2,32.6,13.3c10.2,4.9,20,10.8,29.7,16.8c6.8,4.2,13.6,8.9,19.6,14.2
			c11.9,10.3,23.8,20.7,34.7,32.1c8.8,9.3,16.6,19.7,24.1,30.1c12.1,16.8,21.6,35.2,29.8,54.2c8.8,20.4,15.2,41.6,19.1,63.4
			c2.2,12.3,2.9,24.9,4.1,37.5c0.5,5.4,0.7,10.9,0.8,16.3c0.3,17.4-1.5,34.7-3.8,51.9c-2.4,17.3-6.5,34.2-12.2,50.6
			c-7.8,22.3-17.4,43.9-30.6,63.6c-6.9,10.2-14.2,20.1-21.7,30c-11,14.4-23.8,27.2-38,38.4c-10.8,8.6-22.2,16.3-33.9,23.6
			c-9.3,5.8-19.4,10.2-29.1,15.4c-14.5,7.8-30.4,11.3-46,16c-14.7,4.4-29.6,6.2-44.8,7.1C427.6,593.1,421.1,593.5,414.7,593.8z
			 M687.1,299.1c0.4,0,0.8-0.1,1.1-0.1c-1.8-17.3-2.7-34.7-5.5-51.8c-3.9-24.3-11.2-47.7-21.3-70.2c-8.3-18.6-18.3-36.3-30.4-52.7
			c-7.7-10.4-15.9-20.7-25.1-29.8c-11.6-11.4-24.2-21.9-36.8-32.2c-6.6-5.4-14.1-10-21.6-14.2c-9.9-5.5-19.9-11.2-30.5-15.2
			c-14.7-5.6-29.9-10.4-45.2-14.5c-17.8-4.9-36.3-5.7-54.7-6.2c-8.4-0.2-16.9,0.8-25.4,1.4c-12.7,0.9-25.3,2.8-37.6,6.3
			c-17.4,5-34.9,9.7-51,18.4c-7.7,4.2-15.4,8.3-23,12.5c-15.8,8.9-30,19.9-43.2,32.3c-4.1,3.8-8.6,7.2-12.2,11.5
			c-9.6,11.5-19.3,22.9-28.1,35c-6.7,9.2-12.4,19.1-18,29.1c-13.7,24.5-22.6,50.8-28.5,78.1c-4.1,19-6.2,38.2-6.5,57.6
			c-0.2,10.5,0.5,21,1.5,31.4c1,10.9,2.1,21.9,4.5,32.6c3.3,14.4,7.4,28.7,12.1,42.8c9.7,29.4,24.9,56,43.8,80.4
			c8.1,10.4,16.9,20.6,26.6,29.5c12.2,11.2,25.3,21.4,38.6,31.2c7.7,5.7,16.3,10.6,24.9,14.8c11.8,5.7,23.8,11,36.1,15.4
			c21.6,7.7,44.1,11.6,66.8,12.6c16.8,0.7,33.8,0.2,50.5-1.6c19.2-2.1,38.4-5.6,56.2-13.9c11.3-5.2,22.9-9.7,33.9-15.4
			c9.4-4.8,18.2-10.8,27.1-16.5c13.2-8.5,25.2-18.5,35.8-30.2c9.2-10.1,18.5-20.2,26.7-31c7.4-9.7,13.9-20.1,20.1-30.6
			c11.3-19,19.5-39.5,25.7-60.7C683.1,357.2,687.5,328.5,687.1,299.1z"/>
		<path class="st1" d="M687.1,299.1c0.3,29.4-4.1,58.1-12.3,86.2c-6.2,21.2-14.5,41.6-25.7,60.7c-6.2,10.5-12.7,20.9-20.1,30.6
			c-8.3,10.8-17.5,20.9-26.7,31c-10.6,11.6-22.6,21.6-35.8,30.2c-8.9,5.7-17.7,11.7-27.1,16.5c-11,5.7-22.6,10.2-33.9,15.4
			c-17.9,8.2-37,11.7-56.2,13.9c-16.7,1.9-33.7,2.4-50.5,1.6c-22.8-1-45.3-4.9-66.8-12.6c-12.3-4.4-24.3-9.7-36.1-15.4
			c-8.7-4.2-17.2-9-24.9-14.8c-13.3-9.9-26.4-20-38.6-31.2c-9.7-8.9-18.5-19.1-26.6-29.5c-18.9-24.4-34.2-51-43.8-80.4
			c-4.6-14.1-8.8-28.4-12.1-42.8c-2.4-10.7-3.5-21.7-4.5-32.6c-1-10.4-1.7-21-1.5-31.4c0.3-19.4,2.4-38.6,6.5-57.6
			c5.9-27.4,14.8-53.7,28.5-78.1c5.6-9.9,11.3-19.9,18-29.1c8.8-12.1,18.5-23.6,28.1-35c3.6-4.2,8.1-7.7,12.2-11.5
			c13.2-12.4,27.4-23.4,43.2-32.3c7.6-4.3,15.3-8.4,23-12.5c16.1-8.7,33.5-13.4,51-18.4c12.4-3.5,24.9-5.4,37.6-6.3
			c8.5-0.6,17-1.6,25.4-1.4c18.4,0.5,36.9,1.4,54.7,6.2c15.2,4.2,30.4,8.9,45.2,14.5c10.6,4,20.6,9.7,30.5,15.2
			c7.5,4.2,14.9,8.7,21.6,14.2c12.6,10.3,25.2,20.7,36.8,32.2c9.2,9.1,17.4,19.4,25.1,29.8c12.1,16.4,22.1,34,30.4,52.7
			c10.1,22.5,17.4,45.9,21.3,70.2c2.8,17.1,3.7,34.5,5.5,51.8C687.9,299,687.5,299,687.1,299.1z M596.8,90.3
			c-4.7-4.4-9.2-8.9-14.1-13.1c-5.6-4.7-11.3-9.5-17.4-13.5c-12.3-7.9-24.3-16.5-38-22.1c-6-2.8-11.9-5.7-18-8.3
			c-17.3-7.4-35.7-10.9-54-14.7c-15-3.1-30.4-3.5-45.8-2.8c-12.4,0.6-24.7,1.2-37,4c-18.6,4.2-37.4,7.3-54.7,16
			c-10.3,5.2-20.9,9.9-30.9,15.4c-8.1,4.5-15.8,9.9-23.5,15.2C249.9,75.5,237.7,86,227,98.2c-8.6,9.7-16.8,19.7-24.8,30
			c-10.9,14-19.2,29.6-26.8,45.7c-7.1,14.9-12.5,30.3-17.1,46.1c-6.3,21.5-9.4,43.5-10.7,65.8c-1.1,19.8,0.1,39.6,3.2,59.2
			c3.2,20.2,8.4,40,15.6,59.1c8.3,22,19,42.8,32.5,62c7.3,10.4,15.1,20.6,23.8,29.8c10.3,10.9,21.7,20.9,33,30.8
			c6.3,5.5,13.4,10.3,20.6,14.6c9.5,5.8,19.2,11.6,29.3,16.1c12.4,5.6,25.1,10.3,38,14.6c20.1,6.6,41.1,9.3,62.2,10.2
			c12,0.5,24.1-0.5,36.1-1.5c17.6-1.4,34.9-4.6,51.6-10.7c14.4-5.2,29-9.9,42.2-17.9c7.5-4.5,15.2-8.8,22.5-13.6
			c7.6-5,14.8-10.6,22-16.1c11.4-8.7,21.8-18.5,30.8-29.7c8.4-10.4,16.9-20.8,24.4-31.8c6.5-9.5,11.9-19.7,17.3-29.8
			c10.4-19.4,17.5-40,22.8-61.3c4.5-18,7.4-36.2,8.1-54.7c1.1-27.2-0.8-54.2-6.9-80.9c-6.4-28.2-16.6-54.9-30.7-80
			c-5.2-9.2-11.5-17.8-17.4-26.6C619.7,113.8,608.6,101.8,596.8,90.3z"/>
		<path class="st3" d="M596.8,90.3c11.8,11.4,22.9,23.5,32,37.2c5.9,8.8,12.2,17.4,17.4,26.6c14.1,25.2,24.3,51.8,30.7,80
			c6.1,26.7,8,53.7,6.9,80.9c-0.7,18.5-3.6,36.7-8.1,54.7c-5.4,21.3-12.4,41.9-22.8,61.3c-5.4,10.1-10.8,20.3-17.3,29.8
			c-7.5,11-16,21.4-24.4,31.8c-9,11.2-19.4,21-30.8,29.7c-7.2,5.5-14.4,11.1-22,16.1c-7.3,4.9-15,9.1-22.5,13.6
			c-13.2,8-27.8,12.7-42.2,17.9c-16.8,6.1-34,9.3-51.6,10.7c-12,0.9-24.1,1.9-36.1,1.5c-21.1-0.8-42-3.5-62.2-10.2
			c-12.9-4.2-25.7-9-38-14.6c-10.1-4.6-19.8-10.3-29.3-16.1c-7.2-4.4-14.2-9.2-20.6-14.6c-11.4-9.9-22.7-19.9-33-30.8
			c-8.7-9.2-16.5-19.4-23.8-29.8c-13.5-19.2-24.2-40-32.5-62c-7.2-19.1-12.4-38.9-15.6-59.1c-3.1-19.6-4.3-39.4-3.2-59.2
			c1.2-22.3,4.4-44.3,10.7-65.8c4.6-15.8,10-31.2,17.1-46.1c7.6-16,15.9-31.6,26.8-45.7c7.9-10.2,16.2-20.2,24.8-30
			c10.7-12.2,22.9-22.7,36.3-31.8c7.7-5.3,15.4-10.6,23.5-15.2c10.1-5.6,20.6-10.3,30.9-15.4c17.3-8.7,36.1-11.8,54.7-16
			c12.3-2.7,24.6-3.4,37-4c15.4-0.7,30.8-0.3,45.8,2.8c18.2,3.8,36.7,7.3,54,14.7c6.1,2.6,12,5.5,18,8.3c-1.3,0.4-2.8,1.5-3.9,1.3
			c-12.1-2.7-24.4-3.3-36.8-3c-8.6,0.2-16.8,1.7-24.7,4.8c-2.2-0.8-4.4-1.9-6.7-2.3c-22.6-3.7-45.4-4.4-68.2-1.7
			c-2.6,0.3-4.9,1.3-4.9,4.2c0,3,2.2,4,5,3.8c1.2-0.1,2.4-0.1,3.6-0.2c4.9-0.5,9.8-1.4,14.6-1.3c13.3,0.3,26.5,1.1,39.7,1.6
			c0.7,0.8,1.5,1.7,2.1,2.4c-3.2,2.2-6,4.3-9.1,6.1c-2.7,1.6-4.6,5-8.4,4.3c-17.5-0.1-34.9-0.4-52.1,3.8c-17,4.1-34.1,7.3-49.7,15.7
			c-10.3,5.6-20.8,11-30.9,17c-13.7,8.1-25.5,18.5-36.6,29.7c-9.8,10-19,20.4-26.5,32.2c-6.1,9.6-12,19.4-17.3,29.5
			c-12.5,24.3-19.9,50.2-23.5,77.3c-2.8,20.8-2.9,41.7-0.4,62.5c2.4,19.9,6.9,39.4,14.6,58c1.9,4.6,4,9.2,9.2,11.6
			c-0.7-5.6-1.7-11.1-3.6-16.4c-7.3-20.7-12.2-42-13.9-63.9c-1.6-20.8-0.7-41.5,3-62.1c5.4-29.3,15.3-56.9,31.2-82.1
			c4.1-6.5,8.3-12.9,12.7-19.2c1.8-2.5,4.3-4.6,6.5-6.8c0.5,1.9,1,3.8,1.5,5.7c2.1-0.9,4.2-1.6,6.2-2.7c1.2-0.7,2-2.1,3.1-3.1
			c8.1-8,15.6-16.6,24.4-23.8c13-10.7,26.9-20.2,42.5-26.8c2.8-1.2,5.5-3,8-4.8c1.4-1,2.3-2.8,3.4-4.2c-0.3-0.4-0.6-0.8-0.8-1.2
			c-3.2,0.4-6.5,0.8-9.7,1.2c-0.3-0.3-0.7-0.5-1-0.8c29.4-13.6,60.4-19.4,92.7-18.4c-1.9,3.6-3.5,7.3-5.7,10.7
			c-2,3.1-4.5,5.9-3.9,10c-14.6,1.5-29.2,1.9-43.5,6.3c-15.6,4.9-31.2,9.4-45.2,18.1c-6.7,4.2-13.4,8.4-20,12.9
			c-13.9,9.3-26.1,20.5-36.3,33.7c-7.1,9.1-13.8,18.5-19.9,28.3c-14.5,23.3-22.9,48.9-27.2,76c-3.2,19.9-3.4,39.8-1.1,59.7
			c3.3,27.7,11.7,54,25.1,78.5c10.7,19.6,24.4,37,40.8,52.2c3.3,3,6.5,6.3,10.1,8.9c14,10.3,28,20.7,44.9,25.8c3.2,1,6.8,1,10.2,1.4
			c0.2-0.5,0.3-1,0.5-1.4c-1.6-1.3-3.1-2.7-4.9-3.7c-5.4-3.2-11-6.2-16.4-9.5c-8.6-5.4-17.4-10.7-25.6-16.6
			c-6-4.3-11.4-9.5-16.9-14.5c-15.8-14.2-27.8-31.4-37.6-50.1c-3.9-7.4-7.5-15-10.4-22.8c-11.4-30.5-15.3-62.1-12.4-94.5
			c2.1-22.6,7.9-44.2,16.9-64.9c6.9-15.8,15.8-30.4,26.5-43.9c9.1-11.5,19.5-21.8,30.9-30.9c6.5-5.2,13.3-10.3,20.6-14.2
			c10.6-5.7,21.4-11.2,32.6-15.4c22.6-8.5,46.2-10.8,70.2-9.7c-0.2,1.4,0,3-0.6,4.2c-0.9,2-0.6,5.4-4.4,4.7
			c-10.7,1-21.5,1.7-32.1,3.2c-14.7,2.1-29,5.9-42.4,12.5c-3.3,1.6-6.4,3.9-7.8,8.5c3-0.4,5.6-0.4,7.9-1.2c5.9-2,11.6-4.7,17.5-6.7
			c18-5.9,36.5-8.5,55.5-8.3c-0.3,3-0.7,6-0.8,9.1c-0.1,3.2-0.1,6.5,0,9.7c0.1,1.8,0.5,3.6,0.8,5.5c1.2,7,1.5,14.3,3.7,20.9
			c3.2,9.9,7.8,19.3,11.6,28.9c0.4,0.9-0.1,2.2-0.1,3.3c-10.9,4.8-21.7,9.6-32.5,14.5c-6.3,2.9-12.6,5.7-18.7,9
			c-7.9,4.3-15.5,9.1-23.4,13.9c-1.2-1.9-2.1-3.4-3.1-5c-3-4.6-5.6-9.4-9-13.5c-1.5-1.8-4.7-2.5-7.2-2.8c-0.9-0.1-2.2,2.4-3.3,3.7
			c1.1,0.8,2.1,1.7,3.2,2.5c0.4,0.3,1,0.4,1.3,0.8c3.9,6.4,7.7,12.8,11.5,19c-9.4,6.8-18.5,12.8-27,19.5
			c-7.1,5.6-13.5,11.9-20.2,17.9c-0.4,0.3-0.9,0.8-1,1.2c-0.1,1.8-0.1,3.6-0.1,5.3c1.4-0.5,2.9-0.8,4.2-1.5c1.3-0.7,2.4-1.6,3.6-2.5
			c5.3-3.9,10.5-7.7,15.8-11.6c9.5-7,19.1-14,28.9-21.3c4,8.1,8,15.6,11.6,23.3c6.3,13.9,12.4,27.9,18.4,41.9
			c0.6,1.5,0.6,3.8-0.1,5.1c-6,10.3-12.8,20.2-18.5,30.7c-7.1,13.1-13.6,26.5-20,39.9c-1.8,3.7-2.6,7.8-3.5,11.8
			c-0.5,2.1-0.5,4.5,2.3,5.2c2.7,0.6,3.6-1.5,4.5-3.5c4.8-10.6,9.5-21.3,14.7-31.7c4.6-9.1,9.7-18,14.8-26.8
			c3.3-5.7,7-11.1,10.8-17.2c0.5,1.1,0.7,1.7,0.9,2.3c7.5,21.8,13.5,44,15.5,66.9c1,11.3,0.3,22.8,0.3,34.2c0,2.2-0.5,4.9,2.2,5.1
			c1.5,0.1,4-1.8,4.6-3.3c1.2-3.3,1.8-7,1.9-10.5c0.9-33.5-6.6-65.4-17.6-96.7c-1.6-4.4-1.4-7.8,1.4-11.2c12.3-15,25.4-29.2,40.1-42
			c0.6,1.5,1.7,2.9,1.7,4.4c0.2,10.6,0.1,21.1,0.1,31.7c-2.8,3.8-5.1,8.2-8.5,11.4c-3.3,3-4.6,7-6.9,10.4c-1.6,2.2-2.2,5.1-3.3,7.7
			c0.5,0.3,1,0.7,1.5,1c2.3-2.9,4.6-5.7,7.1-8.7c1.7,6,3.2,11.7,0.5,17.7c-0.9,2-1.5,4.3-1.8,6.5c-0.2,1,0.7,2.2,1,3.3
			c0.8-0.8,1.9-1.4,2.4-2.3c0.8-1.5,1.2-3.2,1.8-4.9c1.1,3.6,1.9,6.9,3.1,10.1c0.4,1,2,1.5,3,2.3c0,18.6,0,37.3,0,55.9
			c0,1.3,0,2.7,0.4,3.9c1.4,5.4,3.4,10.6,4.3,16.1c1,6.7,4.8,11.9,7.9,17.5c0.8,1.6,3,2.3,4.4,3.7c3.9,3.8,7.5,8,11.7,11.3
			c1.7,1.3,2.7,2.2,2.5,4.2c-12.2,3.2-24.2,7.5-36.6,9.5c-15.9,2.5-32,2.5-48.1-1.2c-16.6-3.8-33-7.6-48.3-15.8
			c-16.3-8.7-31-19-43.9-32.2c-9-9.3-16.9-19.2-23.9-30.1c-7.4-11.6-13.5-23.7-18.1-36.6c-9-25.2-12.8-51.1-10.8-77.9
			c1.1-14.5,3.4-28.7,7.7-42.5c3.9-12.5,8.6-24.7,12.9-37c0.3-0.7,0.3-1.6,0.4-2.3c-0.3-0.1-0.6-0.3-0.9-0.4c-1.9,2.3-3.9,4.6-5.6,7
			c-7.8,11.7-13,24.5-15.8,38.2c-2.5,12.2-5.4,24.4-6.1,36.7c-0.8,13.3,0.2,26.8,1.3,40.1c1.4,17.4,6.6,34,13.2,50.1
			c6.2,15.4,14.6,29.7,24.7,42.9c9,11.7,19.3,22.2,30.8,31.4c6.8,5.4,13.9,10.7,21.5,14.8c10.8,5.8,21.8,11.5,33.3,15.3
			c34.2,11.1,68.9,11.6,103.5,1.4c10-3,19.5-7.6,29.3-11.5c1.5,0.3,3.6,0.1,4.5,1.1c1.5,1.5,6.3,0.1,4.5,4.6
			c-2.3,1.5-4.4,3.3-6.9,4.5c-15.9,7.5-32.4,12.8-49.6,16.3c-5.6,1.1-11.3,1.4-16.9,2.6c-1.4,0.3-2.3,2.6-3.4,4
			c1.4,1,2.6,2.6,4.1,2.9c2.1,0.4,4.5,0.1,6.7-0.2c21.2-2.4,41.6-7.8,60.7-17.6c8.6-4.4,16.8-9.5,25.2-14.2c9.1,0.4,18-1.3,26.7-3.8
			c0.6-0.2,0.9-1.1,1.4-1.7c3.8,0.6,6.4-1.6,8.6-4c5.9-6.4,11.7-12.9,17.4-19.5c10.8-12.4,19.1-26.4,26.6-40.9
			c3.6-6.9,6.1-14.3,9.2-21.5c1-2.3,0.8-4.3-1.6-5.4c-2.5-1.1-4,0.7-4.9,2.7c-1,2.2-1.7,4.5-2.8,6.6c-4.4,8.7-9,17.4-13.5,26
			c-0.5-1.3-1.3-2.5-1.4-3.8c-0.2-3-0.1-6.1-0.1-9.1c0.2-0.6,0.4-1.3,0.7-1.8c9.4-18.3,15.9-37.6,19.8-57.9c5-26.4,5.5-53,0.3-79.4
			c-2.5-13-6.8-25.6-10.3-38.4c0.3-2,0.2-4.3,1-6.1c1.1-2.4,2.9-4.5,4.5-6.7c1.4,3.6,2.9,7.2,4.2,10.8
			c10.7,28.9,15.9,58.8,13.5,89.6c-1.1,13.9-3.6,27.7-5.4,41.6c-0.5,4.2-0.6,8.4-0.9,13.1c4-1.8,5-3.5,6.6-8.6
			c5.4-17,6.8-34.5,7.3-52.1c0.5-18.2-1.4-36.3-5.2-54.1c-4-18.7-9.9-36.7-18.5-53.8c0-1.4-0.2-2.9,0.2-4.3c0.2-0.6,1.4-1,2.2-1.5
			c4.2,9.5,8.4,19,12.6,28.5c1.6,3.7,2.9,7.6,4.7,11.3c0.5,1,2.3,1.6,3.5,1.6c0.5,0,1.4-1.9,1.5-3c0.1-1.4-0.2-2.9-0.5-4.3
			c-4.7-17.3-12.1-33.5-21.1-49c-3.5-6-7.4-11.9-11.1-17.9c0.2-3.9,0.3-7.7-2.4-11c-3.8-4.6-7.4-9.3-11.2-13.9c-1-1-2.1-2-3.1-3.1
			c-2.2-2.4-4.4-4.9-6.5-7.3c-3.2-2.7-6.3-5.4-9.5-8.2c-3.5-3.1-7-6.3-10.5-9.4c-3.2-2.2-6.4-4.3-9.6-6.5
			c-6.4-4.3-12.7-8.6-19.1-12.9c-4.8-2.7-9.6-5.3-14.4-8c-3.7-1.6-7.5-3.2-11.2-4.8c-1.6-0.8-3.4-1.4-4.8-2.5
			c-1.6-1.3-2.7-3-4.1-4.6c-0.1-2.4,1.1-3.7,3.4-3.1c3,0.8,5.8,2,8.7,3.1c3.2,1.3,6.4,2.6,9.6,4c18.7,8.4,35.4,19.8,51.1,32.8
			c4.5,4,9,8,13.6,12c5.5,5.9,11.1,11.8,16.6,17.7c0.3-0.3,0.6-0.6,0.9-0.9c-1.4-15.5-13.3-23.3-23.9-32.1
			c-8.9-7.1-17.6-14.6-26.9-21.2c-6-4.3-12.9-7.2-19.5-10.8c-7.5-3.5-14.9-6.9-22.4-10.4c-1.7-0.8-3.3-1.5-5-2.4
			c-2.4-1.3-4.7-2.7-7-4c0.1-5.4,1.1-6.4,6.1-4.7c4.7,1.6,9.2,4,13.8,5.9c18.9,7.7,36.5,17.6,52.3,30.6c8.5,7.1,16.9,14.3,25.4,21.5
			c3.3,2.8,6.5,5.6,9.7,8.4c0.3-0.2,0.7-0.4,1-0.5c-0.4-2.5-0.8-5-1.2-7.5C597.7,99.5,594.2,95.3,596.8,90.3z M294.1,505.5
			c1.9,1,3.7,2,5.6,3.1c7.1,3.9,14.2,8.1,21.5,11.6c1.5,0.7,4-0.6,6-1c-1-1.7-1.5-3.9-3-4.9c-4.5-2.9-9.4-5.2-13.9-8
			c-6.9-4.3-13.8-8.8-20.6-13.3c-13.3-8.9-25-19.6-35.3-31.8c-7.3-8.7-14.3-17.8-21.4-26.7c-1.6-2.1-2.9-4.5-4.7-6.3
			c-0.8-0.8-2.7-0.9-3.9-0.7c-0.4,0.1-1,2.2-0.7,3.1c0.9,2.6,1.8,5.3,3.4,7.5c4.9,7.1,10,14,15.1,21c-3.2,0-4.5,1.5-3.3,4.5
			c0.6,1.7,1.4,3.5,2.6,4.8c11,12.4,22.8,24,36.2,33.8c3.5,2.6,7.3,4.9,11.1,7c2.1,1.2,4.6,1.7,6.8,2.5c0.3-0.4,0.6-0.8,0.9-1.2
			C295.5,508.8,294.8,507.2,294.1,505.5z M348.2,525.6c0,4.8,3.1,5.2,5.3,6.1c14.4,5.7,29.7,8.2,45,9.5c15.5,1.3,31.1,1.2,46.7-1.9
			c19.5-3.8,39.1-6.9,57-16.1c9.9-5.1,19.9-9.8,29.4-15.4c7.7-4.5,14.9-10,22.1-15.4c11.8-8.7,22-19.1,31.5-30.2
			c8.7-10.1,16.5-20.8,23.4-32.1c8.7-14.2,15.7-29.2,21.4-44.8c8.6-23.8,13.4-48.3,14.8-73.6c0.9-16.7-0.1-33.2-2.5-49.7
			c-0.4-2.5-1-5.2-4.1-4.7c-3.2,0.5-2.8,3.3-2.5,5.8c0.6,4.7,1.2,9.5,1.6,14.3c2,24.8,0.5,49.4-4.7,73.8
			c-6.4,30.1-18.1,58-35.2,83.4c-7.4,11-15.6,21.6-24.9,31c-10.9,11-22.9,20.8-35.1,30.3c-7.5,5.8-15.8,10.8-24.4,14.7
			c-12.7,5.9-25.7,11.2-39,15.5c-15.2,4.9-31.1,6.7-47,7.6c-18.4,1.1-36.6-0.7-54.7-4C364.6,528.3,356.7,527,348.2,525.6z M334.4,65
			c-5-3.1-8.2-0.9-11.7,1c-9.8,5.4-19.9,10.3-29.6,15.8c-14.8,8.4-27.8,19.2-40,31.1c-9.9,9.7-19.3,19.7-27.1,31.2
			c-6.6,9.7-13.1,19.6-19,29.8c-11.2,19.4-18.7,40.3-24,62c-4.8,19.7-7.4,39.6-7.6,59.8c-0.2,17.1,0.7,34,4.2,50.7
			c2.9,13.5,7,26.8,10.9,40.1c0.5,1.6,2.8,2.6,4.2,3.9c0.8-1.8,1.7-3.5,2.2-5.3c0.2-0.9-0.4-2-0.7-3c-1.2-4.2-2.5-8.3-3.8-12.5
			c-6.4-21.6-9.2-43.8-9.7-66.2c-0.5-20.4,1.8-40.6,6.3-60.5c7.4-33,20.8-63.3,40.3-90.9c6.6-9.4,13.9-18.4,21.8-26.8
			c11.3-12.1,23.9-23,37.6-32.2c12.2-8.1,24.7-15.9,38.4-21.2c1.2-0.5,2.5-1.1,3.4-2C332,68.3,333,66.7,334.4,65z M424.9,557.2
			c0.1-0.3,0.1-0.6,0.2-0.9c6.8-0.7,13.6-1.1,20.4-2.1c20-3.2,40-6.5,58.5-15.7c10.2-5.1,20.6-9.9,30.7-15.3
			c15.3-8.3,28.9-18.9,41.6-30.8c10-9.3,19.6-19,27.5-30.2c7.8-11.2,15.7-22.4,22.4-34.2c6.1-10.9,10.7-22.7,15.9-34.2
			c0.6-1.3,1.1-2.9,0.9-4.2c-0.2-1.6-1.2-3-1.8-4.5c-1.2,1-2.7,1.9-3.6,3.1c-1,1.3-1.7,3-2.4,4.6c-4.1,9.2-7.9,18.5-12.5,27.5
			c-8.4,16.3-18.5,31.7-30.7,45.4c-9.8,11.1-20.8,21.1-31.6,31.2c-5.7,5.2-12.1,9.9-18.7,14c-9.4,5.9-18.9,11.7-29,16.3
			c-11.7,5.3-23.8,10-36.1,13.6c-11.1,3.2-22.7,4.7-34.2,6.5c-6.4,1-12.9,1-19.4,1.8c-1.3,0.2-3.3,1.4-3.5,2.4
			c-0.2,1.2,0.9,2.9,1.9,4C422.3,556.2,423.7,556.6,424.9,557.2z M340.8,510.9c-0.2,0.6-0.4,1.2-0.7,1.8c1.9,1.3,3.7,3,5.8,3.7
			c8.8,3.2,17.5,6.7,26.5,8.9c9,2.1,18.3,3.5,27.5,4c23.4,1.3,46.6,0.4,69.2-7c5.3-1.7,10.5-3.5,14.3-8.3
			c-5.5,0.1-11.1,0.3-16.3,1.7c-21.6,5.4-43.6,7-65.7,5.7c-17.4-1-34.3-4.7-51.1-9C347.2,511.6,344,511.3,340.8,510.9z M242.1,429.6
			c-1,1.3-2.5,2.2-2.5,3.3c-0.1,1.7,0.2,3.9,1.2,5.2c7.6,9.5,14.8,19.3,23.2,28c9.6,10,20.1,19.2,32,26.5c0.7,0.4,1.3,0.9,2,1.3
			c5.2,3.2,10.4,6.6,15.8,9.5c1,0.5,4-0.4,4.3-1.2c0.4-1.4-0.1-3.7-1.1-4.8c-1.7-1.9-4-3.3-6.2-4.6c-14.8-8.4-27.8-19.1-39.9-31
			c-9.3-9.1-17.8-18.9-25.3-29.5C245,431.4,243.7,430.8,242.1,429.6z M309.4,139.5c-2.1,0.6-4.5,0.6-5.8,1.8
			c-9,8.3-17.9,16.8-26.6,25.5c-2.5,2.5-4.3,5.7-6,8.8c-0.7,1.2-0.1,3.1-0.1,4.6c1.5-0.4,3.6-0.3,4.5-1.2c3-2.9,5.5-6.4,8.5-9.4
			c7.4-7.2,14.9-14.3,22.5-21.3C308.8,146.2,310.6,144,309.4,139.5z M417.5,333.8c-0.4,0.1-0.9,0.2-1.3,0.3c0.1,1.5-0.2,3,0.3,4.4
			c3.5,10.6,5.3,21.5,6.1,32.6c0.1,1.6,0.8,3.2,1.2,4.9c0.9-1.7,1.7-3.4,2.6-5c0.1-0.1,0-0.3,0-0.4c-0.3-11.2-2.8-22-6.1-32.6
			C419.9,336.3,418.5,335.1,417.5,333.8z M413.6,319c-0.3-1.1-0.6-2.4-0.9-3.8c-1.2,1-2.8,1.8-3.5,3c-0.9,1.7-1.4,3.7-1.5,5.7
			c-0.1,1.2,0.9,2.5,1.4,3.8c1.2-0.5,2.6-0.9,3.7-1.7c0.9-0.6,1.6-1.7,2.2-2.6c0.7-1,1.3-2.1,1.9-3.1
			C415.7,319.9,414.6,319.4,413.6,319z"/>
		<path class="st4" d="M429.5,61.7c3.9,0.7,5.7-2.8,8.4-4.3c3.1-1.7,5.9-3.9,9.1-6.1c-0.7-0.8-1.4-1.6-2.1-2.4
			c1.1,0.3,2.2,0.5,3.3,0.9c5.8,2.7,12.9,1.7,15.9-2.5c-0.7-0.8-1.5-1.7-2.3-2.6c8-3.1,16.2-4.6,24.7-4.8c12.4-0.3,24.6,0.3,36.8,3
			c1.2,0.3,2.6-0.8,3.9-1.3c13.7,5.5,25.7,14.2,38,22.1c6.2,4,11.8,8.8,17.4,13.5c4.9,4.1,9.4,8.7,14.1,13.1
			c-2.6,4.9,0.8,9.1,1.6,13.7c0.4,2.5,0.8,5,1.2,7.5c-0.3,0.2-0.7,0.4-1,0.5c-3.2-2.8-6.5-5.6-9.7-8.4c-8.4-7.2-16.8-14.5-25.4-21.5
			c-15.8-13-33.4-22.9-52.3-30.6c-4.6-1.9-9.1-4.3-13.8-5.9c-5-1.7-6-0.7-6.1,4.7c-3.5,0.4-7.1,0.6-10.6,1.3
			c-10.8,2.4-21.2,5.8-30.3,12.3C443.4,63.3,436.4,62.5,429.5,61.7z"/>
		<path class="st5" d="M424.9,99.9c-24-1.1-47.6,1.2-70.2,9.7c-11.2,4.2-22.1,9.7-32.6,15.4c-7.3,4-14.1,9-20.6,14.2
			c-11.4,9.2-21.8,19.5-30.9,30.9c-10.7,13.5-19.6,28.1-26.5,43.9c-9,20.7-14.8,42.3-16.9,64.9c-3,32.5,0.9,64,12.4,94.5
			c2.9,7.8,6.6,15.4,10.4,22.8c9.8,18.7,21.8,35.8,37.6,50.1c5.5,5,10.9,10.2,16.9,14.5c8.3,5.9,17,11.2,25.6,16.6
			c5.4,3.3,11,6.3,16.4,9.5c1.7,1,3.3,2.5,4.9,3.7c-0.2,0.5-0.3,1-0.5,1.4c-3.4-0.4-6.9-0.4-10.2-1.4c-17-5.1-30.9-15.5-44.9-25.8
			c-3.6-2.7-6.8-5.9-10.1-8.9c-16.4-15.2-30.1-32.6-40.8-52.2c-13.4-24.5-21.8-50.7-25.1-78.5c-2.4-19.9-2.1-39.8,1.1-59.7
			c4.3-27.1,12.7-52.7,27.2-76c6.1-9.8,12.8-19.2,19.9-28.3c10.2-13.2,22.4-24.4,36.3-33.7c6.6-4.4,13.3-8.6,20-12.9
			c14-8.8,29.6-13.2,45.2-18.1c14.3-4.5,28.9-4.9,43.5-6.3c7.1,0.3,14.3,0.6,21.4,0.9c4,0.5,8,1,12.1,1.6c2.9,0.5,5.9,1.1,8.8,1.6
			c1.3,0.3,2.6,0.6,3.9,0.9c2.2,0.8,4.3,1.6,6.5,2.4c1.9,0.5,3.8,1,5.7,1.5c1.6,0.6,3.2,1.1,4.8,1.7c1.6,0.5,3.2,1,4.8,1.5
			c0.8,0.3,1.6,0.6,2.4,0.8c1.8,1.2,3.5,2.2,5.6,0.3c0.5-0.5,2.1,0.3,3.2,0.5c-1.3,3.8,2.3,3.5,4,4.8c1.9,1.1,3.7,2.1,5.6,3.2
			c1.1,0.5,2.1,1,3.2,1.6c1.6,0.8,3.2,1.6,4.8,2.5c1.8,1.1,3.7,2.2,5.5,3.3c8.1,5.8,16.1,11.6,24.2,17.4c1,0.8,2,1.7,3,2.5
			c1.6,1.6,3.2,3.2,4.8,4.8c0.8,0.8,1.6,1.6,2.4,2.4c1.6,1.6,3.2,3.2,4.8,4.7c1.6,1.5,3.3,3,5.6,5.1c0-4.1,0-7,0-9.9
			c0.8,0.8,1.6,1.6,2.4,2.4c0,1.6,0.2,3.2,0,4.7c-0.8,5.5,1.2,9.7,5.6,12.9c1.6,2.4,3.2,4.8,4.8,7.2c1,1.4,2.1,2.7,3.1,4.1
			c1.3,1.9,2.7,3.8,4,5.7c1.3,2.4,2.7,4.7,4,7.1c1.9,3.2,3.7,6.4,5.6,9.7c3.2,7.4,6.5,14.8,9.7,22.2c3.5,12.8,7.8,25.4,10.3,38.4
			c5.2,26.4,4.7,52.9-0.3,79.4c-3.8,20.2-10.3,39.6-19.8,57.9c-0.3,0.6-0.5,1.2-0.7,1.8c-0.3,0.4-0.7,0.8-0.9,1.3
			c-9.7,19.1-22.3,36.1-37.8,50.9c-8.4,8-17.9,14.9-26.9,22.3c-8.4,4.8-16.6,9.8-25.2,14.2c-19,9.8-39.4,15.2-60.7,17.6
			c-2.2,0.3-4.6,0.6-6.7,0.2c-1.5-0.3-2.7-1.9-4.1-2.9c1.1-1.4,2-3.8,3.4-4c5.6-1.2,11.3-1.4,16.9-2.6c17.2-3.5,33.7-8.9,49.6-16.3
			c2.5-1.2,4.6-3,6.9-4.5c10.3-4.4,18.9-11.2,27.2-18.5c1.1-0.7,2.3-1.2,3.3-2c12.1-10,22.4-21.7,31.9-34.2c1.8-2.4,3.1-5.2,4.7-7.7
			c4.6-7.7,9.1-15.4,13.7-23.2c3-7.2,6.3-14.3,9-21.6c7.4-20,11.5-40.7,11.6-62c0-13.9-0.8-27.9-2.6-41.7
			c-2-15.3-5.9-30.2-12.4-44.3c-1.3-3.3-2.5-6.7-3.9-10c-1.3-2.9-2.8-5.6-4.2-8.4c-1.5-2.7-3.1-5.4-4.6-8.1c-1-1.6-2.1-3.3-3.1-4.9
			c-0.5-1.1-1.1-2.1-1.6-3.2c-1.1-1.6-2.3-3.1-3.4-4.7c-1-1.4-2-2.8-3.1-4.1c-0.8-1.1-1.6-2.1-2.4-3.2c-0.7-1.5-1.4-3-2.4-5
			c-1.4,1.6-2.5,2.5-3.1,3.6c-1,1.8-1.3,4.4-2.8,5.4c-2.6,1.8-3.6,5.9-7.7,5.6c-0.7-0.8-1.4-1.6-2.2-2.5c0.7,0,1.7,0.2,1.9-0.1
			c2-2.8,6.2-3.8,6-8.3c0-0.6,0.5-1.5,1-1.9c3.1-2.6,3.6-5.2,0.5-8.1c-1.3-1.4-2.6-2.7-3.9-4.1c-0.8-1.1-1.6-2.1-2.4-3.2
			c-0.8-0.7-1.6-1.5-2.4-2.2c-0.8-0.6-1.6-1.2-2.3-1.8c-1.6-1.6-3.2-3.2-4.8-4.8c-1.1-0.9-2.1-1.7-3.2-2.6c-1.4-1.2-2.7-2.5-4.1-3.7
			c-4.5-3.2-9-6.5-13.4-9.7c-3-2.1-6-4.2-9-6.3c-2.7-1.3-5.3-2.6-8-4c-1.6-0.8-3.1-1.7-4.7-2.5c-1.6-0.8-3.2-1.6-4.8-2.3
			c-5-2.6-7.7-1.7-8,2.6c-0.1,1.4,0,2.9,0,4.3c-1.6-0.6-3.2-1.3-4.9-1.9c1.3-2.7,2.6-5.4,4.2-8.6c-1.2-0.6-2.7-1.3-4.1-1.9
			c-1.6-0.5-3.2-1-4.8-1.6c-1.6-0.5-3.2-1.1-4.8-1.6c-2.7-0.8-5.3-1.6-8-2.3c-2.4-0.5-4.8-1-7.2-1.5c-3.2-0.5-6.4-1.1-9.6-1.6
			C437.7,101.1,431.3,100.5,424.9,99.9z"/>
		<path class="st1" d="M494.3,470.2c-9.8,3.9-19.3,8.5-29.3,11.5c-34.6,10.2-69.3,9.7-103.5-1.4c-11.6-3.7-22.6-9.5-33.3-15.3
			c-7.6-4.1-14.7-9.4-21.5-14.8c-11.5-9.2-21.8-19.7-30.8-31.4c-10.1-13.2-18.5-27.5-24.7-42.9c-6.5-16.1-11.8-32.7-13.2-50.1
			c-1.1-13.3-2.1-26.8-1.3-40.1c0.7-12.3,3.6-24.6,6.1-36.7c2.8-13.7,8-26.5,15.8-38.2c1.7-2.5,3.7-4.7,5.6-7
			c0.3,0.1,0.6,0.3,0.9,0.4c-0.1,0.8-0.1,1.6-0.4,2.3c-4.3,12.3-9,24.5-12.9,37c-4.3,13.8-6.6,28-7.7,42.5
			c-2,26.8,1.8,52.7,10.8,77.9c4.6,12.9,10.6,25.1,18.1,36.6c7,10.9,14.9,20.8,23.9,30.1c12.9,13.2,27.7,23.5,43.9,32.2
			c15.3,8.2,31.6,12,48.3,15.8c16,3.6,32.1,3.7,48.1,1.2c12.4-1.9,24.4-6.2,36.6-9.5c6.7-3.2,13.3-6.4,20-9.6
			c3.2-1.7,6.5-3.5,9.7-5.2c2.6-1.7,5.3-3.5,7.9-5.2c2.2-1.7,4.3-3.5,6.5-5.2c2.1-1.6,4.2-3.3,6.4-4.9c6.6-6.7,13.3-13.5,19.9-20.2
			c1.8-2.4,3.6-4.8,5.5-7.1c0.4-0.6,0.9-1.3,1.3-1.9c4.9-7.6,9.9-15.2,14.8-22.8c1.9-3.6,3.9-7.2,5.6-10.9
			c5.5-12.3,9.8-25.1,12.6-38.4c5.4-25.5,5.5-51.1,0.5-76.7c-2.7-14-6.6-27.6-13.2-40.4c-0.9-4.1-1.8-8.2-2.6-12.3
			c0.4-0.2,0.9-0.5,1.3-0.7c1.8,1.4,3.6,2.9,5.4,4.3c2.7,5.8,5.4,11.6,8,17.5c5.4,16.9,10,34,11.4,51.9c1.6,20.3,0.7,40.4-4,60.2
			c-2.6,11-6.5,21.8-9.8,32.7c-4.5,8.8-9.1,17.6-13.6,26.4c-8.4,13.9-18.3,26.5-30,37.7c-5.2,5-10.9,9.6-16.3,14.4
			C512,459.1,503.1,464.7,494.3,470.2z"/>
		<path class="st6" d="M440.7,267.1c-14.7,12.7-27.8,27-40.1,42c-2.8,3.4-3,6.7-1.4,11.2c11,31.3,18.5,63.3,17.6,96.7
			c-0.1,3.5-0.7,7.2-1.9,10.5c-0.5,1.5-3.1,3.4-4.6,3.3c-2.8-0.2-2.2-2.9-2.2-5.1c0-11.4,0.7-22.9-0.3-34.2c-2-23-8-45.2-15.5-66.9
			c-0.2-0.6-0.5-1.1-0.9-2.3c-3.8,6-7.5,11.5-10.8,17.2c-5.1,8.8-10.3,17.7-14.8,26.8c-5.2,10.4-9.9,21.1-14.7,31.7
			c-0.9,2-1.8,4.2-4.5,3.5c-2.8-0.7-2.8-3.1-2.3-5.2c0.9-4,1.8-8.1,3.5-11.8c6.4-13.4,12.9-26.8,20-39.9
			c5.7-10.5,12.4-20.4,18.5-30.7c0.8-1.3,0.8-3.7,0.1-5.1c-6-14-12.1-28-18.4-41.9c-3.5-7.7-7.5-15.2-11.6-23.3
			c-9.9,7.2-19.4,14.3-28.9,21.3c-5.3,3.9-10.5,7.7-15.8,11.6c-1.2,0.9-2.3,1.8-3.6,2.5c-1.3,0.7-2.8,1-4.2,1.5c0-1.8,0-3.6,0.1-5.3
			c0-0.4,0.6-0.9,1-1.2c6.7-6,13.1-12.3,20.2-17.9c8.5-6.7,17.6-12.7,27-19.5c-3.7-6.2-7.6-12.6-11.5-19c-0.2-0.4-0.9-0.5-1.3-0.8
			c-1.1-0.8-2.1-1.6-3.2-2.5c1.1-1.3,2.4-3.8,3.3-3.7c2.5,0.3,5.7,1,7.2,2.8c3.5,4.1,6.1,9,9,13.5c1,1.5,2,3.1,3.1,5
			c8-4.7,15.6-9.5,23.4-13.9c6.1-3.3,12.4-6.1,18.7-9c10.8-4.9,21.7-9.7,32.5-14.5c4.5-1.6,9.1-3.2,13.6-4.8
			c2.4-1.1,4.8-2.1,7.2-3.2c1.9-0.6,3.7-1.1,5.6-1.7c1.9-0.5,3.8-1.1,5.6-1.6c1.1-0.3,2.1-0.5,3.2-0.8c1.6-0.5,3.2-0.9,4.8-1.4
			c1.6-0.3,3.2-0.6,4.8-0.9c1-0.1,2.1-0.2,3.1-0.2c2.1-0.2,4.3-0.4,6.4-0.6c1.6,0,3.2,0.1,4.8,0.1c2.7,1.6,5.4,3.2,8.1,4.8
			c0.3,1.9,0.5,3.7,0.8,5.6c-0.3,1.8-0.7,3.7-1,5.5c-0.3,0.5-0.5,1-0.8,1.6c-1.1,1.9-2.1,3.8-3.2,5.6c-0.6,1.3-1.2,2.6-1.8,3.9
			c-1,1.4-2,2.7-2.9,4.1c-1.1,1.6-2.1,3.2-3.2,4.8c-1.3,1.9-2.5,3.7-3.8,5.6c-0.6,0.8-1.2,1.6-1.9,2.4c-1.4,1.6-2.7,3.2-4.1,4.7
			c-2.1,2.4-4.1,4.9-6.2,7.3c-2.4,2.4-4.9,4.8-7.3,7.1C457.3,250.5,449,258.8,440.7,267.1z M483.3,188.7c-2.4,0.3-4.8,0.6-7.2,1
			c-3,0.7-5.9,1.5-8.9,2.2c-2.7,0.8-5.3,1.6-8,2.4c-3.2,1.1-6.4,2.1-9.6,3.2c-6.6,2.7-13.3,5.4-19.9,8c-1.3,0.4-2.6,0.6-3.8,1.2
			c-11.9,5.6-24,11.1-35.7,17.1c-9.1,4.7-17.9,10-26.4,14.8c10.3,22.1,20.2,43.4,30.2,64.8c0.7-0.8,1.5-1.8,2.4-2.7
			c9-9.7,17.9-19.4,27.2-28.9c7-7.2,14.4-14.1,21.6-21.1c7.7-8,15.5-16,23.2-24.1c2.9-3.5,5.8-7.1,8.7-10.6c2.2-2.9,4.4-5.7,6.5-8.6
			c1.3-2.3,2.5-4.5,3.8-6.8c1.2-1.8,2.3-3.6,3.5-5.4c1.1-2.1,4-4.2,1-6.7C489.1,186.3,486,186.3,483.3,188.7z"/>
		<path class="st7" d="M440.7,267.1c8.3-8.3,16.6-16.5,24.9-24.8c1.9,4.2,3.8,8.3,5.6,12.5c0.2,0.6,0.1,1.3,0.1,2
			c0,9.9,0,19.8-0.1,29.8c-3.1-0.4-3.7,1.1-2.7,3.7c0.4,1.1,0.8,2.2,1.2,3.2c0,4.6,0,9.2,0,13.7c-1.6,0.6-2.8,1-4,1.5
			c-0.9,1.9-2.2,4.8,0.5,5.2c2.7,0.4,3.1,1.6,3.6,3.6c1.1,4.7-0.3,8.8-2.4,12.8c-1.3,2.4-3.6,4.3-6.1,3c-1.9-1-3.7-3.5-4.1-5.6
			c-0.6-3,0.2-6.3,0.4-9.4c0.1-1.8,0-3.7,0-6.1c-1.1,0.8-1.7,1-1.9,1.4c-3.1,5.7-3.7,11.8-1.8,18c1,3.3,3.3,5.7,7.1,6.1
			c2.5,0.6,3.3,2,3.3,4.7c-0.1,23.7-0.1,47.3-0.1,71c0,1.4-0.1,3.4,0.7,4.1c3.2,2.8,3.4,6.3,3.3,10.2c0,1.2,0.4,2.6,1,3.8
			c2.4,4.2,4.6,8.5,7.4,12.5c2,2.8,4.6,5.3,7.2,7.7c3.2,3.1,6.6,5.9,9.9,8.9c-6.7,3.2-13.3,6.4-20,9.6c0.2-2.1-0.9-2.9-2.5-4.2
			c-4.2-3.4-7.8-7.5-11.7-11.3c-1.4-1.3-3.6-2.1-4.4-3.7c-3-5.6-6.9-10.8-7.9-17.5c-0.8-5.5-2.9-10.7-4.3-16.1
			c-0.3-1.3-0.4-2.6-0.4-3.9c0-18.6,0-37.3,0-55.9c-0.4-3.3-0.5-6.6-1.2-9.9c-1.5-6.7-2.1-12.8,1-19.5c3.8-8.2,6.3-17.1,9.2-25.8
			c0.4-1.3-0.3-3.1-0.5-4.6c-1.5,0.5-3.3,0.7-4.6,1.5c-1.5,1-2.6,2.6-3.9,3.9c0-10.6,0.1-21.1-0.1-31.7
			C442.4,270,441.3,268.5,440.7,267.1z"/>
		<path class="st8" d="M429.5,61.7c7,0.8,13.9,1.6,20.9,2.3c4.3,1.1,8.6,2.1,12.8,3.2c4.3,1.1,8.6,2.1,12.8,3.2
			c3.5,1.1,6.9,2.1,10.4,3.2c3.7,1.3,7.4,2.7,11.2,4c3.8,1.8,7.5,3.7,11.3,5.5c3.4,1.6,6.8,3.3,10.2,4.9c9.4,6.1,18.8,12.2,28,18.5
			c1.7,1.2,2.6,3.7,3.9,5.6c-1,1-1.9,2.1-2.9,3.1c-1.4-0.3-2.7-0.6-4.1-0.8c-5.2-3.8-10.4-7.6-15.7-11.4c-2.7-1.6-5.4-3.2-8.2-4.7
			c-1.5-1.1-3.1-2.2-4.6-3.3c-1.6-0.8-3.2-1.6-4.8-2.4c-2-1-4-2-6-3c-2.4-1-4.8-2.1-7.1-3.1c-2.4-0.8-4.8-1.7-7.2-2.5
			c-1.6-0.5-3.2-1.1-4.8-1.6c-2.1-1.1-4.2-2.1-6.4-3.2c-2.7-0.8-5.3-1.6-8-2.4c-3.5-0.8-6.9-1.6-10.4-2.4c-4.5-0.8-9.1-1.6-13.6-2.4
			c-8.3-0.8-16.5-1.6-24.8-2.4c-32.3-1-63.3,4.8-92.7,18.4c-7.3,3.9-14.6,7.7-21.9,11.6c-12.2,6.5-22.7,15.5-33.2,24.3
			c-4.6,4.5-9.4,8.9-13.8,13.5c-1.8,1.8-3,4.2-4.5,6.3c-1.3,1.6-2.7,3.2-4,4.8c-2.2,2.3-4.7,4.3-6.5,6.8
			c-4.4,6.3-8.6,12.7-12.7,19.2c-16,25.2-25.9,52.8-31.2,82.1c-3.8,20.5-4.7,41.3-3,62.1c1.7,21.9,6.6,43.1,13.9,63.9
			c1.8,5.2,2.8,10.8,3.6,16.4c-5.2-2.4-7.3-7.1-9.2-11.6c-7.7-18.6-12.2-38.1-14.6-58c-2.5-20.8-2.4-41.6,0.4-62.5
			c3.6-27.1,11-53,23.5-77.3c5.2-10.1,11.2-19.9,17.3-29.5c7.5-11.8,16.7-22.3,26.5-32.2c11.1-11.3,22.9-21.7,36.6-29.7
			c10.1-6,20.6-11.4,30.9-17c15.6-8.4,32.7-11.6,49.7-15.7C394.6,61.3,412,61.6,429.5,61.7z"/>
		<path class="st9" d="M348.2,525.6c8.5,1.5,16.4,2.7,24.3,4.2c18.1,3.3,36.2,5.1,54.7,4c16-0.9,31.9-2.7,47-7.6
			c13.3-4.3,26.3-9.6,39-15.5c8.6-4,17-8.9,24.4-14.7c12.2-9.5,24.3-19.4,35.1-30.3c9.3-9.4,17.5-20,24.9-31
			c17.1-25.4,28.8-53.4,35.2-83.4c5.2-24.4,6.7-49,4.7-73.8c-0.4-4.8-1-9.5-1.6-14.3c-0.3-2.5-0.7-5.3,2.5-5.8
			c3.1-0.5,3.7,2.2,4.1,4.7c2.4,16.5,3.4,33.1,2.5,49.7c-1.4,25.3-6.1,49.8-14.8,73.6c-5.7,15.6-12.7,30.6-21.4,44.8
			c-7,11.4-14.7,22-23.4,32.1c-9.6,11.1-19.8,21.5-31.5,30.2c-7.2,5.3-14.4,10.8-22.1,15.4c-9.5,5.6-19.6,10.4-29.4,15.4
			c-17.9,9.2-37.5,12.3-57,16.1c-15.6,3-31.2,3.2-46.7,1.9c-15.3-1.3-30.6-3.8-45-9.5C351.4,530.8,348.2,530.4,348.2,525.6z"/>
		<path class="st1" d="M334.4,65c-1.4,1.8-2.4,3.4-3.7,4.7c-0.9,0.9-2.2,1.5-3.4,2c-13.8,5.3-26.3,13.1-38.4,21.2
			C275,102,262.5,113,251.2,125c-7.8,8.4-15.1,17.4-21.8,26.8c-19.5,27.6-32.9,57.9-40.3,90.9c-4.5,19.9-6.7,40.1-6.3,60.5
			c0.5,22.4,3.3,44.6,9.7,66.2c1.2,4.2,2.5,8.3,3.8,12.5c0.3,1,0.9,2.1,0.7,3c-0.5,1.8-1.4,3.5-2.2,5.3c-1.5-1.3-3.8-2.3-4.2-3.9
			c-3.9-13.3-8-26.6-10.9-40.1c-3.5-16.6-4.4-33.6-4.2-50.7c0.2-20.3,2.8-40.2,7.6-59.8c5.3-21.7,12.7-42.6,24-62
			c5.9-10.2,12.4-20.1,19-29.8c7.8-11.4,17.1-21.5,27.1-31.2c12.2-11.9,25.2-22.7,40-31.1c9.7-5.5,19.8-10.4,29.6-15.8
			C326.2,64,329.4,61.8,334.4,65z"/>
		<path class="st1" d="M424.9,557.2c-1.2-0.6-2.6-1-3.5-1.9c-1-1.1-2.2-2.8-1.9-4c0.2-1,2.2-2.3,3.5-2.4c6.4-0.7,13-0.8,19.4-1.8
			c11.5-1.8,23.1-3.3,34.2-6.5c12.3-3.6,24.4-8.3,36.1-13.6c10-4.6,19.6-10.4,29-16.3c6.6-4.1,13-8.8,18.7-14
			c10.9-10,21.8-20.1,31.6-31.2c12.1-13.7,22.2-29.1,30.7-45.4c4.6-8.9,8.3-18.3,12.5-27.5c0.7-1.6,1.3-3.2,2.4-4.6
			c1-1.2,2.4-2.1,3.6-3.1c0.6,1.5,1.6,3,1.8,4.5c0.2,1.4-0.3,2.9-0.9,4.2c-5.2,11.5-9.8,23.3-15.9,34.2c-6.7,11.9-14.6,23-22.4,34.2
			c-7.8,11.2-17.4,20.9-27.5,30.2c-12.7,11.9-26.3,22.5-41.6,30.8c-10.1,5.4-20.5,10.2-30.7,15.3c-18.4,9.2-38.4,12.5-58.5,15.7
			c-6.7,1.1-13.6,1.4-20.4,2.1C425,556.6,425,556.9,424.9,557.2z"/>
		<path class="st6" d="M478.4,121c1.6,0.6,3.2,1.3,4.9,1.9c1.6,0.6,3.2,1.2,4.8,1.9c1.6,1,3.2,2.1,4.8,3.1c1.6,0.8,3.2,1.6,4.8,2.4
			c2.4,1.3,4.8,2.6,7.2,4c3.2,2,6.3,4.1,7.2,8.2c-0.1,0.3-0.1,0.5,0,0.7c-0.8,0.3-1.6,0.6-2.4,0.9c-1.3-0.1-2.6-0.1-3.9-0.2
			c-1.6-1.1-3.2-2.1-4.8-3.2c-1.1-0.6-2.2-1.2-3.2-1.8c-1.9-1-3.8-1.9-5.7-2.9c-1.8-0.8-3.6-1.7-5.4-2.5c-1.9-0.8-3.8-1.6-5.7-2.4
			c-0.6-0.2-1.1-0.5-1.7-0.7c-1.5-0.6-3-1.1-4.6-1.7c-1.2-0.4-2.3-0.9-3.5-1.3c-2.4-1.1-4.8-2.1-7.2-3.2c-0.8-0.2-1.6-0.5-2.4-0.7
			c-1.1-0.3-2.2-0.6-3.2-0.9c-1.3-0.3-2.6-0.6-4-0.9c-1.6-0.3-3.2-0.6-4.8-0.9c-1.9-0.5-3.7-0.9-5.6-1.4c-1.3-0.1-2.6-0.3-3.9-0.4
			c-3-0.4-5.9-0.8-8.9-1.3c-4.3-0.3-8.5-0.5-12.8-0.8c-18.9-0.1-37.5,2.5-55.5,8.3c-5.9,1.9-11.6,4.6-17.5,6.7
			c-2.3,0.8-4.9,0.8-7.9,1.2c1.5-4.6,4.6-6.9,7.8-8.5c13.4-6.6,27.7-10.4,42.4-12.5c10.6-1.5,21.4-2.2,32.1-3.2
			c6.7,0.5,13.3,1.1,20,1.6c4,1,8.1,2,12.1,3c2.4,0.5,4.8,1.1,7.2,1.6c2.4,0.6,4.8,1.3,7.2,1.9c1.6,0.5,3.2,1,4.8,1.4
			c1.6,0.5,3.2,1.1,4.8,1.6C476.9,120.3,477.6,120.6,478.4,121z"/>
		<path class="st1" d="M606.3,196.1c8.6,17.1,14.5,35.1,18.5,53.8c3.8,17.9,5.7,35.9,5.2,54.1c-0.5,17.6-1.9,35.1-7.3,52.1
			c-1.6,5.1-2.6,6.8-6.6,8.6c0.3-4.7,0.4-9,0.9-13.1c1.7-13.9,4.3-27.7,5.4-41.6c2.3-30.8-2.8-60.7-13.5-89.6
			c-1.3-3.6-2.8-7.2-4.2-10.8c-1.5-5.2-5.8-9.8-3.2-16.4C603.3,194.3,604.8,195.2,606.3,196.1z"/>
		<path class="st2" d="M340.8,510.9c3.2,0.5,6.4,0.7,9.5,1.5c16.8,4.3,33.8,8,51.1,9c22.1,1.3,44.1-0.3,65.7-5.7
			c5.3-1.3,10.8-1.6,16.3-1.7c-3.8,4.8-9.1,6.6-14.3,8.3c-22.5,7.4-45.8,8.2-69.2,7c-9.2-0.5-18.5-1.8-27.5-4
			c-9-2.2-17.7-5.7-26.5-8.9c-2.1-0.8-3.9-2.5-5.8-3.7C340.4,512.1,340.6,511.5,340.8,510.9z"/>
		<path class="st10" d="M418.5,116.9c4.3,0.3,8.5,0.5,12.8,0.8c0.1,0.6,0.2,1.3,0.2,1.9c0.2,9-0.3,18,0.8,26.9
			c1.4,11.4,4.7,22.4,10.3,32.6c1.8,3.3,3.2,6.9,4.7,10.4c-4.5,1.6-9.1,3.2-13.6,4.8c0.1-1.1,0.5-2.4,0.1-3.3
			c-3.9-9.7-8.4-19.1-11.6-28.9c-2.2-6.7-2.5-13.9-3.7-20.9c-0.3-1.8-0.7-3.6-0.8-5.5c-0.1-3.2-0.2-6.5,0-9.7
			C417.8,122.9,418.2,119.9,418.5,116.9z"/>
		<path class="st1" d="M242,459c-5-7-10.2-13.9-15.1-21c-1.5-2.2-2.5-4.9-3.4-7.5c-0.3-0.9,0.3-3.1,0.7-3.1c1.3-0.2,3.2-0.1,3.9,0.7
			c1.8,1.9,3,4.3,4.7,6.3c7.1,8.9,14.1,18,21.4,26.7c10.3,12.2,22,22.9,35.3,31.8c6.8,4.5,13.6,9,20.6,13.3c4.6,2.8,9.5,5.1,13.9,8
			c1.4,0.9,2,3.2,3,4.9c-2,0.4-4.5,1.8-6,1c-7.3-3.6-14.4-7.7-21.5-11.6c-1.9-1-3.7-2-5.6-3.1c-9.9-7.7-19.8-15.4-29.7-23.1
			c-1-0.8-2.1-1.7-3-2.7C254.9,472.9,248.5,465.9,242,459z"/>
		<path class="st1" d="M598.3,157.7c3.7,5.9,7.6,11.8,11.1,17.9c9,15.5,16.4,31.6,21.1,49c0.4,1.4,0.7,2.9,0.5,4.3
			c-0.1,1.1-1,3-1.5,3c-1.2,0-3-0.7-3.5-1.6c-1.8-3.6-3.1-7.6-4.7-11.3c-4.2-9.5-8.4-19-12.6-28.5c-3.6-6.7-7.3-13.4-10.9-20.1
			c-3-4-5.9-7.9-8.9-11.9c-1.8-2.7-3.7-5.4-5.5-8.1c-1.6-1.9-3.2-3.7-4.8-5.6c-2.5-2.9-5-5.8-7.5-8.7c-2.2-2.2-4.5-4.4-6.7-6.6
			c-1.1-1.3-2.2-2.6-3.3-3.9c-1.4-2.1-2.8-4.2-4.2-6.3c1.1-0.8,2.1-1.6,3.2-2.5c1.1,0.3,2.1,0.7,3.2,1c2.4,2.1,4.8,4.2,7.2,6.4
			c2.4,2.6,4.8,5.3,7.2,7.9c3.2,3.7,6.4,7.4,9.6,11.1C590.9,147.9,594.6,152.8,598.3,157.7z"/>
		<path class="st6" d="M590.3,412.7c4.5-8.7,9-17.3,13.5-26c1.1-2.1,1.7-4.4,2.8-6.6c1-2,2.4-3.9,4.9-2.7c2.4,1.1,2.5,3.1,1.6,5.4
			c-3,7.2-5.6,14.6-9.2,21.5c-7.5,14.5-15.8,28.6-26.6,40.9c-5.7,6.6-11.5,13.1-17.4,19.5c-2.2,2.4-4.9,4.7-8.6,4
			c-1.8-2.8-0.9-5.2,1.2-7.5c5.4-5.7,11-11.1,15.9-17.2c6.4-7.8,12.3-16,18.2-24.1C588.1,417.8,589,415.2,590.3,412.7z"/>
		<path class="st1" d="M242.1,429.6c1.6,1.2,2.9,1.8,3.6,2.8c7.5,10.6,16,20.4,25.3,29.5c12.1,11.9,25.1,22.6,39.9,31
			c2.2,1.3,4.5,2.7,6.2,4.6c1,1.1,1.6,3.4,1.1,4.8c-0.3,0.8-3.3,1.8-4.3,1.2c-5.4-2.9-10.6-6.3-15.8-9.5c-0.7-0.4-1.3-0.9-2-1.3
			c-11.9-7.3-22.4-16.5-32-26.5c-8.4-8.7-15.7-18.6-23.2-28c-1-1.3-1.3-3.5-1.2-5.2C239.7,431.8,241.1,430.9,242.1,429.6z"/>
		<path class="st6" d="M252.3,148.6c1.3-1.6,2.7-3.2,4-4.8c1.7-1.7,3.4-3.4,5.1-5.1c4.7-4.7,9.4-9.3,14-14
			c7.2-5.6,14.1-11.7,21.7-16.6c10.9-6.9,22.4-12.9,33.6-19.3c3.2-0.4,6.5-0.8,9.7-1.2c0.3,0.4,0.6,0.8,0.8,1.2
			c-1.1,1.4-2,3.1-3.4,4.2c-2.5,1.8-5.2,3.6-8,4.8c-15.7,6.6-29.5,16.1-42.5,26.8c-8.7,7.2-16.3,15.8-24.4,23.8
			c-1,1-1.8,2.4-3.1,3.1c-1.9,1.1-4.1,1.8-6.2,2.7C253.4,152.4,252.9,150.5,252.3,148.6z"/>
		<path class="st11" d="M590.3,412.7c-1.2,2.4-2.2,5.1-3.8,7.3c-5.9,8.1-11.8,16.3-18.2,24.1c-4.9,6-10.6,11.5-15.9,17.2
			c-2.1,2.2-3,4.6-1.2,7.5c-0.5,0.6-0.8,1.6-1.4,1.7c-8.7,2.5-17.6,4.2-26.7,3.8c9-7.4,18.5-14.3,26.9-22.3
			c15.4-14.8,28-31.8,37.8-50.9c0.2-0.5,0.6-0.8,0.9-1.3c0,3-0.1,6.1,0.1,9.1C588.9,410.2,589.8,411.5,590.3,412.7z"/>
		<path class="st2" d="M461.8,44.8c0.8,0.9,1.5,1.8,2.3,2.6c-3,4.2-10.1,5.2-15.9,2.5c-1-0.5-2.2-0.6-3.3-0.9
			c-13.2-0.6-26.5-1.3-39.7-1.6c-4.9-0.1-9.7,0.9-14.6,1.3c-1.2,0.1-2.4,0.1-3.6,0.2c-2.8,0.2-5-0.8-5-3.8c0-2.9,2.2-3.9,4.9-4.2
			c22.8-2.7,45.6-2,68.2,1.7C457.3,42.9,459.5,44,461.8,44.8z"/>
		<path class="st6" d="M442.5,303.2c1.3-1.3,2.4-2.9,3.9-3.9c1.3-0.9,3-1,4.6-1.5c0.2,1.6,0.9,3.3,0.5,4.6
			c-2.8,8.7-5.4,17.5-9.2,25.8c-3.1,6.7-2.6,12.9-1,19.5c0.7,3.2,0.8,6.6,1.2,9.9c-1-0.7-2.6-1.3-3-2.3c-1.3-3.2-2.1-6.5-3.1-10.1
			c-0.6,1.7-1,3.4-1.8,4.9c-0.5,0.9-1.6,1.5-2.4,2.3c-0.4-1.1-1.2-2.3-1-3.3c0.3-2.2,0.9-4.4,1.8-6.5c2.6-6,1.1-11.8-0.5-17.7
			c-2.4,3-4.8,5.9-7.1,8.7c-0.5-0.3-1-0.7-1.5-1c1.1-2.6,1.7-5.4,3.3-7.7c2.4-3.4,3.7-7.3,6.9-10.4
			C437.4,311.4,439.7,307,442.5,303.2z M445.3,308.4c-0.3-0.2-0.7-0.3-1-0.5c-1.7,2.4-3.1,5.2-5.3,7.1c-4.6,4.1-3.2,8.3-1.1,13.7
			C440.5,321.4,442.9,314.9,445.3,308.4z"/>
		<path class="st12" d="M242,459c6.5,6.9,12.9,13.9,19.4,20.8c0.9,1,1.9,1.8,3,2.7c9.9,7.7,19.8,15.4,29.7,23.1
			c0.7,1.6,1.5,3.2,2.2,4.9c-0.3,0.4-0.6,0.8-0.9,1.2c-2.3-0.8-4.7-1.4-6.8-2.5c-3.8-2.1-7.6-4.4-11.1-7
			c-13.4-9.8-25.2-21.4-36.2-33.8c-1.2-1.3-2-3.1-2.6-4.8C237.5,460.5,238.8,459,242,459z"/>
		<path class="st13" d="M422.5,69.7c8.3,0.8,16.5,1.6,24.8,2.4c-0.7,1.3-1.2,2.6-2,3.8c-3.6,5.2-7.3,10.3-10.9,15.4
			c-7.1-0.3-14.3-0.6-21.4-0.9c-0.6-4.1,1.9-6.9,3.9-10C419,77,420.6,73.3,422.5,69.7z"/>
		<path class="st14" d="M597.8,170.3c3.6,6.7,7.3,13.4,10.9,20.1c-0.8,0.5-2,0.8-2.2,1.5c-0.4,1.3-0.2,2.8-0.2,4.3
			c-1.5-0.9-3-1.9-4.9-3c-2.6,6.6,1.6,11.3,3.2,16.4c-1.5,2.2-3.4,4.3-4.5,6.7c-0.8,1.8-0.7,4-1,6.1c-3.2-7.4-6.5-14.8-9.7-22.2
			c0.9-4.2,0.6-9.2,2.9-12.6c3.2-4.6,1.7-9.5,2.4-14.1C595.2,170.9,595.7,170.4,597.8,170.3z"/>
		<path class="st15" d="M476,70.4c-4.3-1.1-8.6-2.1-12.8-3.2c2.8-1.9,5.4-4.4,8.5-5.5c10.2-3.7,20.7-5.4,31.6-4.9
			c7.5,3.5,14.9,6.9,22.4,10.4c-3-0.1-6.4,0.9-8.4-2.7c-0.3-0.4-1.4-0.5-2.2-0.5c-2.8-0.1-5.5-0.2-8.3,0c-0.9,0.1-1.8,1-2.7,1.5
			c-2.9-1.1-5.7-2.3-8.7-3.1c-2.2-0.6-3.5,0.8-3.4,3.1c-1.1,0.8-2.3,2.2-3.4,2.2C484.1,67.5,480,68.5,476,70.4z"/>
		<path class="st6" d="M309.4,139.5c1.2,4.4-0.6,6.7-3,8.9c-7.6,7-15.1,14.1-22.5,21.3c-3,2.9-5.4,6.5-8.5,9.4c-1,1-3,0.8-4.5,1.2
			c0-1.6-0.5-3.4,0.1-4.6c1.7-3.1,3.5-6.3,6-8.8c8.7-8.7,17.6-17.2,26.6-25.5C304.9,140.1,307.3,140.1,309.4,139.5z"/>
		<path class="st16" d="M504.1,65.6c0.9-0.5,1.7-1.4,2.7-1.5c2.7-0.2,5.5-0.1,8.3,0c0.8,0,1.9,0,2.2,0.5c2,3.6,5.4,2.6,8.4,2.7
			c6.5,3.5,13.5,6.5,19.5,10.8c9.3,6.6,18,14.1,26.9,21.2c0.1,0.7-0.1,1.5,0.3,2.1c2,3.2,4.2,6.3,6.1,9.6c0.5,0.9,0.1,2.3,0.1,3.5
			c-4.5-4-9-8-13.6-12c-0.6-1.3-0.8-2.8-1.7-3.7c-4.9-5.1-9.7-10.2-14.9-14.9c-3-2.7-6.8-4.7-10.2-7c-1.4-0.9-2.8-1.8-4.3-2.3
			c-3.2-1.2-6.9-1.5-9.6-3.3c-3.4-2.2-6.8-1.6-10.3-1.6C510.5,68.2,507.3,66.9,504.1,65.6z"/>
		<path class="st17" d="M503.3,56.8c-10.9-0.5-21.4,1.2-31.6,4.9c-3.1,1.1-5.7,3.7-8.5,5.5c-4.3-1.1-8.6-2.1-12.8-3.2
			c9.1-6.5,19.5-9.9,30.3-12.3c3.5-0.8,7.1-0.9,10.6-1.3c2.3,1.4,4.7,2.8,7,4C499.9,55.3,501.6,56,503.3,56.8z"/>
		<path class="st18" d="M494.3,470.2c8.8-5.6,17.7-11.2,26.5-16.7c2.5,0.5,4.9,1.1,7.4,1.6c1.4,0.3,3.2,0,2.2,2.4
			c-8.3,7.3-16.9,14.1-27.2,18.5c1.7-4.6-3-3.1-4.5-4.6C497.8,470.4,495.8,470.5,494.3,470.2z"/>
		<path class="st19" d="M513.7,69.5c3.5,0,6.9-0.6,10.3,1.6c2.8,1.8,6.4,2.2,9.6,3.3c1.5,0.6,2.9,1.4,4.3,2.3
			c3.5,2.2,7.2,4.2,10.2,7c5.2,4.7,10,9.8,14.9,14.9c0.9,0.9,1.2,2.5,1.7,3.7C549.1,89.3,532.4,77.9,513.7,69.5z"/>
		<path class="st20" d="M578.4,114.4c0-1.2,0.4-2.6-0.1-3.5c-1.9-3.3-4.1-6.4-6.1-9.6c-0.3-0.5-0.2-1.4-0.3-2.1
			c10.6,8.7,22.5,16.5,23.9,32.1c-0.3,0.3-0.6,0.6-0.9,0.9C589.4,126.2,583.9,120.3,578.4,114.4z"/>
		<path class="st21" d="M440,110.5c-6.7-0.5-13.3-1.1-20-1.6c3.8,0.7,3.5-2.7,4.4-4.7c0.6-1.2,0.4-2.8,0.6-4.2
			c6.4,0.6,12.8,1.2,19.2,1.7c-0.5,2-0.9,4-1.7,5.8C442,108.6,440.8,109.5,440,110.5z"/>
		<path class="st22" d="M417.5,333.8c1,1.3,2.4,2.6,2.8,4.1c3.3,10.6,5.8,21.4,6.1,32.6c0,0.1,0,0.3,0,0.4c-0.9,1.7-1.7,3.4-2.6,5
			c-0.4-1.6-1.1-3.2-1.2-4.9c-0.8-11.1-2.6-22-6.1-32.6c-0.4-1.3-0.2-2.9-0.3-4.4C416.6,334,417.1,333.9,417.5,333.8z"/>
		<path class="st23" d="M519,88.1c-3.4-1.6-6.8-3.3-10.2-4.9c3.4,0.2,6.9,0.1,10.3,0.5c2.5,0.3,4.9,1.2,7.4,1.8
			c6.4,4.3,12.7,8.6,19.1,12.9c0.3,0.8,0.5,1.6,0.8,2.4c-0.9-0.1-2.2,0-2.6-0.5c-2.1-2.9-5.1-4.5-7.8-6.6
			C530.9,89.7,525.2,88.5,519,88.1z"/>
		<path class="st24" d="M330.8,88.9c-11.2,6.4-22.7,12.4-33.6,19.3c-7.7,4.9-14.5,11-21.7,16.6c-0.3-0.2-0.5-0.5-0.8-0.7
			c10.6-8.8,21-17.8,33.2-24.3c7.3-3.9,14.6-7.7,21.9-11.6C330.2,88.4,330.5,88.6,330.8,88.9z"/>
		<path class="st25" d="M526.5,85.5c-2.5-0.6-4.9-1.5-7.4-1.8c-3.4-0.4-6.8-0.4-10.3-0.5c-3.8-1.8-7.5-3.7-11.3-5.5
			c4.8,0,9.7-0.1,14.5-0.1C516.9,80.2,521.7,82.8,526.5,85.5z"/>
		<path class="st26" d="M598.3,157.7c-3.7-4.9-7.4-9.8-11.1-14.6c-0.8-3.4-1.6-6.8-2.5-10.3c3.7,4.6,7.4,9.3,11.2,13.9
			C598.7,150,598.5,153.8,598.3,157.7z"/>
		<path class="st27" d="M476,70.4c4-2,8.1-2.9,12.6-2.6c1.1,0.1,2.3-1.4,3.4-2.2c1.3,1.6,2.5,3.3,4.1,4.6c1.4,1.1,3.2,1.7,4.8,2.5
			c-4.8,0.3-9.7,0.6-14.5,0.9C483,72.6,479.5,71.5,476,70.4z"/>
		<path class="st28" d="M486.4,73.6c4.8-0.3,9.7-0.6,14.5-0.9c3.7,1.6,7.5,3.2,11.2,4.8c-4.8,0-9.7,0.1-14.5,0.1
			C493.9,76.3,490.2,75,486.4,73.6z"/>
		<path class="st29" d="M546.4,100.8c-0.3-0.8-0.5-1.6-0.8-2.4c3.2,2.2,6.4,4.3,9.6,6.5c2.7,4.3,5.3,8.6,8,12.9
			c-1.1-0.3-2.1-0.7-3.2-1c-1.5-1.6-3.1-3.3-4.5-5C552.4,108.1,549.4,104.4,546.4,100.8z"/>
		<path class="st30" d="M413.6,319c1,0.4,2.1,0.9,3.3,1.3c-0.6,1-1.2,2.1-1.9,3.1c-0.7,0.9-1.3,2-2.2,2.6c-1.1,0.8-2.4,1.1-3.7,1.7
			c-0.5-1.3-1.5-2.6-1.4-3.8c0.1-1.9,0.6-4,1.5-5.7c0.7-1.3,2.3-2,3.5-3C413,316.6,413.3,317.9,413.6,319z"/>
		<path class="st31" d="M584.8,132.8c0.8,3.4,1.6,6.8,2.5,10.3c-3.2-3.7-6.4-7.4-9.6-11.1c-0.8-3.2-1.6-6.4-2.4-9.5
			c2.2,2.4,4.3,4.9,6.5,7.3C582.7,130.8,583.7,131.8,584.8,132.8z"/>
		<path class="st32" d="M563.2,117.7c-2.7-4.3-5.3-8.6-8-12.9c3.5,3.1,7,6.3,10.5,9.4c1.6,3.3,3.1,6.5,4.7,9.8
			C568,121.9,565.6,119.8,563.2,117.7z"/>
		<path class="st33" d="M570.4,124.1c-1.6-3.3-3.1-6.5-4.7-9.8c3.2,2.7,6.3,5.4,9.5,8.2c0.8,3.2,1.6,6.4,2.4,9.5
			C575.2,129.3,572.8,126.7,570.4,124.1z"/>
		<path class="st34" d="M580.8,375.1c3.3-10.9,7.1-21.6,9.8-32.7c4.7-19.8,5.6-39.9,4-60.2c-1.4-17.9-5.9-34.9-11.4-51.9
			c0.9-2.6,1.8-5.2,2.7-7.8c0.6-1.7,1.5-3.2,3.7-1.8c6.5,14.1,10.5,29,12.4,44.3c1.8,13.8,2.6,27.8,2.6,41.7
			c-0.1,21.3-4.2,42-11.6,62c-2.7,7.3-6,14.4-9,21.6c-0.5-0.9-1.4-1.7-1.6-2.6C581.8,383.5,581.3,379.3,580.8,375.1z"/>
		<path class="st12" d="M545,181.5c0.7,0.8,1.4,1.6,2.2,2.5c1.3,1.9,2.5,3.8,3.8,5.6c0.6,0.8,1.2,1.6,1.8,2.3c1.3,1.9,2.7,3.7,4,5.6
			c1.1,1.6,2.1,3.3,3.2,4.9c0.8,1.6,1.6,3.2,2.4,4.8c0.8,1.4,1.6,2.7,2.4,4.1c1.9,4,3.8,7.9,5.6,11.9c1.5,4.1,3,8.1,4.5,12.2
			c11.5,31.8,13.9,64.4,8.2,97.6c-0.9,5.4-2.8,10.7-4.6,15.9c-0.4,1.1-2.3,1.8-3.4,2.7c-0.5-1.2-1.2-2.4-1.4-3.6
			c-0.2-1.4-0.2-2.9,0-4.4c1.6-11.9,3.4-23.8,4.9-35.7c1.7-13.2,0-26.3-2.3-39.2c-1.7-9.1-4.5-18.1-6.8-27.1
			c-2.1-5.1-4.2-10.1-6.3-15.2c-0.8-1.9-1.7-3.7-2.5-5.6c-0.7-1.6-1.5-3.2-2.2-4.8c-1.3-2.2-2.5-4.3-3.8-6.5c-0.6-1-1.2-2-1.9-3.1
			c-1.3-2.1-2.6-4.3-3.9-6.4c-0.6-0.8-1.2-1.6-1.8-2.3c-0.5-0.8-1.1-1.6-1.6-2.4c-1.5-1.9-3.1-3.9-4.6-5.8c-0.8-1.3-1.6-2.5-2.5-3.8
			c-0.8-1-1.6-2.1-2.4-3.1c-0.5-1.1-1-2.2-1.5-3.3c-0.1-0.8-0.2-1.6-0.2-2.4c2.2-0.3,4.3-0.6,6.5-0.9c0.2,0.1,0.4,0.2,0.6,0.2
			C542.6,177.9,543.8,179.7,545,181.5z"/>
		<path class="st35" d="M530.4,457.5c1-2.4-0.8-2.1-2.2-2.4c-2.5-0.5-5-1.1-7.4-1.6c5.5-4.8,11.1-9.3,16.3-14.4
			c11.7-11.2,21.7-23.8,30-37.7c0.3,2.9,0.4,5.8,0.9,8.6c0.2,1.3,1.5,2.3,2.2,3.5c-1.5,2.6-2.9,5.4-4.7,7.7
			c-9.5,12.5-19.8,24.2-31.9,34.2C532.7,456.2,531.5,456.8,530.4,457.5z"/>
		<path class="st12" d="M562.4,148.7c-0.8-0.8-1.6-1.6-2.4-2.4c-1.6-1.8-3.2-3.7-4.8-5.5c-1.6-1.4-3.1-2.8-4.7-4.2
			c-1.6-1.4-3.2-2.7-4.8-4.1c-1.6-1.3-3.2-2.6-4.8-3.9c-1.9-2.6-3.8-5.2-5.8-7.9c0.1-0.5,0.1-1,0.2-1.5c0.5-0.5,1.1-1.1,1.6-1.6
			c1.2,0,2.5,0,3.7,0.1c3.8,3.1,7.6,6.3,11.4,9.4c1.9,1.6,3.7,3.2,5.6,4.8c1.6,1.4,3.1,2.9,4.7,4.3c1.9,2.1,3.7,4.2,5.6,6.3
			c1.6,1.8,3.3,3.5,4.9,5.3c1.6,1.8,3.2,3.7,4.8,5.5c1.6,2.2,3.1,4.4,4.7,6.6c1.5,2.9,4.9,5.8,0.1,8.8c-1.6-0.7-3.2-1.3-4.7-2
			c-1.4-1.8-2.8-3.5-4.3-5.3c-1.8-2.3-3.6-4.5-5.3-6.8C566.2,152.8,564.3,150.8,562.4,148.7z"/>
		<path class="st36" d="M492,136c1.9,1,3.8,1.9,5.7,2.9c-0.7,6.2,1.3,11.6,5,16.3c1.9,2.5,4.6,4.3,6.9,6.4l0,0
			c1,3.1,6.6,7.1,10.1,7.2c4,0.1,8,0.2,12-0.1c1-0.1,1.8-1.5,2.7-2.3c1.3-0.3,2.8-0.4,3.9-1.1c4.2-2.7,5.1-7.6,7.3-11.6
			c0.8,0.7,1.6,1.5,2.4,2.2c-0.4,2.1,0.7,4.4-1.8,6.3c-1.7,1.3-2,4.3-3,6.5c-4.1-0.1-7.2,1.9-9.9,4.8c-0.5,0.6-1.6,0.8-2.5,0.8
			c-2.9,0.1-5.8,0.1-8.8,0c-0.8,0-1.8,0-2.2-0.5c-3.3-4-8.2-3.7-12.6-5.1c-2.3-5.8-9-8.2-10.8-14.9c-0.9-3.2-3.9-6-3.7-10.1
			c0.1-1.7-1.2-3.5-1.5-5.3C491.1,137.7,491.7,136.8,492,136z"/>
		<path class="st26" d="M434.3,91.3c3.6-5.1,7.3-10.2,10.9-15.4c0.8-1.2,1.4-2.5,2-3.8c4.5,0.8,9.1,1.6,13.6,2.4
			c-0.2,1,0,2.4-0.6,3.1c-2,2.2-4.4,4.1-6.4,6.3c-2.6,2.9-5,6-7.4,9C442.4,92.3,438.4,91.8,434.3,91.3z"/>
		<path class="st37" d="M512,143.2c-0.1-0.2-0.1-0.5,0-0.7c0-1.7,0-3.4,0-5.2c0-4.5,1.2-5.7,5.7-6.2c4.5,3.2,9,6.5,13.4,9.7
			c0,1.2,0,2.4,0,3.6c-0.1,4.8-5.9,8.4-10.2,6.4c-2.1-1-4.1-2-6.2-2.9c0.2-0.1,0.4-0.2,0.5-0.3C514.3,146.1,513.2,144.6,512,143.2z"
			/>
		<path class="st38" d="M570.3,413.5c-0.8-1.1-2-2.2-2.2-3.5c-0.6-2.8-0.6-5.7-0.9-8.6c4.5-8.8,9.1-17.6,13.6-26.4
			c0.5,4.2,1,8.5,1.7,12.7c0.1,0.9,1,1.7,1.6,2.6C579.5,398.1,574.9,405.8,570.3,413.5z"/>
		<path class="st39" d="M597.8,170.3c-2.1,0.1-2.6,0.6-3,3.2c-0.7,4.6,0.8,9.4-2.4,14.1c-2.2,3.3-2,8.3-2.9,12.6
			c-1.9-3.2-3.7-6.4-5.6-9.7c1.1-3.6,2.8-7.1,3.1-10.7c0.5-6.7,0.2-13.6,0.3-20.3c0-0.4,1-0.7,1.6-1.1
			C591.8,162.3,594.8,166.3,597.8,170.3z"/>
		<path class="st40" d="M501,140.7c1.6,1.1,3.2,2.1,4.8,3.2c-0.9,3.1,1.2,5.5,2.9,7.2c3.2,3.1,5.6,6.8,10.1,9.1
			c4.2,2.1,9.3,2.5,11.3,0.8c3.9-3.4,9.7-6.8,8.4-13.8c1.6,1.6,3.2,3.2,4.8,4.8c-0.8,1.1-2.2,2.1-2.3,3.2c-0.7,5-3.7,7.6-8.2,9
			c-0.7,0.2-1,1.5-1.5,2.3c-4.2-0.7-8.7,1.4-12.8-2.1c-2.2-1.8-5.8-1.9-8.7-2.7c0,0,0,0,0,0c-0.8-1.4-1.5-2.9-2.3-4.3
			c-1.9-3.6-3.5-7.4-6-10.7C499.7,144.4,499.7,142.8,501,140.7z"/>
		<path class="st41" d="M589.6,220.7c-2.2-1.3-3.1,0.1-3.7,1.8c-0.9,2.6-1.8,5.2-2.7,7.8c-2.7-5.8-5.4-11.6-8-17.5
			c1.6-3.8,2.5-8,6.3-10.5c1.4,2.8,3,5.5,4.2,8.4C587.1,214,588.3,217.4,589.6,220.7z"/>
		<path class="st42" d="M538.4,147.1c1.3,7-4.4,10.5-8.4,13.8c-2,1.7-7.1,1.3-11.3-0.8c-4.5-2.2-6.9-5.9-10.1-9.1
			c-1.8-1.7-3.8-4.1-2.9-7.2c1.3,0.1,2.6,0.1,3.9,0.2c0.3,1.3,0.1,2.9,0.8,3.7c4.3,5,9.2,9,16.6,8.2c4.3-0.4,9.4-7.3,8.2-11.5
			C536.3,145.4,537.4,146.3,538.4,147.1z"/>
		<path class="st43" d="M446.4,92.8c2.5-3,4.8-6.1,7.4-9c2-2.2,4.4-4.1,6.4-6.3c0.6-0.7,0.5-2,0.6-3.1c3.5,0.8,6.9,1.6,10.4,2.4
			c-0.6,1.1-0.9,2.6-1.8,3.4c-2,1.8-4.4,3.1-6.3,4.9c-2.8,2.9-5.3,6.1-8,9.2C452.3,93.9,449.3,93.4,446.4,92.8z"/>
		<path class="st44" d="M588.9,158.4c-0.6,0.4-1.6,0.7-1.6,1.1c-0.1,6.8,0.3,13.6-0.3,20.3c-0.3,3.6-2,7.1-3.1,10.7
			c-1.3-2.4-2.7-4.7-4-7.1c0.1-1.8-0.6-4.6,0.4-5.4c3.2-2.7,1.7-6,2.1-9.1c4.8-3,1.4-5.9-0.1-8.8c0.3-3.3,0.7-6.5,1-9.8
			C585.2,153,587,155.7,588.9,158.4z"/>
		<path class="st45" d="M535.1,120.8c1.9,2.6,3.8,5.2,5.8,7.9c0.2,0.7,0.1,1.8,0.5,2.2c2.8,2.6,2.3,5.4,1,8.4c-1-0.8-2-1.7-3-2.5
			c0.1-0.8,0.5-1.9,0.1-2.3c-4.6-4.7-6.1-12-14-14.5c-3.8-1.2-6.8-1.8-10.4-0.7c-1.8-1.1-3.7-2.2-5.5-3.3c-0.2-2.4,1.4-2.2,3.1-2.5
			C521.4,112.2,528.3,116.5,535.1,120.8z"/>
		<path class="st46" d="M581.5,202.4c-3.8,2.4-4.7,6.7-6.3,10.5c-1.8-1.4-3.6-2.9-5.4-4.3c-0.4,0.2-0.9,0.5-1.3,0.7
			c0.9,4.1,1.8,8.2,2.6,12.3c-0.3,0.5-0.5,1.1-0.8,1.6c-1.9-4-3.8-7.9-5.6-11.9c2-3.5,3.7-7.2,6-10.5c1.7-2.4,4.1-4.3,6.1-6.4
			C578.4,197,579.9,199.7,581.5,202.4z"/>
		<path class="st47" d="M535.3,144.5c1.2,4.2-3.9,11-8.2,11.5c-7.4,0.8-12.2-3.2-16.6-8.2c-0.7-0.8-0.6-2.4-0.8-3.7
			c0.8-0.3,1.6-0.6,2.4-0.9c1.1,1.5,2.3,2.9,3.4,4.4c-0.2,0.1-0.4,0.2-0.5,0.3c2.1,1,4.1,2,6.2,2.9c4.3,2,10.1-1.6,10.2-6.4
			c0-1.2,0-2.4,0-3.6C532.6,142.1,533.9,143.3,535.3,144.5z"/>
		<path class="st48" d="M455.2,94.4c2.6-3.1,5.1-6.3,8-9.2c1.9-1.9,4.3-3.1,6.3-4.9c0.9-0.8,1.2-2.2,1.8-3.4c2.7,0.8,5.3,1.6,8,2.4
			c-3.2,2.6-6.3,5.2-10.3,8.4c-0.4,3.3-4,6.5-9.9,7.6C457.8,95,456.5,94.7,455.2,94.4z"/>
		<path class="st49" d="M515.2,119.3c3.6-1.1,6.6-0.5,10.4,0.7c7.9,2.4,9.3,9.7,14,14.5c0.4,0.4-0.1,1.5-0.1,2.3
			C531.3,130.9,523.2,125.1,515.2,119.3z"/>
		<path class="st50" d="M501.7,112c-1.9-1.1-3.7-2.1-5.6-3.2c1.3-0.5,2.6-1,3.8-1.7c3.2-1.9,6.1-4.3,10.1-4c2.8,0.2,5.6,0,8.3,0.1
			c0.8,0,2.2,0,2.3,0.2c1,3.5,3.8,1.7,5.8,2.2c1.1,0.8,2.1,1.6,3.2,2.4c0.3,0.8,0.5,1.6,0.8,2.4c-1.3,0-2.7,0-4,0
			c-0.3,0-0.5,0-0.8,0c-1.4-0.8-2.7-2-4.2-2.3c-4.8-1-9.6-3.4-14.4-0.1c-0.1,0.1-0.3,0-0.4,0C503.4,107.4,501.9,109,501.7,112z"/>
		<path class="st51" d="M485.6,82.5c1.6,0.5,3.2,1.1,4.8,1.6c-2,1.3-3.9,3-6.1,3.7c-6.2,1.8-9.4,6.9-13.1,11.4
			c-1.9-0.5-3.8-1-5.7-1.5C471.3,91.3,476.7,84.6,485.6,82.5z"/>
		<path class="st52" d="M510.8,92.7c1.6,0.8,3.2,1.6,4.8,2.4c-4.1,0-8.2,0.2-12.4,0.1c-2.5-0.1-3.4,0.9-3.1,3.2
			c-2.4,1.6-4.8,3.2-7.2,4.8c-0.3,0.3-0.6,0.5-0.8,0.8c-1.1-0.2-2.7-1-3.2-0.5c-2.1,1.9-3.8,0.9-5.6-0.3c0.8-0.4,1.8-0.5,2.3-1.1
			c2.1-2.2,3.6-5.4,6-6.6c3.6-1.7,7.9-2.1,12-2.7C505.9,92.5,508.4,92.7,510.8,92.7z"/>
		<path class="st53" d="M440,110.5c0.8-1,2-1.8,2.5-3c0.8-1.8,1.1-3.9,1.7-5.8c3.2,0.5,6.4,1.1,9.6,1.6c0.1,1.7,0.4,3.5,0.1,5.1
			c-0.3,1.7-1.1,3.3-1.7,5C448.1,112.5,444,111.5,440,110.5z"/>
		<path class="st54" d="M497.7,86.6c2.4,1,4.8,2.1,7.1,3.1c-1,0.2-2,0.5-3,0.6c-3.4,0.5-6.6,0.1-10.3,1.9c-5,2.4-7.1,6.8-10.7,10.1
			c-1.6-0.5-3.2-1-4.8-1.5c1.3-1.9,2.1-4.4,3.8-5.7c4.7-3.4,9.6-6.8,15.7-7.3C496.3,87.8,497,87.1,497.7,86.6z"/>
		<path class="st55" d="M497.7,86.6c-0.7,0.5-1.3,1.3-2.1,1.3c-6.1,0.5-11,3.9-15.7,7.3c-1.7,1.3-2.6,3.7-3.8,5.7
			c-1.6-0.6-3.2-1.1-4.8-1.7c3.7-4.5,6.9-9.6,13.1-11.4c2.2-0.7,4.1-2.4,6.1-3.7C492.9,84.9,495.3,85.8,497.7,86.6z"/>
		<path class="st56" d="M492.1,104c0.3-0.3,0.6-0.5,0.8-0.8c2.9-0.1,6.5,0.8,8.6-0.5c2.1-1.4,3.8-1.9,6-1.9c6.4,0,13-0.9,19,2.4
			c0,0.8,0,1.6,0,2.4c-2-0.4-4.8,1.3-5.8-2.2c-0.1-0.3-1.5-0.2-2.3-0.2c-2.8,0-5.6,0.2-8.3-0.1c-4.1-0.3-7,2.1-10.1,4
			c-1.2,0.7-2.5,1.1-3.8,1.7C494.4,107.5,490.8,107.8,492.1,104z"/>
		<path class="st55" d="M556.7,197.6c-1.3-1.9-2.7-3.7-4-5.6c0.5-0.1,1.3,0.1,1.5-0.2c3.9-4.7,9-8.4,11.4-14.3c1,1.4,2,2.8,3.1,4.1
			c-0.4,1.4-0.5,3.2-1.4,4.3C564,189.9,560.3,193.7,556.7,197.6z"/>
		<path class="st57" d="M485.6,82.5c-8.9,2.1-14.4,8.8-20.1,15.2c-2.2-0.8-4.3-1.6-6.5-2.4c5.9-1.1,9.5-4.3,9.9-7.6
			c4-3.2,7.1-5.8,10.3-8.4C481.4,80.3,483.5,81.4,485.6,82.5z"/>
		<path class="st58" d="M525.6,110.4c0.3,0,0.5,0,0.8,0c1.3,1.7,2.5,3.5,4,5c1.5,1.5,3.2,2.6,4.9,3.9c-0.1,0.5-0.1,1-0.2,1.5
			c-6.8-4.3-13.7-8.6-22.4-7.3c-1.7,0.3-3.3,0.1-3.1,2.5c-1.6-0.8-3.2-1.6-4.8-2.5c-0.3-2.4,0.6-3.3,3.1-3.2
			C513.8,110.5,519.7,110.4,525.6,110.4z"/>
		<path class="st51" d="M556.7,197.6c3.6-3.9,7.2-7.6,10.6-11.7c0.9-1.1,0.9-2.8,1.4-4.3c1.1,1.6,2.3,3.1,3.4,4.7
			c-0.5,0.3-1.4,0.6-1.5,1c-0.9,3.9-3.1,6.8-5.9,9.5c-1.8,1.7-3.2,3.8-4.7,5.7C558.9,200.8,557.8,199.2,556.7,197.6z"/>
		<path class="st59" d="M550.9,189.6c-1.3-1.9-2.5-3.8-3.8-5.6c4.1,0.3,5.1-3.8,7.7-5.6c1.5-1,1.8-3.7,2.8-5.4
			c0.7-1.1,1.7-2,3.1-3.6c1,2.1,1.7,3.6,2.4,5c-1,1.2-2.7,2.3-3,3.7C558.9,183.5,553.9,185.7,550.9,189.6z"/>
		<path class="st60" d="M480.9,102.4c3.6-3.3,5.7-7.7,10.7-10.1c3.7-1.8,6.9-1.4,10.3-1.9c1-0.2,2-0.4,3-0.6c2,1,4,2,6,3
			c-2.4,0-4.8-0.2-7.2,0.1c-4.1,0.6-8.4,1-12,2.7c-2.5,1.1-4,4.4-6,6.6c-0.5,0.6-1.5,0.7-2.3,1.1
			C482.5,102.9,481.7,102.6,480.9,102.4z"/>
		<path class="st61" d="M517.8,131.1c-4.6,0.4-5.7,1.7-5.7,6.2c0,1.7,0,3.4,0,5.2c-0.8-4.1-4-6.2-7.2-8.2c0-1.4,0.2-2.9,0-4.3
			c-0.5-3.2,0.8-4.9,4-5.1C511.8,126.9,514.8,129,517.8,131.1z"/>
		<path class="st62" d="M545,181.5c-1.2-1.8-2.3-3.6-3.5-5.5c1.4-0.6,2.8-1.1,4.2-1.7c0.8-0.5,1.9-0.7,2.3-1.4
			c2.2-3.2,4.3-6.5,6.4-9.7c3.1,2.9,2.6,5.5-0.5,8.1c-0.5,0.4-1.1,1.3-1,1.9c0.2,4.4-4.1,5.5-6,8.3
			C546.6,181.7,545.6,181.5,545,181.5z"/>
		<path class="st63" d="M576.8,194.3c-2.1,2.1-4.5,4-6.1,6.4c-2.3,3.3-4,7-6,10.5c-0.8-1.4-1.6-2.7-2.4-4.1c1.6-2.5,3.1-4.9,4.7-7.4
			c2.2-3.5,4.5-6.9,6.7-10.4C574.8,191.1,575.8,192.7,576.8,194.3z"/>
		<path class="st64" d="M573.7,189.4c-2.2,3.5-4.5,6.9-6.7,10.4c-1.6,2.4-3.1,4.9-4.7,7.4c-0.8-1.6-1.6-3.2-2.4-4.8
			c1.6-1.9,3-4,4.7-5.7c2.8-2.7,5.1-5.6,5.9-9.5c0.1-0.4,1-0.7,1.5-1C572.7,187.3,573.2,188.4,573.7,189.4z"/>
		<path class="st65" d="M550.9,189.6c3-3.9,8-6.2,9.3-11.6c0.3-1.4,2-2.5,3-3.7c0.8,1.1,1.6,2.1,2.4,3.2c-2.4,5.8-7.5,9.6-11.4,14.3
			c-0.2,0.3-1,0.1-1.5,0.2C552.1,191.2,551.5,190.4,550.9,189.6z"/>
		<path class="st66" d="M452.1,113.4c0.6-1.7,1.4-3.3,1.7-5c0.3-1.7-0.1-3.4-0.1-5.1c2.4,0.5,4.8,1,7.2,1.5c0.1,1.7,0.4,3.5,0.1,5.2
			c-0.3,1.7-1.1,3.4-1.7,5C456.9,114.5,454.5,114,452.1,113.4z"/>
		<path class="st67" d="M525.6,110.4c-5.9,0-11.8,0.1-17.7,0c-2.4-0.1-3.4,0.8-3.1,3.2c-1.1-0.5-2.1-1-3.2-1.6c0.3-3,1.7-4.6,4.9-4
			c0.1,0,0.3,0.1,0.4,0c4.8-3.3,9.7-0.9,14.4,0.1C522.9,108.4,524.2,109.6,525.6,110.4z"/>
		<path class="st68" d="M508.8,124.8c-3.2,0.3-4.5,1.9-4,5.1c0.2,1.4,0,2.8,0,4.3c-2.4-1.3-4.8-2.6-7.2-4c1-3.1,2.1-6.3,3.1-9.4
			C503.5,122.1,506.1,123.5,508.8,124.8z"/>
		<path class="st69" d="M459.3,115.1c0.6-1.7,1.4-3.3,1.7-5c0.3-1.7-0.1-3.4-0.1-5.2c2.7,0.8,5.3,1.6,8,2.3
			c-0.8,3.2-1.6,6.5-2.4,9.7C464.1,116.3,461.7,115.7,459.3,115.1z"/>
		<path class="st70" d="M562.4,148.7c1.9,2,3.8,4,5.7,6.1c0,3.9-0.1,7.7-0.1,11.6c-4.4-3.2-6.3-7.4-5.6-12.9
			C562.6,151.9,562.4,150.3,562.4,148.7z"/>
		<path class="st71" d="M568,166.4c0-3.9,0.1-7.7,0.1-11.6c1.8,2.3,3.6,4.5,5.3,6.8c-0.2,4-0.4,8-0.6,12
			C571.2,171.2,569.6,168.8,568,166.4z"/>
		<path class="st72" d="M531.2,166.4c0.5-0.8,0.8-2.1,1.5-2.3c4.5-1.4,7.5-4,8.2-9c0.2-1.2,1.5-2.2,2.3-3.2c0.8,0.6,1.6,1.2,2.3,1.8
			c-2.2,4-3.1,8.9-7.3,11.6c-1.1,0.7-2.6,0.7-3.9,1.1C533.4,166.4,532.3,166.4,531.2,166.4z"/>
		<path class="st73" d="M572.8,173.6c0.2-4,0.4-8,0.6-12c1.4,1.8,2.8,3.5,4.3,5.3c-0.8,3.6,1.5,7.6-1.8,10.8
			C574.9,176.3,573.8,174.9,572.8,173.6z"/>
		<path class="st74" d="M492.9,127.8c-1.6-1-3.2-2.1-4.8-3.1c-0.7-3.6,0.7-6.4,3.2-8.8c1.6,0.8,3.2,1.6,4.8,2.3
			C495,121.5,494,124.7,492.9,127.8z"/>
		<path class="st75" d="M575.9,177.7c3.3-3.2,1-7.2,1.8-10.8c1.6,0.7,3.2,1.3,4.7,2c-0.4,3.1,1.1,6.4-2.1,9.1
			c-1,0.8-0.3,3.5-0.4,5.4C578.6,181.5,577.2,179.6,575.9,177.7z"/>
		<path class="st76" d="M476.1,120c-1.6-0.5-3.2-1.1-4.8-1.6c-0.5-3.5,0.3-6.7,2.4-9.6c1.6,0.5,3.2,1,4.8,1.6
			C477.7,113.6,476.9,116.8,476.1,120z"/>
		<path class="st77" d="M492.9,127.8c1.1-3.2,2.1-6.3,3.2-9.5c1.6,0.8,3.1,1.7,4.7,2.5c-1,3.1-2.1,6.3-3.1,9.4
			C496.1,129.4,494.5,128.6,492.9,127.8z"/>
		<path class="st78" d="M550.5,136.6c1.6,1.4,3.1,2.8,4.7,4.2c-0.3,3.4-0.5,6.9-0.8,10.3c-1.6-1.6-3.2-3.2-4.8-4.7
			C549.9,143.1,550.2,139.9,550.5,136.6z"/>
		<path class="st79" d="M554.4,151.2c0.3-3.4,0.5-6.9,0.8-10.3c1.6,1.8,3.2,3.7,4.8,5.5c0,2.9,0,5.8,0,9.9
			C557.7,154.2,556.1,152.7,554.4,151.2z"/>
		<path class="st80" d="M491.3,116c-2.5,2.4-3.9,5.2-3.2,8.8c-1.6-0.6-3.2-1.2-4.8-1.9c0-1.4-0.1-2.9,0-4.3
			C483.6,114.3,486.3,113.4,491.3,116z"/>
		<path class="st81" d="M473.7,108.8c-2,2.9-2.9,6-2.4,9.6c-1.6-0.5-3.2-1-4.8-1.4c0.8-3.2,1.6-6.5,2.4-9.7
			C470.5,107.7,472.1,108.3,473.7,108.8z"/>
		<path class="st82" d="M554.4,163.2c-2.1,3.3-4.2,6.6-6.4,9.7c-0.5,0.7-1.5,1-2.3,1.4c0-1.9,0-3.7,0-5.6c5.3-1.4,4.9-5.6,4.8-9.7
			C551.8,160.5,553.1,161.8,554.4,163.2z"/>
		<path class="st83" d="M550.5,159.1c0.1,4.1,0.5,8.3-4.8,9.7c-0.8,0-1.6,0-2.4,0l0,0c0.9-2.2,1.3-5.2,3-6.5c2.5-2,1.5-4.2,1.8-6.3
			C548.8,157,549.7,158,550.5,159.1z"/>
		<path class="st84" d="M542.4,139.2c1.3-3,1.8-5.8-1-8.4c-0.5-0.4-0.4-1.4-0.5-2.2c1.6,1.3,3.2,2.6,4.8,3.9
			c0.5,1.9,1.2,3.8,1.4,5.8c0.2,1.9,0,3.8,0,5.7C545.6,142.4,544,140.8,542.4,139.2z"/>
		<path class="st85" d="M476.1,120c0.8-3.2,1.6-6.4,2.4-9.6c1.5,0.7,2.9,1.4,4.1,1.9c-1.5,3.2-2.9,5.9-4.2,8.6
			C477.6,120.6,476.9,120.3,476.1,120z"/>
		<path class="st86" d="M547.1,144c0-1.9,0.2-3.8,0-5.7c-0.3-2-0.9-3.9-1.4-5.8c1.6,1.4,3.2,2.7,4.8,4.1c-0.3,3.3-0.6,6.5-0.9,9.8
			C548.8,145.6,548,144.8,547.1,144z"/>
		<path class="st87" d="M560.6,220.7c0.8,1.9,1.7,3.7,2.5,5.6c-0.7,1-1.3,2.3-2.3,3.1c-3.2,2.5-2.4,8-7,9.6
			c-0.4,0.1-0.2,1.7-0.3,2.7c0,2.1,0.2,4.3-0.1,6.4c-0.2,1.1-1.3,2.9-1.9,2.9c-4.4-0.1-4.4,2.7-4.4,5.9c0,26,0,52,0,78
			c0,24.4,0,48.8,0,73.2c0,1.8-0.8,4.2,2.2,4.7c-1.8,2.4-3.6,4.8-5.5,7.1c-1.1-0.2-2.2-0.7-3.4-0.7c-7.5-0.1-14.9,0-22.4,0
			c-6.2,0-6.2,0-6.2-6.2c0-51.5,0-103.1,0-154.6c0-0.9,0-1.9,0-2.8c0.1-2.8-0.8-4.7-4.1-4.4c-2.8,0.3-3.8-1.2-3.9-3.8
			c0-1.1,0-2.1,0-3.2c0-6.3,0-6.3-5.4-8.2c-0.4-2.8,0.7-6.5-4.2-6.6c-0.2,0-0.5-0.6-0.7-0.9c-2.1-2.5-4.2-5-6.4-7.4
			c-0.4-0.4-1.5-0.2-2.3-0.3c1.3-1.9,2.5-3.7,3.8-5.6c1.6,0.8,3.4,1.3,4.7,2.5c4.1,3.7,7.9,7.8,11.8,11.6c0.5,0.4,1.7,0,2.3,0.4
			c1.3,0.8,3.3,1.8,3.4,2.8c0.3,3.7,2.6,4.3,5.5,4.3c8.3,0,16.6-0.1,25,0c2.7,0,4.3-0.6,4.3-3.7c0-1.1,1-3.1,1.7-3.2
			c4.8-0.7,5.9-5.7,9.5-7.6C558.1,221.7,559.4,221.3,560.6,220.7z"/>
		<path class="st88" d="M549.5,412.7c-3-0.5-2.2-2.9-2.2-4.7c0-24.4,0-48.8,0-73.2c0-26,0-52,0-78c0-3.1,0-6,4.4-5.9
			c0.6,0,1.7-1.8,1.9-2.9c0.3-2.1,0.1-4.3,0.1-6.4c0-0.9-0.1-2.5,0.3-2.7c4.6-1.6,3.8-7,7-9.6c1-0.8,1.5-2,2.3-3.1
			c2.1,5.1,4.2,10.1,6.3,15.2c-0.7,1.8-1.5,3.6-2.2,5.5c-0.4,1.2-0.8,2.4-1.2,3.5c-0.9,2.4-2.6,4.7-2.7,7
			c-0.3,14.2-0.1,28.5-0.1,42.7c0,26.8-0.1,53.5,0.1,80.3c0,2.5,1.5,4.9,2.3,7.4c-4.9,7.6-9.9,15.2-14.8,22.8
			C550.3,411.4,549.9,412.1,549.5,412.7z"/>
		<path class="st89" d="M485,220.8c0.8,0.1,1.9-0.1,2.3,0.3c2.2,2.4,4.3,4.9,6.4,7.4c0.2,0.3,0.5,0.9,0.7,0.9
			c4.8,0.1,3.7,3.9,4.2,6.6c5.4,1.9,5.4,1.9,5.4,8.2c0,1.1,0,2.1,0,3.2c0,2.5,1.1,4.1,3.9,3.8c3.3-0.4,4.2,1.5,4.1,4.4
			c0,0.9,0,1.9,0,2.8c0,51.5,0,103.1,0,154.6c0,6.2,0,6.2,6.2,6.2c7.5,0,14.9,0,22.4,0c1.1,0,2.2,0.5,3.4,0.7
			c-6.6,6.7-13.3,13.5-19.9,20.2c-1.6-1.3-4.5-2.6-4.6-4c-0.2-4.7-2.8-5-6.4-5c-5.7,0.1-5.8-0.1-5.9-5.8c0-1.1,0.3-2.3-0.1-3.1
			c-0.7-1.2-1.9-2.8-3-2.9c-3.1-0.2-3.3-1.9-3.3-4.3c0-37.1,0-74.1,0.1-111.2c3.8-0.1,4.3-1.2,2.3-4.5c-2.6-4.4-5.2-8.8-7.9-13.2
			c3.6,2,6.6,4.5,9.8,6.6c1.1,0.7,2.9,0.4,4.4,0.5c-0.1-1.4,0.3-3.1-0.3-4.3c-2.1-4.4-4.4-8.6-6.7-12.9c0.5-0.5,1.4-1,1.4-1.6
			c0.1-6.9,0.1-13.9,0-20.8c0-0.8-1.4-2.3-2.1-2.3c-4.3,0.3-4.2-2.4-4.3-5.4c-0.1-2.7,0.2-6.8-1.3-7.9c-3.9-2.6-2.9-8-7.2-10.4
			c-1.8-1-3.3-3.7-5.9-4.5C483.8,222.3,484.4,221.5,485,220.8z"/>
		<path class="st10" d="M565.6,387.9c-0.8-2.5-2.3-4.9-2.3-7.4c-0.2-26.8-0.1-53.5-0.1-80.3c0-14.2-0.1-28.5,0.1-42.7
			c0-2.4,1.8-4.7,2.7-7c0.4-1.2,0.8-2.4,1.2-3.5c0.7-1.8,1.5-3.6,2.2-5.5c2.3,9,5.1,17.9,6.8,27.1c2.3,12.9,4,26,2.3,39.2
			c-1.5,11.9-3.3,23.8-4.9,35.7c-0.2,1.4-0.3,3,0,4.4c0.2,1.3,0.9,2.4,1.4,3.6c1.2-0.9,3.1-1.5,3.4-2.7c1.8-5.2,3.6-10.5,4.6-15.9
			c5.7-33.2,3.3-65.8-8.2-97.6c-1.5-4.1-3-8.1-4.5-12.2c0.3-0.5,0.5-1.1,0.8-1.6c6.5,12.8,10.4,26.4,13.2,40.4
			c5,25.6,4.8,51.2-0.5,76.7c-2.8,13.3-7,26-12.6,38.4C569.5,380.8,567.5,384.3,565.6,387.9z"/>
		<path class="st90" d="M465.7,308.7c1.2-0.4,2.4-0.9,4-1.5c0-4.5,0-9.1,0-13.7c4.7,8.9,7.9,18.9,16,25.8c0,30.9,0,61.8,0,92.8
			c0,3.1-0.8,6.5,3,8.3c0.6,0.3,0.9,1.6,0.9,2.5c-0.2,3.8-0.3,7.5,3.9,9.5c0.5,0.2,0.9,1.2,0.8,1.7c-0.4,3.5,1.9,4.8,4.5,6.2
			c2.5,1.3,4.9,3,7.2,4.8c1.9,1.5,3.5,3.4,5.2,5.2c-2.6,1.7-5.3,3.5-7.9,5.2c-0.7-0.8-1.3-2.1-2.1-2.3c-7.1-1.2-10.3-7.2-14.7-11.8
			c-1.8-1.9-3.7-3.8-4.8-6c-2.2-4.2-4.2-8.6-3.5-13.7c0.1-0.6-1-1.2-1.3-1.9c-0.9-2.2-2.4-4.5-2.4-6.7c-0.2-26.7-0.1-53.3-0.2-80
			c0-1.7-0.9-3.4-1.4-5c0.2-3.7,0.7-7.4,0.6-11C473.5,312.2,469.7,308.5,465.7,308.7z"/>
		<path class="st39" d="M511.2,450.2c-1.7-1.7-3.3-3.7-5.2-5.2c-2.2-1.8-4.6-3.4-7.2-4.8c-2.6-1.4-4.9-2.7-4.5-6.2
			c0.1-0.5-0.4-1.5-0.8-1.7c-4.3-2-4.1-5.7-3.9-9.5c0-0.8-0.3-2.2-0.9-2.5c-3.8-1.8-3-5.2-3-8.3c0-30.9,0-61.8,0-92.8
			c4.9,1.4,6.4,0.3,6.4-4.6c0-1-0.1-2.1-0.4-3.1c-2.3-8.1-4.7-16.2-7-24.4c0.8-1.6,1.7-3.2,2.5-4.9c2.9,4.9,5.9,9.7,8.8,14.6
			c-0.3,1.7-0.8,3.3-0.8,5c-0.1,19.8,0,39.7,0,59.5c0,17.7,0,35.4,0.1,53.1c0,1.4,0.7,4.1,1.2,4.1c5,0.5,4.3,4,4.3,7.3
			c0,2.9,0.7,5.2,4.4,5.3c0.9,0,2.5,1.9,2.6,3c0.3,3.5,2,4.9,5.4,4.9c4.8,0.1,5.6,1.2,4.4,5.8C515.6,446.7,513.4,448.4,511.2,450.2z
			"/>
		<path class="st91" d="M473,327.9c0.5,1.7,1.4,3.4,1.4,5c0.1,26.7,0,53.3,0.2,80c0,2.2,1.5,4.5,2.4,6.7c0.3,0.7,1.3,1.4,1.3,1.9
			c-0.7,5.1,1.3,9.5,3.5,13.7c1.2,2.2,3.1,4.1,4.8,6c4.3,4.6,7.5,10.6,14.7,11.8c0.8,0.1,1.4,1.5,2.1,2.3c-3.2,1.7-6.5,3.5-9.7,5.2
			c-3.3-3-6.7-5.8-9.9-8.9c-2.5-2.4-5.2-4.9-7.2-7.7c-2.8-3.9-5-8.2-7.4-12.5c-0.6-1.1-1.1-2.5-1-3.8c0.1-3.8-0.1-7.3-3.3-10.2
			c-0.8-0.7-0.7-2.7-0.7-4.1c0-23.7-0.1-47.3,0.1-71c0-2.7-0.7-4.2-3.3-4.7c4.7,0.6,7.9-1.6,10.1-5.5
			C471.8,330.8,472.3,329.4,473,327.9z"/>
		<path class="st92" d="M517.7,445c1.2-4.6,0.4-5.7-4.4-5.8c-3.4-0.1-5.1-1.4-5.4-4.9c-0.1-1.1-1.7-2.9-2.6-3
			c-3.7-0.1-4.4-2.4-4.4-5.3c0-3.3,0.7-6.8-4.3-7.3c-0.6-0.1-1.2-2.7-1.2-4.1c-0.1-17.7-0.1-35.4-0.1-53.1c0-19.8,0-39.7,0-59.5
			c0-1.7,0.5-3.3,0.8-5c1.6,2.3,3.2,4.6,4.8,6.9c0,37.1,0,74.1-0.1,111.2c0,2.4,0.3,4.1,3.3,4.3c1.1,0.1,2.3,1.7,3,2.9
			c0.5,0.8,0.1,2.1,0.1,3.1c0,5.7,0.2,5.9,5.9,5.8c3.6-0.1,6.2,0.3,6.4,5c0.1,1.4,3,2.7,4.6,4C522,441.7,519.9,443.3,517.7,445z"/>
		<path class="st93" d="M445,250.7c-7.2,7-14.6,13.9-21.6,21.1c-9.2,9.5-18.1,19.3-27.2,28.9c-0.9,1-1.7,2-2.4,2.7
			c-10-21.4-19.9-42.7-30.2-64.8c8.5-4.8,17.3-10.1,26.4-14.8c11.8-6,23.8-11.5,35.7-17.1c1.2-0.6,2.5-0.8,3.8-1.2
			c0.8,0.8,1.9,1.5,2.5,2.5c3.2,6,6.6,11.9,9.3,18.1c2.4,5.5,5.4,11.1,5.1,17.4C446.3,245.9,445.5,248.3,445,250.7z"/>
		<path class="st94" d="M445,250.7c0.5-2.4,1.3-4.8,1.4-7.2c0.4-6.4-2.6-11.9-5.1-17.4c-2.7-6.2-6.1-12.1-9.3-18.1
			c-0.5-1-1.6-1.7-2.5-2.5c6.6-2.7,13.3-5.4,19.9-8c0.7,0.9,1.6,1.8,2.2,2.8c5.5,8.8,11,17.6,16.5,26.4
			C460.5,234.6,452.8,242.7,445,250.7z"/>
		<path class="st20" d="M487.2,282.3c-0.8,1.6-1.7,3.2-2.5,4.9c-2.1-4.5-4.2-9-6.3-13.6c-0.3-5.5-0.5-11.1-0.8-16.6
			c-0.1-1.4,0.2-3.3-0.6-4.2c-3-3.4-2.4-7.3-2.7-11.3c-0.1-2.2-1-4.3-1.5-6.4c2.1-2.4,4.1-4.9,6.2-7.3c2.6,1.5,4.9,3.1,5.2,6.5
			c0,0.6,1.5,1.1,2.4,1.7c-0.9,7.8,0.6,15.4,3.4,22.6c3.4,8.7,7.4,17.2,11.1,25.6c-4.7-3.2-9.5-6.5-14.2-9.7c-0.4,0.3-0.9,0.7-1.3,1
			C486.1,277.8,486.7,280.1,487.2,282.3z"/>
		<path class="st95" d="M560.6,220.7c-1.3,0.5-2.6,0.9-3.8,1.5c-3.6,1.9-4.7,6.9-9.5,7.6c-0.7,0.1-1.7,2.1-1.7,3.2
			c0,3.2-1.5,3.8-4.3,3.7c-8.3-0.1-16.6,0-25,0c-2.9,0-5.2-0.6-5.5-4.3c-0.1-1.1-2.1-2-3.4-2.8c-0.6-0.4-1.8,0.1-2.3-0.4
			c-4-3.8-7.8-7.8-11.8-11.6c-1.3-1.2-3.1-1.7-4.7-2.5c1.1-1.6,2.1-3.2,3.2-4.8c1.9,0.8,3.7,1.6,5.6,2.4c-0.9,4,2.9,2.7,4.7,3.9
			c-0.7,5.9,4.3,3.4,6.6,5.1c1.2,1.4,2.7,2.9,4.2,2.9c3.6,0.1,6.9-0.2,6.5,4.7c6.1,0,11.8,0,17.5,0c0.4-1.6,0.7-3,1.1-4.6
			c2.9,0,5.7,0,8.5,0c0.4-1.4,0.6-2.5,0.9-3.6c1.7-0.2,3.2-0.4,4.8-0.7c0.2-1.5,0.4-2.7,0.7-4.5c1.9,0,3.5,0,5.2,0
			C559.2,217.5,559.9,219.1,560.6,220.7z"/>
		<path class="st39" d="M447.3,189.5c-1.6-3.5-2.9-7-4.7-10.4c-5.5-10.2-8.9-21.2-10.3-32.6c-1.1-8.9-0.6-17.9-0.8-26.9
			c0-0.6-0.1-1.3-0.2-1.9c3,0.4,5.9,0.8,8.9,1.3c-0.6,3.5-1.6,6.9-1.6,10.4c0,4.2,1.6,8.4,1.3,12.5c-0.6,8.8,3.5,16.6,5.4,24.8
			c1.2,5.2,4.8,9.8,7.2,14.7c0.8,1.6,1.3,3.4,1.9,5.1C452.1,187.4,449.7,188.5,447.3,189.5z"/>
		<path class="st96" d="M472.9,235.2c0.5,2.1,1.4,4.3,1.5,6.4c0.2,3.9-0.4,7.9,2.7,11.3c0.8,0.9,0.5,2.8,0.6,4.2
			c0.3,5.5,0.5,11.1,0.8,16.6c-1,0-2,0-2.9,0.1c0.1,1.2,0.1,2.6,0.5,3.7c3.6,10,7.3,20,10.8,30.1c0.8,2.3,0.9,4.9,1.3,7.4
			c-0.3,0.1-0.7,0.3-1,0.4c-1.3-1.6-2.9-3-3.9-4.8c-4.1-7.9-8-15.9-12-23.9c0-9.9,0-19.8,0.1-29.8c0-0.7,0.2-1.4-0.1-2
			c-1.8-4.2-3.7-8.4-5.6-12.5C468,239.9,470.5,237.5,472.9,235.2z"/>
		<path class="st97" d="M552.7,206.3c0.6,1,1.2,2,1.9,3.1c-3.4,4.4-8,6.3-13.4,7c-0.3,1.4-0.6,2.8-0.9,4.1c-8.1,0-15.9,0-23.8,0
			c-0.4-1.6-0.7-3-1-4.3c-2.2-0.2-5.4,0.2-5.9-0.8c-1.8-3.4-4.5-2.6-7.2-2.7c0.1-1.9-0.1-3.3-2.6-3.3c-0.8,0-1.5-1.3-2.3-1.9
			c-0.8-0.5-1.7-0.9-2.6-1.3c0.6-1.3,1.2-2.6,1.8-3.9c3.3,1.4,6.6,2.7,9.9,4c0.7,0.3,2.1,0.1,2.2,0.4c0.9,3.4,3.6,2.7,6,2.9
			c0.6,0,1.2,0.8,1.8,1.1c1.1,0.7,2.1,1.8,3.2,1.9c5.4,0.2,10.9,0.1,16.3,0c0.9,0,2.5-0.5,2.6-1c0.6-2.8,2.7-1.9,4.4-2.2
			c1.5-0.2,4.1-0.3,4.3-0.9C548.5,205.4,550.9,206.6,552.7,206.3z"/>
		<path class="st98" d="M486.7,236c-0.8-0.6-2.3-1.1-2.4-1.7c-0.3-3.5-2.7-5-5.2-6.5c1.4-1.6,2.7-3.2,4.1-4.7c2.6,0.8,4,3.5,5.9,4.5
			c4.4,2.4,3.4,7.8,7.2,10.4c1.5,1,1.2,5.1,1.3,7.9c0.1,3.1,0,5.7,4.3,5.4c0.7,0,2.1,1.5,2.1,2.3c0.2,6.9,0.1,13.9,0,20.8
			c0,0.5-0.9,1-1.4,1.6c-2.1-4.3-4.4-8.5-6.4-12.8c-3.5-7.5-5.6-15.4-6.1-23.7C490,237.6,489.9,235.1,486.7,236z"/>
		<path class="st99" d="M454.5,186.3c-0.6-1.7-1.1-3.4-1.9-5.1c-2.4-4.9-6-9.5-7.2-14.7c-1.9-8.2-6-15.9-5.4-24.8
			c0.3-4.1-1.3-8.3-1.3-12.5c0-3.5,1-6.9,1.6-10.4c1.3,0.1,2.6,0.3,3.9,0.4c0.3,2.9,0.6,5.8,0.7,8.6c0.4,7.7-1.2,15.6,2.2,23.1
			c1.2,2.5,1.7,5.4,2.6,8.1c1,3.3,1.8,6.6,3.1,9.8c2.2,5.3,4.8,10.5,7.2,15.7C458.2,185.2,456.4,185.7,454.5,186.3z"/>
		<path class="st26" d="M468.2,226.6c-5.5-8.8-10.9-17.6-16.5-26.4c-0.6-1-1.5-1.8-2.2-2.8c3.2-1.1,6.4-2.1,9.6-3.2
			c0.8,0.4,1.8,0.7,2.3,1.4c3.3,4.2,6.6,8.4,9.8,12.6c1.9,2.5,3.8,5.2,5.7,7.8C474,219.6,471.1,223.1,468.2,226.6z"/>
		<path class="st100" d="M460.1,184.6c-2.4-5.2-5-10.4-7.2-15.7c-1.3-3.1-2.1-6.5-3.1-9.8c-0.8-2.7-1.4-5.5-2.6-8.1
			c-3.4-7.5-1.8-15.4-2.2-23.1c-0.2-2.9-0.5-5.8-0.7-8.6c1.9,0.5,3.7,0.9,5.6,1.4c0,0.3,0,0.5,0,0.8c0,5.3-0.3,10.7,0.1,16
			c0.4,5.2,1.5,10.4,2.3,15.5c0.1,0.5,0.2,1,0.4,1.5c1.4,3.4,2.9,6.8,4.4,10.2c1.6,3.6,3.1,7.3,4.8,10.8c1.2,2.5,2.7,5,4,7.5
			C463.8,183.5,462,184.1,460.1,184.6z"/>
		<path class="st101" d="M552.7,206.3c-1.9,0.3-4.3-0.9-5.2,2.3c-0.2,0.7-2.8,0.7-4.3,0.9c-1.7,0.2-3.8-0.6-4.4,2.2
			c-0.1,0.5-1.7,1-2.6,1c-5.4,0.1-10.9,0.2-16.3,0c-1.1,0-2.2-1.2-3.2-1.9c-0.6-0.4-1.2-1.1-1.8-1.1c-2.4-0.2-5.1,0.6-6-2.9
			c-0.1-0.3-1.5-0.2-2.2-0.4c-3.3-1.3-6.6-2.7-9.9-4c1.1-1.9,2.1-3.8,3.2-5.6c2,1.1,4.1,2.2,6.1,3.5c0.6,0.4,0.8,1.2,1.2,1.8
			c0.4,0.6,0.7,1.7,1.1,1.8c4.1,1,8.3,2.5,12.5,2.5c8.9,0,18.2,2,26.8-3.3c0.3-0.7,0.7-1.9,1.2-3.1
			C550.2,202,551.5,204.2,552.7,206.3z"/>
		<path class="st102" d="M474.7,128.6c1.5,0.6,3,1.1,4.6,1.7c-0.2,5-0.5,9.9-0.7,14.9c0,0.2,0.3,0.4,0.4,0.7
			c1.4,3.2,2.8,6.5,4.3,9.6c1.6,3.4,3.2,6.9,5.1,10.1c1.1,2,3.2,3.5,4,5.6c2,4.5,6,6.1,10,7.9c0.9,0.8,1.8,1.6,2.6,2.4
			c0.8,0.8,1.5,1.6,2.2,2.4c0,0.8,0,1.6,0,2.4c-2.6,0.6-4.6-0.6-6.3-2.4c-2.7-1.6-5.4-3.2-8.1-4.8c-2.4-2.7-4.8-5.3-7.2-8
			c-0.4-1.6-0.2-3.6-1.2-4.6c-4.1-4.4-6.5-9.8-8.4-15.4c0-1.5,0.3-3.2-0.1-4.6c-0.3-1-1.5-1.7-2.3-2.6c0-1.6,0-3.2,0-4.8
			C474,135.7,474.4,132.1,474.7,128.6z"/>
		<path class="st103" d="M465.7,183c-1.3-2.5-2.8-4.9-4-7.5c-1.7-3.6-3.3-7.2-4.8-10.8c-1.5-3.4-2.9-6.8-4.4-10.2
			c-0.2-0.5-0.3-1-0.4-1.5c-0.8-5.2-1.9-10.3-2.3-15.5c-0.4-5.3-0.1-10.6-0.1-16c0-0.3,0-0.5,0-0.8c1.6,0.3,3.2,0.6,4.8,0.9
			c0,7.4,0,14.9,0,22.3c0,1.1-0.1,2.2,0.2,3.1c1.4,3.6,3.9,7.1,4.3,10.8c0.8,6.8,4.7,12.1,7.7,17.7c1.2,2.3,2.2,4.1,2.1,6.6
			C467.8,182.5,466.8,182.7,465.7,183z"/>
		<path class="st104" d="M464.1,124.1c2.4,1.1,4.8,2.1,7.2,3.2c-2,4-4.2,7.9,0,11.9c0.1,4.9,0.3,9.5,2.1,14.4
			c1.5,4.1,2.8,8.3,5.3,12c0.9,1.3,1.4,2.9,2.3,4c1.4,1.7,3.1,3.2,4.7,4.8c0.8,1.6,1.6,3.1,2.4,4.7c-2.1,0.2-4.3,0.4-6.4,0.6
			c-1.1-2.5-2.1-5-3.3-7.4c-0.5-1.1-1.8-1.9-2.2-3c-1.4-3.8-5-6.2-5.6-10.6c-0.6-4.4-2.8-8.6-4-12.9c-0.6-2.2-0.2-4.7-0.7-7
			c-0.3-1.8-1.6-3.4-1.7-5.1C463.9,130.5,464.1,127.3,464.1,124.1z"/>
		<path class="st105" d="M545.5,195.2c0.5,0.8,1.1,1.6,1.6,2.4c-1.2,0.8-2.4,2.1-3.7,2.3c-2.4,0.4-5.2-0.5-5.4,3.4
			c0,0.3-1.6,0.7-2.4,0.7c-4.8,0.1-9.5,0.1-14.3,0c-0.8,0-2.4-0.4-2.4-0.7c-0.3-4.6-3.8-2.8-6.2-3.3c-1-0.2-2-0.8-3-1.3
			c-2.9-1.2-5.9-2.4-8.8-3.6c0.3-1.8,0.7-3.7,1-5.5c2.5,1,5.8,1.3,7.3,3.2c3.1,3.6,7.5,3.7,11.2,4.5c4.9,1.1,10.3,0.3,15.5,0.3
			c0.9,0,2.4,0.1,2.6-0.3C540.2,194.1,543,195.5,545.5,195.2z"/>
		<path class="st106" d="M468.9,182.2c0.1-2.5-0.9-4.3-2.1-6.6c-3.1-5.6-6.9-10.9-7.7-17.7c-0.4-3.7-2.9-7.1-4.3-10.8
			c-0.4-0.9-0.2-2.1-0.2-3.1c0-7.4,0-14.9,0-22.3c1.3,0.3,2.6,0.6,4,0.9c-3,4.7-2.2,10-0.8,14.6c0.8,2.6,1.3,5.1,1.7,7.7
			c0.7,4.5,1.7,8.9,2.5,13.3c0,0.2,0.3,0.4,0.4,0.7c1.4,2.7,2.8,5.4,4.2,8.1c1.7,3.1,3.4,6.2,5.1,9.3c0.8,1.5,1.4,3,2.1,4.6
			C472.1,181.3,470.5,181.7,468.9,182.2z"/>
		<path class="st107" d="M476.9,216c-1.9-2.6-3.7-5.2-5.7-7.8c-3.2-4.2-6.5-8.4-9.8-12.6c-0.5-0.6-1.5-0.9-2.3-1.4
			c2.7-0.8,5.3-1.6,8-2.4c1.6,0.3,3,0,4.4,2.1c3.4,4.9,7.8,9,11.9,13.5C481.3,210.3,479.1,213.2,476.9,216z"/>
		<path class="st108" d="M545.5,195.2c-2.4,0.3-5.3-1.1-7.1,2c-0.3,0.5-1.7,0.3-2.6,0.3c-5.2,0-10.5,0.9-15.5-0.3
			c-3.7-0.9-8.1-0.9-11.2-4.5c-1.5-1.8-4.8-2.2-7.3-3.2c-0.3-1.9-0.5-3.7-0.8-5.6c1.7,1.8,3.6,3,6.3,2.4c3.2,4.1,8.3,4.7,12.7,5.4
			c6,0.9,12.2,0.3,18.3,0.1c0.9,0,1.7-1.6,2.6-2.5C542.4,191.3,544,193.2,545.5,195.2z"/>
		<path class="st109" d="M464.1,124.1c0,3.2-0.2,6.4,0.1,9.6c0.2,1.7,1.4,3.4,1.7,5.1c0.4,2.3,0.1,4.8,0.7,7c1.2,4.4,3.3,8.5,4,12.9
			c0.6,4.4,4.2,6.8,5.6,10.6c0.4,1.1,1.6,1.9,2.2,3c1.2,2.4,2.2,4.9,3.3,7.4c-1,0.1-2.1,0.2-3.1,0.2c-0.9-1.7-1.6-3.7-2.9-5
			c-5.6-5.7-8.7-13.1-11.1-20.3c-1.6-4.9-3.8-9.9-3-15.7c0.8-5.1,0.2-10.4,0.2-15.5C462.5,123.6,463.3,123.9,464.1,124.1z"/>
		<path class="st110" d="M461.7,123.4c0,5.2,0.6,10.5-0.2,15.5c-0.9,5.7,1.4,10.8,3,15.7c2.4,7.3,5.5,14.6,11.1,20.3
			c1.3,1.3,1.9,3.3,2.9,5c-1.6,0.3-3.2,0.6-4.8,0.9c-0.7-1.5-1.3-3.1-2.1-4.6c-1.7-3.1-3.4-6.2-5.1-9.3c-1.4-2.7-2.8-5.4-4.2-8.1
			c-0.1-0.2-0.4-0.4-0.4-0.7c-0.9-4.4-1.8-8.9-2.5-13.3c-0.4-2.6-0.9-5.1-1.7-7.7c-1.4-4.5-2.1-9.9,0.8-14.6
			C459.5,122.8,460.6,123.1,461.7,123.4z"/>
		<path class="st111" d="M500.8,195.1c2.9,1.2,5.9,2.4,8.8,3.6c1,0.4,2,1.1,3,1.3c2.4,0.4,5.9-1.3,6.2,3.3c0,0.3,1.6,0.7,2.4,0.7
			c4.8,0.1,9.5,0.1,14.3,0c0.9,0,2.4-0.4,2.4-0.7c0.2-3.9,3-3,5.4-3.4c1.3-0.2,2.5-1.5,3.7-2.3c0.6,0.8,1.2,1.6,1.8,2.3
			c-0.5,1.2-0.9,2.4-1.2,3.1c-8.6,5.2-17.9,3.3-26.8,3.3c-4.2,0-8.3-1.5-12.5-2.5c-0.5-0.1-0.8-1.2-1.1-1.8
			c-0.4-0.6-0.6-1.5-1.2-1.8c-2-1.2-4-2.3-6.1-3.5C500.3,196.1,500.5,195.6,500.8,195.1z"/>
		<path class="st112" d="M483.5,207.4c-4-4.4-8.5-8.6-11.9-13.5c-1.5-2.1-2.8-1.7-4.4-2.1c3-0.7,5.9-1.5,8.9-2.2
			c2.7,4.7,5.6,9.2,11.2,11C486,202.9,484.7,205.2,483.5,207.4z"/>
		<path class="st113" d="M487.2,200.6c-5.6-1.7-8.5-6.2-11.2-11c2.4-0.3,4.8-0.6,7.2-1c0.9,0.9,1.7,1.8,2.7,2.7
			c1.5,1.3,3.2,2.5,4.7,3.8C489.6,197,488.4,198.8,487.2,200.6z"/>
		<path class="st114" d="M490.7,195.2c-1.6-1.3-3.2-2.5-4.7-3.8c-1-0.8-1.8-1.8-2.7-2.7c2.7-2.4,5.8-2.4,8.4-0.2
			C494.8,191,491.8,193.1,490.7,195.2z"/>
		<path class="st115" d="M495,206.2c0.9,0.4,1.8,0.8,2.6,1.3c0.8,0.6,1.5,1.9,2.3,1.9c2.5,0,2.8,1.4,2.6,3.3c-1.6,0-3.2,0-4.8,0
			c-1.9-0.8-3.7-1.6-5.6-2.4C493,209,494,207.6,495,206.2z"/>
		<path class="st116" d="M488.1,179c-0.8-1.6-1.6-3.1-2.4-4.7c0-1.1,0-2.1,0-3.2c2.4,2.7,4.8,5.3,7.2,8
			C491.3,179.1,489.7,179.1,488.1,179z"/>
		<path class="st9" d="M471.2,286.6c4,8,7.9,16,12,23.9c0.9,1.8,2.6,3.2,3.9,4.8c0.3-0.1,0.7-0.3,1-0.4c-0.4-2.5-0.5-5-1.3-7.4
			c-3.5-10.1-7.3-20-10.8-30.1c-0.4-1.1-0.3-2.5-0.5-3.7c1,0,2,0,2.9-0.1c2.1,4.5,4.2,9,6.3,13.6c2.3,8.1,4.7,16.2,7,24.4
			c0.3,1,0.3,2.1,0.4,3.1c0,4.9-1.5,6-6.4,4.6c-8.1-6.9-11.2-16.8-16-25.8c-0.4-1.1-0.8-2.2-1.2-3.2
			C467.6,287.7,468.1,286.2,471.2,286.6z"/>
		<path class="st6" d="M473,327.9c-0.7,1.4-1.3,2.9-2,4.2c-2.2,3.9-5.4,6.1-10.1,5.5c-3.8-0.4-6.1-2.8-7.1-6.1
			c-1.9-6.2-1.3-12.3,1.8-18c0.2-0.4,0.8-0.6,1.9-1.4c0,2.4,0.1,4.3,0,6.1c-0.1,3.2-0.9,6.4-0.4,9.4c0.4,2.1,2.2,4.6,4.1,5.6
			c2.5,1.3,4.8-0.6,6.1-3c2.1-4,3.6-8.2,2.4-12.8c-0.5-1.9-0.8-3.2-3.6-3.6c-2.8-0.4-1.4-3.3-0.5-5.2c4-0.2,7.8,3.5,7.9,8.2
			C473.7,320.6,473.2,324.3,473,327.9z"/>
		<path class="st117" d="M546.4,100.8c3,3.7,6,7.3,9.1,11c1.4,1.7,3,3.3,4.5,5c-1.1,0.8-2.1,1.6-3.2,2.5c-2-2.3-3.9-4.7-5.9-7
			c-1.3-1.9-2.2-4.3-3.9-5.6c-9.2-6.4-18.6-12.4-28-18.5c6.1,0.4,11.8,1.6,17,5.6c2.7,2.1,5.7,3.8,7.8,6.6
			C544.2,100.8,545.5,100.6,546.4,100.8z"/>
		<path class="st118" d="M526.4,105.6c0-0.8,0-1.6,0-2.4c0.6,0,1.3-0.1,1.9-0.1c5.2,3.8,10.4,7.6,15.7,11.4c1.9,2.2,4.1,4.2,5.7,6.7
			c1.2,1.7,1.5,4,2.3,6c-3.8-3.1-7.6-6.3-11.4-9.4c-0.5-4.3-6.5-9.6-11-9.8C528.6,107.2,527.5,106.4,526.4,105.6z"/>
		<path class="st119" d="M528.3,103.1c-0.6,0-1.3,0.1-1.9,0.1c-6-3.3-12.6-2.4-19-2.4c-2.2,0-3.9,0.4-6,1.9c-2,1.4-5.6,0.5-8.6,0.5
			c2.4-1.6,4.8-3.2,7.2-4.8c6.7,0,13.4,0,20.1,0C522.9,99.9,525.6,101.5,528.3,103.1z"/>
		<path class="st120" d="M550.9,112.2c2,2.3,3.9,4.7,5.9,7c1.4,2.1,2.8,4.2,4.2,6.3c-0.2,1.8-1,5.2-0.6,5.3c3.1,1.1,1.9,3.5,2,5.5
			c-1.6-1.4-3.1-2.9-4.7-4.3c-0.5-7.1-4.5-12.2-9.5-16.7C549,114.3,550,113.2,550.9,112.2z"/>
		<path class="st121" d="M548.1,115.3c5.1,4.5,9,9.6,9.5,16.7c-1.9-1.6-3.7-3.2-5.6-4.8c-0.7-2-1.1-4.3-2.3-6
			c-1.6-2.4-3.8-4.5-5.7-6.7C545.4,114.7,546.7,115,548.1,115.3z"/>
		<path class="st5" d="M520.2,98.3c-6.7,0-13.4,0-20.1,0c-0.3-2.4,0.6-3.3,3.1-3.2c4.1,0.1,8.2,0,12.4-0.1
			C517.1,96.1,518.6,97.2,520.2,98.3z"/>
		<path class="st122" d="M274.7,124c0.3,0.2,0.5,0.5,0.8,0.7c-4.7,4.7-9.4,9.3-14,14c-1.7,1.7-3.4,3.4-5.1,5.1
			c1.5-2.1,2.7-4.5,4.5-6.3C265.3,132.9,270.1,128.5,274.7,124z"/>
		<path class="st123" d="M492,136c-0.3,0.8-1,1.8-0.8,2.5c0.3,1.8,1.6,3.6,1.5,5.3c-0.2,4.1,2.8,6.9,3.7,10.1
			c1.8,6.7,8.5,9.1,10.8,14.9c0.1,0.6,0,1.6,0.4,1.8c2.5,1.4,5.2,2.5,7.7,3.9c0.7,0.4,1,1.5,1.5,2.3c-1.9,0-3.7,0-5.6,0
			c-3.2-2.3-7.1-3.5-9.2-7.3c-0.8-1.4-2.9-2.1-4.4-3.1c-2-3.5-4.1-6.8-5.9-10.4c-1.4-2.8-2.5-5.8-3.7-8.7c-0.4-0.9-0.2-2.3-0.7-2.9
			c-3.1-3.5-1.9-7.1-0.7-10.8C488.4,134.3,490.2,135.1,492,136z"/>
		<path class="st124" d="M502.5,179.2c-4-1.8-8-3.3-10-7.9c-0.9-2.1-2.9-3.6-4-5.6c-1.9-3.3-3.5-6.7-5.1-10.1
			c-1.5-3.2-2.9-6.4-4.3-9.6c-0.1-0.2-0.4-0.5-0.4-0.7c0.2-5,0.4-9.9,0.7-14.9c0.6,0.2,1.1,0.5,1.7,0.7c0.1,2-0.3,4.1,0.2,5.9
			c1.3,4.6,3.7,9.1,4.2,13.7c0.5,3.8,1.9,6.4,4.4,8.8c0.4,0.4,0.5,1.2,0.6,1.8c1,3.8,3.9,5.9,7.2,7.5c0.3,0.8,0.6,1.6,1,2.3
			c2,2.7,4.1,5.4,6.2,8.1C504.1,179.1,503.3,179.2,502.5,179.2z"/>
		<path class="st56" d="M497.7,168.8c-3.3-1.6-6.2-3.7-7.2-7.5c-0.2-0.6-0.2-1.4-0.6-1.8c-2.5-2.4-3.9-5-4.4-8.8
			c-0.6-4.7-2.9-9.1-4.2-13.7c-0.5-1.9-0.2-3.9-0.2-5.9c1.9,0.8,3.8,1.6,5.7,2.4c-1.1,3.7-2.4,7.3,0.7,10.8c0.6,0.7,0.4,2,0.7,2.9
			c1.1,2.9,2.2,5.9,3.7,8.7c1.8,3.5,3.9,6.9,5.9,10.4C497.7,167.2,497.7,168,497.7,168.8z"/>
		<path class="st125" d="M501,140.7c-1.3,2.1-1.2,3.7,0.4,5.9c2.4,3.2,4,7.1,6,10.7c0.8,1.4,1.5,2.9,2.3,4.3c-2.3-2.1-5-4-6.9-6.4
			c-3.6-4.7-5.7-10.1-5-16.3C498.8,139.5,499.9,140.1,501,140.7z"/>
		<path class="st126" d="M471.3,139.2c-4.2-4-2-7.9,0-11.9c1.2,0.4,2.3,0.9,3.5,1.3c-0.4,3.5-0.7,7-1.1,10.5
			C472.9,139.2,472.1,139.2,471.3,139.2z"/>
		<path class="st127" d="M572.8,147.9c-1.6-1.8-3.3-3.5-4.9-5.3c1.1-4.2-1.7-7-3.3-10.3c-0.4-0.8-0.2-1.9-0.3-2.9
			c2.2,2.2,4.5,4.4,6.7,6.6c-0.1,0.7-0.6,2-0.4,2.1C574.3,140.8,572.2,144.6,572.8,147.9z"/>
		<path class="st128" d="M572.8,147.9c-0.5-3.3,1.6-7.1-2.2-9.7c-0.2-0.2,0.2-1.4,0.4-2.1c2.5,2.9,5,5.8,7.5,8.7
			c-0.3,2.9-0.6,5.8-0.9,8.7C576,151.6,574.4,149.7,572.8,147.9z"/>
		<path class="st129" d="M577.6,153.4c0.3-2.9,0.6-5.8,0.9-8.7c1.6,1.9,3.2,3.7,4.8,5.6c-0.3,3.3-0.7,6.5-1,9.8
			C580.7,157.8,579.2,155.6,577.6,153.4z"/>
		<path class="st130" d="M564.3,129.4c0.1,1-0.1,2.1,0.3,2.9c1.5,3.3,4.4,6.2,3.3,10.3c-1.9-2.1-3.7-4.2-5.6-6.3
			c-0.1-2,1.1-4.3-2-5.5c-0.4-0.1,0.4-3.5,0.6-5.3C562.1,126.8,563.2,128.1,564.3,129.4z"/>
		<path class="st131" d="M445.3,308.4c-2.4,6.5-4.7,13-7.4,20.3c-2.1-5.4-3.5-9.6,1.1-13.7c2.2-1.9,3.6-4.7,5.3-7.1
			C444.6,308.1,444.9,308.3,445.3,308.4z"/>
		<path class="st132" d="M497.7,212.8c1.6,0,3.2,0,4.8,0c2.7,0.1,5.4-0.7,7.2,2.7c0.5,1,3.7,0.6,5.9,0.8c0.3,1.3,0.6,2.7,1,4.3
			c7.9,0,15.7,0,23.8,0c0.3-1.3,0.6-2.7,0.9-4.1c5.4-0.7,10-2.7,13.4-7c1.3,2.2,2.5,4.3,3.8,6.5c-1.7,0-3.4,0-5.2,0
			c-0.3,1.7-0.5,3-0.7,4.5c-1.6,0.2-3.1,0.4-4.8,0.7c-0.3,1.1-0.6,2.2-0.9,3.6c-2.9,0-5.6,0-8.5,0c-0.4,1.7-0.7,3-1.1,4.6
			c-5.7,0-11.4,0-17.5,0c0.4-4.8-2.9-4.6-6.5-4.7c-1.5,0-3-1.5-4.2-2.9c-2.3-1.7-7.3,0.8-6.6-5.1
			C500.6,215.5,496.8,216.8,497.7,212.8z"/>
		<path class="st124" d="M502.5,179.2c0.8,0,1.6,0,2.4,0c1.9,0.1,3.9,0.1,5.8,0.5c1.8,0.4,3.6,1.3,5.4,1.9c0.6,0.1,1.4,0.1,1.9,0.4
			c2.5,2,14.9,2.9,17.8,1.2c0.2-0.1,0.2-0.5,0.2-0.7c0.8,1,1.6,2.1,2.4,3.1c-1.3,1.3-2.5,3.6-3.9,3.7c-4.3,0.5-8.7,0.2-13,0.1
			c-0.4,0-1.1-0.5-1.2-0.8c-0.5-3-2.8-2.2-4.6-2.3c-1-0.1-2.1-0.1-3.1-0.4c-1.8-0.6-3.6-1.3-5.4-2c-0.7-0.8-1.4-1.6-2.2-2.4
			C504.2,180.7,503.3,180,502.5,179.2z"/>
		<path class="st133" d="M507.3,184c1.8,0.7,3.6,1.4,5.4,2c1,0.3,2,0.3,3.1,0.4c1.9,0.1,4.1-0.7,4.6,2.3c0.1,0.3,0.8,0.8,1.2,0.8
			c4.3,0.1,8.7,0.4,13-0.1c1.4-0.2,2.6-2.4,3.9-3.7c0.8,1.3,1.6,2.5,2.5,3.8c-0.9,0.9-1.7,2.4-2.6,2.5c-6.1,0.2-12.3,0.8-18.3-0.1
			c-4.4-0.7-9.5-1.2-12.7-5.4C507.2,185.6,507.3,184.8,507.3,184z"/>
		<path class="st83" d="M516.8,176.8c-0.5-0.8-0.8-1.9-1.5-2.3c-2.5-1.4-5.2-2.5-7.7-3.9c-0.4-0.2-0.3-1.2-0.4-1.8
			c4.3,1.3,9.3,1.1,12.6,5.1c0.4,0.5,1.5,0.5,2.2,0.5c2.9,0.1,5.8,0.1,8.8,0c0.8,0,2-0.2,2.5-0.8c2.7-2.9,5.8-4.9,9.9-4.8
			c0,0,0,0,0,0c-0.8,2.4-1.6,4.8-2.4,7.1c-2.2,0.3-4.3,0.6-6.5,0.9C528.5,176.8,522.7,176.8,516.8,176.8z"/>
		<path class="st134" d="M536,182.4c-0.1,0.3-0.1,0.6-0.2,0.7c-2.9,1.8-15.3,0.8-17.8-1.2c-0.4-0.4-1.2-0.3-1.9-0.4
			c-0.7-0.8-1.5-1.6-2.2-2.4c-0.8-0.8-1.7-1.6-2.6-2.4c1.9,0,3.7,0,5.6,0c-0.2,2.4,1.3,2.4,3.1,2.4c4.9-0.1,9.7,0,14.6-0.1
			C535,180.2,535.5,181.3,536,182.4z"/>
		<path class="st123" d="M534.5,179.1c-4.9,0-9.8,0-14.6,0.1c-1.7,0-3.3,0-3.1-2.4c5.8,0,11.6,0,17.5,0
			C534.4,177.5,534.5,178.3,534.5,179.1z"/>
		<path class="st123" d="M540.8,175.9c0.8-2.4,1.6-4.8,2.4-7.1c0.8,0,1.6,0,2.4,0c0,1.9,0,3.7,0,5.6c-1.4,0.6-2.8,1.1-4.2,1.7
			C541.2,176.1,541,176,540.8,175.9z"/>
		<path class="st50" d="M529.6,108c4.5,0.1,10.5,5.5,11,9.8c-1.2,0-2.5,0-3.7-0.1c-2.1-2.4-4.3-4.9-6.4-7.3
			C530.2,109.6,529.9,108.8,529.6,108z"/>
		<path class="st67" d="M530.4,110.4c2.1,2.4,4.3,4.9,6.4,7.3c-0.5,0.5-1.1,1.1-1.6,1.6c-1.6-1.3-3.4-2.4-4.9-3.9
			c-1.5-1.5-2.7-3.3-4-5C527.8,110.4,529.1,110.4,530.4,110.4z"/>
		<path class="st135" d="M531.2,166.4c1.1,0,2.1,0,3.2,0c-0.9,0.8-1.8,2.2-2.7,2.3c-4,0.3-8,0.2-12,0.1c-3.5-0.1-9.1-4.1-10.1-7.2
			c3,0.9,6.6,0.9,8.7,2.7C522.5,167.7,527,165.7,531.2,166.4z"/>
		<path class="st6" d="M486.7,236c3.2-1,3.3,1.6,3.4,3.4c0.5,8.3,2.6,16.2,6.1,23.7c2,4.3,4.3,8.5,6.4,12.8
			c2.3,4.3,4.6,8.5,6.7,12.9c0.6,1.2,0.2,2.8,0.3,4.3c-1.5-0.1-3.3,0.2-4.4-0.5c-3.2-2.1-6.2-4.6-9.8-6.6c2.6,4.4,5.2,8.8,7.9,13.2
			c2,3.4,1.5,4.4-2.3,4.5c-1.6-2.3-3.2-4.6-4.8-6.9c-2.9-4.9-5.9-9.7-8.8-14.6c-0.5-2.3-1.1-4.6-1.6-6.8c0.4-0.3,0.9-0.7,1.3-1
			c4.8,3.3,9.6,6.5,14.2,9.7c-3.7-8.4-7.7-16.9-11.1-25.6C487.3,251.4,485.7,243.9,486.7,236z"/>
		<path class="st136" d="M471.3,139.2c0.8,0,1.6,0,2.4,0c0,1.6,0,3.2,0,4.8c0.5,2.5-1.5,5.8,2.4,7.2c2,5.6,4.3,10.9,8.4,15.4
			c0.9,1,0.8,3.1,1.2,4.6c0,1.1,0,2.1,0,3.2c-1.6-1.6-3.3-3.1-4.7-4.8c-1-1.2-1.5-2.7-2.3-4c-2.5-3.7-3.7-7.9-5.3-12
			C471.6,148.7,471.3,144,471.3,139.2z"/>
		<path class="st126" d="M476.1,151.2c-3.9-1.4-1.9-4.7-2.4-7.2c0.8,0.9,2,1.6,2.3,2.6C476.4,148,476.1,149.6,476.1,151.2z"/>
		<path class="st80" d="M511.2,176.8c0.9,0.8,1.7,1.6,2.6,2.4c0.8,0.8,1.5,1.6,2.2,2.4c-1.8-0.7-3.5-1.5-5.4-1.9
			c-1.9-0.4-3.9-0.3-5.8-0.5c-2.1-2.7-4.2-5.3-6.2-8.1c-0.5-0.7-0.7-1.5-1-2.3c0-0.8,0-1.6,0-2.4c1.5,1,3.6,1.7,4.4,3.1
			C504.2,173.3,508.1,174.5,511.2,176.8z"/>
	</g>
	<g>
	</g>
</g>
</svg>