<?xml version="1.0" encoding="utf-8"?>
<!-- Generator: Adobe Illustrator 26.0.0, SVG Export Plug-In . SVG Version: 6.00 Build 0)  -->
<svg version="1.1" className='test' id="demo_svg" xmlns="http://www.w3.org/2000/svg" xmlns:xlink="http://www.w3.org/1999/xlink" x="0px" y="0px"
	 viewBox="0 0 768 1024" style="enable-background:new 0 0 768 1024;" xml:space="preserve">
<style type="text/css">
	.st0{fill:#020203;}
	.st1{fill:#949494;}
	.st2{fill:#F6F5F6;}
	.st3{fill:#080707;}
	.st4{fill:#909090;}
	.st5{fill:#ECA520;}
	.st6{fill:#F5F3F0;}
	.st7{fill:#E5A328;}
	.st2 {
        transform-origin: 193px 1640px;
        -webkit-transform-origin: 50% 46%;
        -webkit-animation: rotate 4s cubic-bezier(.49,.05,.32,1.04) infinite;
        animation: rotate 4s cubic-bezier(.49,.05,.32,1.04) infinite;
    }
    @-webkit-keyframes rotate {
        100% {
            -webkit-transform: rotate(360deg);
        }
    }
     @keyframes rotate {
        100% {
            transform: rotate(360deg);
        }
    }

	 .st6 {
        transform-origin: 193px 1640px;
        -webkit-transform-origin: 50% 46%;
        -webkit-animation: rotate2 4s cubic-bezier(.49,.05,.32,1.04) infinite;
        animation: rotate2 4s cubic-bezier(.49,.05,.32,1.04) infinite;
    }
    @-webkit-keyframes rotate2 {
        100% {
            -webkit-transform: rotate(-360deg);
        }
    }
     @keyframes rotate2 {
        100% {
            transform: rotate(-360deg);
        }
    }
</style>
<g>
	<path class="st0" d="M0,0c256,0,512,0,768,0c0,341.3,0,682.7,0,1024c-256,0-512,0-768,0C0,682.7,0,341.3,0,0z M386.1,817
		c192.1,0.2,349.3-152.7,349.7-347.9c0.4-193.5-154.1-349-346.9-349.4c-194.7-0.3-349.3,153.1-350.3,347
		C37.6,665.9,199.6,817.1,386.1,817z"/>
	<!-- <path class="st1" d="M386.1,817C199.6,817.1,37.6,665.9,38.6,466.7c1-193.9,155.7-347.3,350.3-347
		c192.8,0.3,347.3,155.9,346.9,349.4C735.4,664.3,578.2,817.2,386.1,817z M387.3,808.2c187.9,0.8,339.5-151.5,339.9-338.6
		c0.5-188.1-149.4-340.8-339-341.3C199.7,127.8,44.1,279.5,47.3,474.6c1.6,93.7,36.9,174.3,104.8,239.4
		C217.7,776.8,296.6,807.5,387.3,808.2z"/> -->
	<path class="st2" d="M387.3,808.2c-90.7-0.7-169.6-31.4-235.1-94.2C84.3,648.9,48.9,568.3,47.3,474.6
		c-3.3-195.2,152.3-346.8,340.9-346.3c189.6,0.5,339.4,153.1,339,341.3C726.7,656.7,575.1,809,387.3,808.2z M723.1,468.4
		c0.6-90.3-36.5-177.2-100-239.1c-65.3-63.7-144.3-96.7-235.2-96.8c-91.8,0-171.9,32.7-237,98C86.3,295.1,53,374,52.2,465.4
		C50.6,653.1,199,798.6,377.3,803.7C573.8,809.3,723.8,650.1,723.1,468.4z"/>
	<path class="st3" d="M723.1,468.4c0.7,181.7-149.3,340.9-345.8,335.3C199,798.6,50.6,653.1,52.2,465.4
		C53,374,86.3,295.1,150.8,230.5c65.1-65.3,145.2-98,237-98c90.9,0,169.9,33.1,235.2,96.8C686.6,291.2,723.7,378.1,723.1,468.4z
		 M481.4,263.7l-0.3,0c-5.7-2.4-11.4-4.9-17.1-7.3c-10.3-2.8-20.4-6.1-30.8-8.3c-26.6-5.7-53.5-6.2-80.4-2
		c-18.6,2.9-36.8,7.7-53.8,16c-3.6,1.8-7.5,3.6-8.7,9c3-0.3,5.7-0.1,8.1-0.8c6.8-2,13.6-4.4,20.4-6.6c45.3-15.2,90.8-15.6,136.1-0.1
		c15,5.1,29.3,12.3,43.9,18.6c2.4,2.5,5.5,3.2,7.7,0.6c2.2-2.6-0.3-4.9-2.5-6.5c-1.8-1.3-3.9-2.1-5.8-3.2c-2.6-1.4-5.2-2.8-7.8-4.1
		C487.3,267.2,484.3,265.5,481.4,263.7z M236.6,713.4c10.1,5.4,20.1,10.9,30.3,16.1c3.2,1.6,7.5,4.1,9.5-0.5c2-4.7-2.9-5.9-6.1-7.4
		c-42.5-20.1-78-48.8-106.2-86.5c-3.5-4.6-7-9.3-10.9-13.6c-1-1.1-3.2-1-4.9-1.4c-0.4,1.6-1.3,3.4-1.1,4.9c0.3,1.9,1.4,3.7,2.6,5.3
		c6.7,9.3,13.5,18.4,20.3,27.6c-4.8,1.1-5.8,3-3.4,7.2c1,1.7,2.2,3.3,3.6,4.8c16,17.5,33.9,32.7,53.9,45.4c3.8,2.4,8.1,4.6,13.2,3.2
		C237.1,716.6,236.8,715,236.6,713.4z M307.1,695.2c-3.9-2.5-7.6-5.4-11.7-7.3c-34.3-16.5-65.2-37.5-89.5-67.2
		c-45.2-55.1-63-118.2-52.4-188.4c9.8-64.9,41.9-117.3,95.1-155.9c53.1-38.5,112.8-51.6,177.4-41.9c23.8,3.6,47,10.3,68.1,22.1
		c15.8,8.9,30.7,19.3,45.6,29.6c5,3.4,9,8.4,13.4,12.6c19.9,19.2,35.8,41.4,47.7,66.3c18.9,39.2,26.1,80.7,22.4,124.2
		c-2.6,31.1-11.3,60.3-25.5,87.9c-10.6,20.7-24.2,39.4-40.5,56c-38.4,39.2-84.6,62.8-139,70.1c-4.4,0.6-9,0.8-13.3,2
		c-1.7,0.5-3.9,3.3-3.7,4.8c0.2,1.5,2.9,2.9,4.7,4c0.7,0.4,1.9,0,2.9,0c18.4-1.1,36.2-4.9,53.6-10.6c11.5-3.8,22.9-7.9,34-12.6
		c6-2.5,11.3-6.6,16.9-9.9c23.7-14.1,44.7-31.3,62.3-52.5c31-37.2,50.1-79.8,56.4-127.9c3.4-26.1,2.9-52.1-2.1-78
		c-5.1-26.3-14.5-51-27.4-74.6c-14.7-26.7-33.6-49.8-56.9-69.4c-17.3-14.5-36.2-26.7-56.8-35.8c-27.9-12.4-57.3-19.1-87.9-20.8
		c-37.4-2.1-73.4,3.9-107.8,18.4c-51,21.4-91.1,55.8-119,103.8c-31.7,54.5-41.1,112.9-28.5,174.7c9.4,46,30.6,86,62.9,120
		c22.5,23.6,48.5,42.6,78.9,54.9C293.6,695.8,299.7,698.2,307.1,695.2z M199.3,355.2c-0.4-0.2-0.8-0.4-1.1-0.6
		c-1.5,1.7-3.4,3.2-4.5,5.1c-5,8.4-10.9,16.4-14.6,25.4c-14.4,34.2-19,70-15.1,106.8c5.5,52.3,26.6,97.5,63.7,134.7
		c38.4,38.4,84.9,60.5,139.1,65.5c45.1,4.2,87.7-4.5,127.6-26.1c8.4-4.6,16.7-9.7,24.4-15.3c56.5-41.2,86.8-97.3,92.8-166.5
		c2.6-30.2-1.3-59.9-11.8-88.4c-3.7-10.2-8.7-20-13.7-29.8c-1.2-2.4-4.4-3.7-7.5-6.3c-1.7,7.5,1.8,12.1,4,16.7
		c12.9,27.9,19.5,57.3,20.2,87.9c0.7,27.6-4,54.4-14.1,80c-24.1,61-66.9,103.4-128.4,126.5c-32.9,12.4-67,15.8-101.7,10.9
		c-59.2-8.4-107.6-36.2-143.4-84.4c-39.6-53.3-52.2-113.1-37.5-177.8c4.3-19.2,12.4-37.5,18.7-56.2
		C197.5,360.6,198.4,357.9,199.3,355.2z M356.9,495.6c0.9,2.1,1.3,3,1.6,3.9c4.8,16.3,10.5,32.3,14.2,48.8
		c5.3,23.2,8.6,46.8,5.4,70.8c-0.2,1.7,1.7,3.7,2.6,5.5c1.8-1.1,4.8-1.8,5.3-3.2c1.5-4.7,3-9.7,2.8-14.6
		c-0.4-11.5-1.5-23.1-2.6-34.6c-0.7-7.6-1-15.4-3-22.6c-5.5-20.2-11.8-40.2-17.5-60.3c-0.5-1.8-0.3-4.5,0.7-5.9
		c4.5-5.9,9.1-11.9,14.4-17c17.4-17,35.1-33.7,52.9-50.4c19.4-18.2,39.3-36,53.3-59c3.1-5,5.8-10.5,7.5-16.1
		c2.5-8.5-2.2-14.5-11-14.8c-5-0.2-10.2-0.5-14.9,0.8c-19,5.3-38.1,10.7-56.8,17c-25.1,8.4-49.1,19.6-72.4,32
		c-7.6,4-15.1,8.2-22.9,12.4c-1.6-2.4-2.9-4.7-4.4-6.9c-3.7-5.3-7.3-10.7-11.3-15.7c-2.3-2.9-5.8-4.4-9.4-2.4
		c-1.5,0.8-2.5,3-2.9,4.7c-0.2,0.7,2,2,3.1,2.9c1.1,0.9,2.7,1.5,3.4,2.6c3.9,5.8,7.5,11.8,11.4,17.6c1.6,2.4,1,3.8-1.3,5.2
		c-4.4,2.7-8.8,5.3-12.9,8.4C278,415.4,264,426.3,250,437.2c-2.4,1.9-4.4,4.2-1.7,8.5c2.6-1.2,5.7-2,8.1-3.6
		c17.6-12,35-24.1,52.4-36.4c3.4-2.4,5.2-2.4,7.1,1.6c11.6,24.3,23.4,48.5,34.9,72.8c0.8,1.7,0.1,4.9-1,6.6
		c-16.6,23.6-30.9,48.5-43.4,74.4c-3.6,7.4-5.9,15.5-8.2,23.4c-0.4,1.4,1.8,3.6,2.9,5.4c1.7-1.2,4.1-2.1,5-3.8c1.7-3.2,2.3-7,4-10.2
		c10.9-19.8,22-39.5,33.2-59.1C347.3,509.8,352,503.2,356.9,495.6z M192,280.3c-0.4-0.4-0.7-0.8-1.1-1.3
		c8.9-7.9,17.4-16.1,26.7-23.5c50.6-40.2,108.4-59.7,172.9-59.5c22,0.1,43.8,3,65.1,8.7c24,6.5,47,15.5,68.5,28.2
		c8.6,5.1,16.9,10.6,25.4,15.7c1.4,0.9,3.7,0.4,5.5,0.6c-0.1-1.8,0.3-3.8-0.3-5.4c-0.7-1.7-2.1-3.5-3.7-4.5
		c-12.5-7.7-24.7-16-37.7-22.7c-20.7-10.8-42.8-18.1-65.7-23.1c-38.4-8.4-77-9-115.5-1.1c-45.4,9.3-86.4,28.4-122.4,57.8
		c-44.1,36-74.6,81.4-91.4,135.7c-11.4,37-15.1,74.8-10.6,113.4c3.1,26.9,9.3,53,20.6,77.7c1.2,2.6,3.3,4.9,5.2,7.2
		c0.5,0.6,2,0.5,3,0.4c0.2,0,0.5-1.6,0.4-2.4c-0.7-3.9-1.2-7.8-2.5-11.5c-10.4-29.1-17.7-58.8-19-89.9
		c-1.7-41.3,5.3-80.8,21.1-118.9c10.2-24.4,24.4-46.3,40.4-67.2c1.4-1.9,3.4-3.3,4.7-4.6c1.4,2.6,2.7,6.6,3.5,6.5
		c2.6-0.3,5.2-2,7.6-3.5c1.4-0.8,2.4-2.3,3.5-3.5c21.8-23.3,46.8-42.3,75.6-56.3c6.1-3,12.3-5.9,18.2-9.1c1.7-0.9,2.7-3.1,4.1-4.7
		c-0.3-0.6-0.7-1.2-1-1.8c-3.8,0.5-8,0.2-11.4,1.7c-11.2,5.1-22.3,10.4-33,16.6c-18.8,10.9-36,23.9-51.4,39.3
		C195.8,277,193.9,278.7,192,280.3z M303.5,736.7c-0.2,0.6-0.5,1.2-0.7,1.7c0.6,0.9,1.1,2.2,1.9,2.6c3.2,1.7,6.5,3.3,10,4.5
		c20.9,7.2,42.8,9.2,64.7,9.9c29.1,0.9,57.8-2.8,85.8-10.8c36.9-10.5,70.3-27.6,100.5-51.5c30.9-24.4,55.5-53.8,74.2-88.2
		c21.2-39.1,32.7-80.9,34.4-125.4c0.7-18.7,0-37.3-3.4-55.7c-0.5-2.8-1.7-5.8-4.8-4.9c-1.5,0.4-2.4,3.8-3.2,6
		c-0.4,1.2,0.1,2.6,0.3,4c3.1,23.2,3.6,46.3,1,69.7c-3.4,31.2-11.7,61-25.3,89.2c-25.1,52.4-62.8,93.2-113.2,121.9
		c-16.3,9.3-33.1,17.5-51.2,23.2c-32.5,10.2-65.7,15.9-99.8,13.1c-18.3-1.5-36.5-4.8-54.8-7.3C314.5,738,309,737.4,303.5,736.7z
		 M286.2,191.7c-6.1-3.2-8.2-3.1-14.9-0.2c-57.6,24.4-103.4,62.8-137.3,115.3c-28.3,43.8-43.6,92.1-46.6,144
		c-1,17.3,0.4,34.9,1.7,52.3c1.7,22.6,7.7,44.4,15,65.8c0.6,1.7,1.4,3.6,2.6,4.7c1.3,1.2,3.4,2.2,5,2c0.9-0.1,2.2-2.9,2.1-4.4
		c-0.3-3.1-1.1-6.2-2.1-9.1c-10.4-29.6-15.1-60.1-15.6-91.3c-0.3-21.9,2-43.8,6.9-65.2c11.6-50.6,34.5-95.4,69.5-133.8
		c29.2-32.1,63.9-56.4,104-73.2C279.8,197.2,282.4,194.4,286.2,191.7z M669.9,570.4c-4.5,0.4-5.9,3.6-7.2,6.9
		c-8.4,20.9-18.7,40.8-31.9,59.1c-54.8,76.2-128.7,119.2-222.7,126.7c-3.8,0.3-7.6,0.6-11.4,1c-2.5,0.3-4.9,0.9-4.9,4.4
		c0,3.5,2.5,4,5,4.3c2,0.3,4,0.2,6,0c13-1.5,26.1-2.7,39-4.9c31.1-5.2,60.4-15.6,88.2-30.4c44.1-23.4,80.4-55.7,108.7-97
		c12.7-18.6,23.1-38.4,31.5-59.2C671.6,577.9,673.3,574.2,669.9,570.4z M534.7,322.3c3.3,5.5,6.1,10.3,9.1,15
		c8.6,13.1,18.5,25.5,25.7,39.4c20.3,39,26.6,80.5,19.6,124c-1.4,8.7-2.8,17.3-4,26.1c-0.2,1.2,1,2.5,1.6,3.7c1.4-0.7,3.4-1.1,4-2.2
		c1.7-3.2,3.1-6.7,4-10.2c6-24.5,7.3-49.3,4.4-74.3c-3.3-28.8-11.8-56-26.5-81c-6.7-11.4-14.6-22-22.6-32.5
		C546.8,326.1,542.8,321.5,534.7,322.3z M618.3,342.9c0.6,3.8,0.6,7,1.6,10c1,3.3,2.8,6.4,4.2,9.6c11,25.3,18.4,51.5,21.1,79
		c1.8,17.8,2.3,35.5-0.1,53.2c-2,14.6-4.6,29.1-6.7,43.7c-0.3,2.3,0.2,4.8,0.3,7.1c0.7,0.1,1.3,0.3,2,0.4c1.4-2.3,3.2-4.4,4.2-6.8
		c8.3-20.5,9.7-42.3,10.6-64c0.9-23.8-2-47.4-7.6-70.6c-4.5-18.5-10.9-36.2-19.3-53.3C626.8,347.5,624.9,343.6,618.3,342.9z
		 M657.4,385.2c-0.4-2.4-0.5-3.9-1-5.3c-15.7-49.2-43.3-90.5-82-124.5c-1.7-1.5-4-2.4-6.2-2.9c-3.7-0.9-5.2,0.8-3.7,4.3
		c1.1,2.5,3,4.8,5,6.7c29.6,26.1,52.4,57.2,68.4,93.3c4.3,9.7,8,19.7,12.3,29.4c0.6,1.4,3.3,2,5,3
		C656,387.6,656.8,386.1,657.4,385.2z M294.1,718.5c-0.4,0.8-0.7,1.5-1.1,2.3c2.3,1.6,4.3,3.8,6.9,4.7c8,3,16,6.6,24.3,8.1
		c16.8,3.1,33.7,6.2,50.6,7.1c16.3,0.8,32.9-0.2,49.2-2.1c12.8-1.5,25.3-5.2,37.8-8.4c3.8-1,7.1-4,10.7-6c-0.2-0.7-0.5-1.4-0.7-2.1
		c-5.3,0.6-10.7,1-16,1.8c-17.9,2.7-35.6,6.7-53.6,8c-31.6,2.4-62.6-2.4-93.2-10.5C304.1,720,299.1,719.4,294.1,718.5z M262.1,711.4
		c1.3-0.9,3.3-1.6,3.6-2.7c0.4-1.7,0-4-1-5.3c-1.3-1.6-3.5-2.4-5.4-3.5c-18.5-10.3-35.9-22.3-51-37.1c-11-10.8-21-22.6-31.4-33.9
		c-2.3-2.5-4.5-7.3-8.6-3.8c-3.5,2.9-0.6,6.3,1.5,9.2c23.4,31.2,52.4,55.8,86.5,74.6C258,709.7,259.8,710.4,262.1,711.4z
		 M635.5,564.9c-1.2-1.5-2.1-3.6-3.6-4.2c-1.2-0.4-3.5,0.7-4.5,1.8c-1.4,1.5-2.2,3.7-3,5.7c-13,31-31.5,58.2-55.3,82
		c-4,4-8.1,7.8-11.8,12.2c-1.1,1.3-0.6,3.9-0.8,5.9c1.9,0,4.1,0.6,5.6-0.1c2.5-1.2,4.7-3.1,6.8-5c24.3-22.7,43.6-49,58.1-78.9
		C630,578.1,632.5,571.7,635.5,564.9z M389.1,159.2c-14.2,1.1-25.5,2-36.8,2.8c-3.6,0.3-7.1,1-7,5.4c0.1,4.6,3.8,4.8,7.3,4.5
		c7.4-0.6,14.9-1.7,22.3-1.9c20.5-0.5,40.9,0.1,61.2,3.7c3,0.5,6.3-0.2,9.3-0.9c3-0.7,3.4-2.9,0.8-4.5c-2.8-1.7-5.9-3.6-9-4
		C420.3,162.3,403.3,160.7,389.1,159.2z M599.7,309.8c-1.2-2.3-1.9-4.2-3.1-5.7c-3.8-4.8-7.7-9.4-11.7-14
		c-11.8-13.5-25-25.5-40.1-35.4c-2.8-1.8-4.9-2.9-7,0.2c-2.2,3.4,0.1,5.7,2.4,7.7c6.6,5.6,13.7,10.4,19.8,16.5
		c10.6,10.5,20.4,21.8,30.7,32.5c1.2,1.3,3.7,2.1,5.5,1.9C597.4,313.5,598.4,311.3,599.7,309.8z M413.3,521.9
		c0.9,3.7,1.4,6.3,2.3,8.8c0.8,2.5,0.8,6.8,4.6,5.8c3.8-1.1,1-4.5,0.4-6.8c-2.9-10.1-4.1-19.7,1.2-29.8c4.6-8.9,7.4-18.8,10.7-28.4
		c0.5-1.5-0.3-3.4-0.5-5.1c-1.7,0.2-4.1-0.2-5,0.7c-6.9,7.2-14,14.4-20.1,22.2c-3.6,4.6-5.7,10.3-8.3,15.6c-0.4,0.8-0.3,1.9-0.4,2.8
		c0.8,0.6,1.6,1.2,2.4,1.8c2.4-3.4,4.8-6.8,7.8-10.9c2.2,7.5,4.1,13.7,0.9,20.3c-1.4,2.8-2,6-2.5,9.1c-0.2,1,1.1,2.3,1.7,3.4
		c0.9-0.8,2.2-1.3,2.6-2.3C411.8,527.2,412.3,525.1,413.3,521.9z M488.3,455.2c0.3-0.3,0.6-0.7,0.9-1c2.2,1.7,4.3,3.9,6.8,5
		c2.5,1,5.5,0.9,8.2,1.3c-0.4-2.3-0.7-4.7-1.2-7c-0.1-0.6-0.7-1.1-1-1.7c-9.8-17.3-20.4-34.4-21.7-55.1c-0.1-1.3-1.7-2.6-2.6-3.8
		c-0.6,1.4-1.7,2.7-1.7,4.1c0.3,12.3,3.7,23.9,9.1,34.9c2.9,5.8,5.8,11.6,9,17.9c-6.5-3.6-12.2-6.8-18-10.1
		c-0.4,0.4-0.9,0.7-1.3,1.1c0.6,1.9,0.8,4.1,1.8,5.8c5.1,8.4,10.2,16.7,15.7,24.8c0.9,1.3,3.4,1.6,5.2,2.3c-0.2-1.8,0.1-3.9-0.7-5.4
		C494.2,463.7,491.2,459.5,488.3,455.2z M255.7,281.1c-0.5-0.6-1-1.1-1.4-1.7c-2.8,0.9-6.2,1.1-8.4,2.8
		c-13.8,10.3-26.4,21.9-37.1,35.5c-1.4,1.8-2.5,3.9-3.2,6.1c-0.3,1,0.1,2.9,0.9,3.5c0.8,0.6,2.5,0.3,3.6-0.1
		c1.2-0.5,2.2-1.5,3.2-2.4c12.9-12.2,25.8-24.3,38.5-36.6C253.6,286.5,254.4,283.5,255.7,281.1z M478.7,485.5
		c-0.6,0.3-1.2,0.6-1.8,0.9c-1.6-1.5-3.5-2.8-4.7-4.6c-2.9-4.3-5.6-8.6-8-13.2c-2.2-4.2-3.8-8.8-6.1-13c-0.6-1.1-2.4-1.5-3.7-2.3
		c-0.3,1.5-1.2,3.1-0.8,4.4c1.2,3.4,2.6,6.9,4.5,9.9c4.7,7.6,9.4,15.1,14.8,22.2c1.3,1.8,5.2,1.6,7.9,2.3c0.7-2.6,2.2-5.3,1.8-7.7
		c-2.5-15.7-8.3-30.4-15.9-44.3c-0.6-1.2-2.4-1.7-3.7-2.5c-0.2,1.6-1,3.5-0.5,4.8c1.9,4.6,4.7,8.8,6.4,13.5
		C472.5,465.8,475.5,475.7,478.7,485.5z M440.2,483c-1.9,1.5-2.8,1.9-3.1,2.5c-3.4,6.3-4.2,13.1-2.4,19.8c1.1,4,3.3,8,8.5,8.7
		c5.7,0.8,10-0.9,13.1-5.9c4-6.4,4.7-13.5,3.5-20.6c-0.7-3.6-2.5-7.6-7.2-7.7c-1.2,0-2.9,1.4-3.4,2.5c-0.3,0.7,1.3,2.3,2.2,3.3
		c1.1,1.2,3,2,3.5,3.4c2,4.9-0.7,15-4.7,18.3c-3,2.5-6.3,2.8-8.6-0.6c-1.4-2-2.4-4.8-2.4-7.2C439,494.5,439.7,489.5,440.2,483z
		 M389.9,509.5c-0.8,0.3-1.7,0.6-2.5,1c0.8,3,2,5.9,2.5,8.9c2.1,12,4,24.1,6.1,36.1c0.2,1.2,1.2,2.2,1.9,3.3c0.8-1,2-1.9,2.3-3.1
		c0.5-1.9,0.9-4,0.6-5.9c-2.2-11.5-4.5-23-7.1-34.4C393.2,513.3,391.2,511.5,389.9,509.5z M384.2,491.3c-0.1-0.8-0.2-2.1-0.3-3.3
		c-0.4-0.3-0.8-0.5-1.2-0.8c-1.3,1.7-3.4,3.2-3.8,5.1c-0.7,2.8-1.5,7.2,0,8.7c3.1,3,4.9-1.5,7-3.2c1.3-1,2-2.7,3-4.1
		C387.4,493,386,492.2,384.2,491.3z"/>
	<path class="st4" d="M307.1,695.2c-7.4,3-13.5,0.6-19.4-1.8c-30.5-12.3-56.4-31.2-78.9-54.9c-32.4-33.9-53.5-74-62.9-120
		c-12.7-61.8-3.2-120.1,28.5-174.7c27.9-48,68-82.3,119-103.8c34.4-14.5,70.4-20.4,107.8-18.4c30.6,1.7,60,8.4,87.9,20.8
		c20.6,9.1,39.5,21.3,56.8,35.8c23.3,19.6,42.1,42.7,56.9,69.4c13,23.6,22.3,48.2,27.4,74.6c5,25.9,5.6,51.9,2.1,78
		c-6.3,48.1-25.4,90.7-56.4,127.9c-17.6,21.2-38.7,38.4-62.3,52.5c-5.6,3.3-10.9,7.4-16.9,9.9c-11.1,4.7-22.5,8.8-34,12.6
		c-17.4,5.7-35.3,9.5-53.6,10.6c-1,0.1-2.2,0.5-2.9,0c-1.8-1.1-4.5-2.5-4.7-4c-0.2-1.5,2-4.3,3.7-4.8c4.3-1.2,8.8-1.4,13.3-2
		c54.4-7.3,100.6-30.9,139-70.1c16.3-16.6,29.9-35.3,40.5-56c14.2-27.6,22.9-56.8,25.5-87.9c3.7-43.5-3.5-85-22.4-124.2
		c-12-24.8-27.9-47-47.7-66.3c-4.4-4.3-8.4-9.2-13.4-12.6c-15-10.2-29.9-20.7-45.6-29.6c-21.1-11.9-44.3-18.5-68.1-22.1
		c-64.6-9.8-124.3,3.3-177.4,41.9c-53.2,38.6-85.3,91-95.1,155.9c-10.6,70.2,7.2,133.3,52.4,188.4c24.4,29.7,55.2,50.7,89.5,67.2
		C299.5,689.8,303.2,692.7,307.1,695.2z"/>
	<path class="st2" d="M199.3,355.2c-0.9,2.7-1.8,5.4-2.7,8.1c-6.3,18.7-14.4,37-18.7,56.2c-14.7,64.8-2.1,124.5,37.5,177.8
		c35.7,48.2,84.1,76,143.4,84.4c34.6,4.9,68.8,1.5,101.7-10.9c61.4-23.1,104.3-65.5,128.4-126.5c10.1-25.6,14.8-52.5,14.1-80
		c-0.8-30.6-7.3-60-20.2-87.9c-2.1-4.6-5.6-9.2-4-16.7c3.1,2.5,6.3,3.9,7.5,6.3c4.9,9.8,9.9,19.6,13.7,29.8
		c10.5,28.5,14.4,58.3,11.8,88.4c-6,69.2-36.3,125.3-92.8,166.5c-7.8,5.7-16,10.7-24.4,15.3c-39.8,21.6-82.5,30.2-127.6,26.1
		c-54.3-5-100.7-27.1-139.1-65.5c-37.2-37.2-58.2-82.4-63.7-134.7C160,455,164.7,419.2,179,385c3.8-8.9,9.6-17,14.6-25.4
		c1.1-1.9,3-3.4,4.5-5.1C198.5,354.8,198.9,355,199.3,355.2z"/>
	<path class="st5" d="M356.9,495.6c-5,7.7-9.6,14.2-13.6,21.2c-11.2,19.6-22.3,39.3-33.2,59.1c-1.7,3.2-2.3,7-4,10.2
		c-0.9,1.7-3.3,2.6-5,3.8c-1-1.8-3.3-4-2.9-5.4c2.3-7.9,4.6-16,8.2-23.4c12.5-25.9,26.8-50.8,43.4-74.4c1.2-1.7,1.8-4.9,1-6.6
		c-11.5-24.3-23.3-48.5-34.9-72.8c-1.9-4-3.7-4-7.1-1.6c-17.4,12.3-34.9,24.4-52.4,36.4c-2.4,1.7-5.4,2.5-8.1,3.6
		c-2.7-4.3-0.7-6.6,1.7-8.5c14-10.9,28-21.8,42.1-32.6c4.1-3.1,8.5-5.8,12.9-8.4c2.3-1.4,2.9-2.8,1.3-5.2
		c-3.8-5.8-7.5-11.8-11.4-17.6c-0.7-1.1-2.3-1.7-3.4-2.6c-1.1-0.9-3.3-2.2-3.1-2.9c0.4-1.7,1.5-3.9,2.9-4.7c3.6-2,7.1-0.4,9.4,2.4
		c4,5,7.6,10.4,11.3,15.7c1.5,2.2,2.9,4.4,4.4,6.9c7.8-4.2,15.3-8.4,22.9-12.4c23.3-12.5,47.3-23.6,72.4-32
		c18.7-6.3,37.8-11.7,56.8-17c4.7-1.3,9.9-0.9,14.9-0.8c8.8,0.3,13.6,6.3,11,14.8c-1.7,5.6-4.4,11.1-7.5,16.1
		c-14,23-33.9,40.8-53.3,59c-17.8,16.6-35.4,33.4-52.9,50.4c-5.3,5.2-9.8,11.1-14.4,17c-1,1.4-1.2,4.1-0.7,5.9
		c5.8,20.1,12.1,40.1,17.5,60.3c2,7.3,2.2,15.1,3,22.6c1.1,11.5,2.3,23,2.6,34.6c0.2,4.8-1.3,9.9-2.8,14.6c-0.5,1.5-3.5,2.2-5.3,3.2
		c-0.9-1.9-2.8-3.8-2.6-5.5c3.2-24-0.1-47.5-5.4-70.8c-3.7-16.5-9.4-32.6-14.2-48.8C358.2,498.5,357.8,497.7,356.9,495.6z
		 M486.7,337.5c-3.9-0.7-5.8-1.5-7.7-1.3c-6.6,0.7-13.3,1.2-19.7,2.8c-44.3,11.2-85.7,29.3-125.7,51.2c-4,2.2-7.7,4.8-11,6.9
		c12.7,25.8,25,50.8,37.4,76c0.4-0.3,1.1-0.7,1.6-1.3c16.8-16.6,33.3-33.4,50.3-49.7c19.5-18.6,40.1-36,56.7-57.4
		C475,356.5,480.2,347.4,486.7,337.5z"/>
	<path class="st5" d="M192,280.3c1.9-1.7,3.8-3.3,5.6-5.1c15.4-15.4,32.7-28.4,51.4-39.3c10.6-6.2,21.8-11.4,33-16.6
		c3.3-1.5,7.5-1.2,11.4-1.7c0.3,0.6,0.7,1.2,1,1.8c-1.3,1.6-2.4,3.8-4.1,4.7c-5.9,3.3-12.1,6.2-18.2,9.1
		c-28.8,13.9-53.8,33-75.6,56.3c-1.1,1.2-2.2,2.7-3.5,3.5c-2.4,1.5-4.9,3.2-7.6,3.5c-0.9,0.1-2.2-3.9-3.5-6.5
		c-1.3,1.3-3.3,2.8-4.7,4.6c-15.9,20.9-30.2,42.9-40.4,67.2c-15.8,38.1-22.8,77.6-21.1,118.9c1.3,31.1,8.6,60.8,19,89.9
		c1.3,3.7,1.8,7.7,2.5,11.5c0.1,0.8-0.2,2.3-0.4,2.4c-1,0.1-2.5,0.2-3-0.4c-1.9-2.2-4-4.5-5.2-7.2c-11.3-24.7-17.5-50.8-20.6-77.7
		c-4.5-38.6-0.8-76.4,10.6-113.4c16.8-54.4,47.3-99.7,91.4-135.7c36-29.4,77-48.5,122.4-57.8c38.5-7.9,77.1-7.3,115.5,1.1
		c22.9,5,45,12.3,65.7,23.1c13,6.7,25.2,15,37.7,22.7c1.6,1,3,2.8,3.7,4.5c0.7,1.6,0.3,3.6,0.3,5.4c-1.9-0.2-4.1,0.3-5.5-0.6
		c-8.6-5.1-16.9-10.6-25.4-15.7c-21.5-12.7-44.4-21.8-68.5-28.2c-21.3-5.7-43.1-8.7-65.1-8.7c-64.5-0.2-122.3,19.3-172.9,59.5
		c-9.3,7.4-17.8,15.7-26.7,23.5C191.3,279.5,191.7,279.9,192,280.3z"/>
	<path class="st5" d="M303.5,736.7c5.5,0.7,11,1.3,16.4,2c18.3,2.5,36.4,5.8,54.8,7.3c34.1,2.8,67.3-2.8,99.8-13.1
		c18-5.7,34.9-13.9,51.2-23.2c50.4-28.8,88.2-69.5,113.2-121.9c13.5-28.3,21.9-58,25.3-89.2c2.5-23.3,2.1-46.5-1-69.7
		c-0.2-1.3-0.7-2.8-0.3-4c0.8-2.2,1.7-5.6,3.2-6c3.2-0.9,4.3,2.1,4.8,4.9c3.4,18.4,4.2,37,3.4,55.7c-1.7,44.5-13.2,86.3-34.4,125.4
		c-18.7,34.4-43.3,63.8-74.2,88.2c-30.2,23.9-63.6,40.9-100.5,51.5c-28,8-56.7,11.7-85.8,10.8c-21.9-0.7-43.7-2.7-64.7-9.9
		c-3.4-1.2-6.7-2.8-10-4.5c-0.9-0.4-1.3-1.7-1.9-2.6C303,737.9,303.3,737.3,303.5,736.7z"/>
	<path class="st2" d="M286.2,191.7c-3.8,2.7-6.5,5.5-9.7,6.9c-40,16.8-74.8,41.1-104,73.2c-35,38.4-57.9,83.2-69.5,133.8
		c-4.9,21.4-7.2,43.3-6.9,65.2c0.4,31.2,5.2,61.8,15.6,91.3c1,2.9,1.9,6,2.1,9.1c0.1,1.5-1.2,4.3-2.1,4.4c-1.6,0.2-3.7-0.9-5-2
		c-1.3-1.2-2-3-2.6-4.7c-7.3-21.4-13.3-43.2-15-65.8c-1.3-17.4-2.7-34.9-1.7-52.3c3-51.9,18.3-100.2,46.6-144
		c33.9-52.5,79.8-90.9,137.3-115.3C278,188.6,280.1,188.5,286.2,191.7z"/>
	<path class="st2" d="M669.9,570.4c3.4,3.8,1.7,7.4,0.3,11c-8.4,20.9-18.8,40.7-31.5,59.2c-28.3,41.3-64.6,73.6-108.7,97
		c-27.8,14.7-57.1,25.2-88.2,30.4c-12.9,2.2-26,3.3-39,4.9c-2,0.2-4,0.3-6,0c-2.5-0.3-5-0.8-5-4.3c0-3.5,2.4-4.1,4.9-4.4
		c3.8-0.5,7.6-0.7,11.4-1c94-7.5,167.8-50.5,222.7-126.7c13.2-18.3,23.5-38.2,31.9-59.1C664,574,665.4,570.8,669.9,570.4z"/>
	<path class="st5" d="M534.7,322.3c8.2-0.8,12.1,3.8,15.3,8c8,10.5,16,21.1,22.6,32.5c14.7,25,23.1,52.2,26.5,81
		c2.9,25,1.6,49.8-4.4,74.3c-0.9,3.5-2.3,7-4,10.2c-0.6,1.1-2.6,1.5-4,2.2c-0.6-1.2-1.7-2.6-1.6-3.7c1.2-8.7,2.6-17.4,4-26.1
		c7-43.5,0.7-85-19.6-124c-7.2-13.8-17.1-26.2-25.7-39.4C540.8,332.7,538,327.8,534.7,322.3z"/>
	<path class="st5" d="M490.2,268.9c2.6,1.4,5.2,2.8,7.8,4.1c2.4,2.6,4.7,5.1,7.9,8.6c-3.4,0.2-5.3,0.4-7.2,0.5
		c-14.6-6.2-28.9-13.4-43.9-18.6c-45.2-15.5-90.7-15.2-136.1,0.1c-6.8,2.3-13.5,4.6-20.4,6.6c-2.4,0.7-5.1,0.5-8.1,0.8
		c1.2-5.5,5-7.3,8.7-9c17.1-8.3,35.2-13,53.8-16c26.9-4.2,53.8-3.7,80.4,2c10.4,2.2,20.5,5.5,30.8,8.3c2.9,3.3,13,7.6,17.1,7.3
		c0,0,0.3,0,0.3,0C484.3,265.5,487.3,267.2,490.2,268.9z"/>
	<path class="st2" d="M618.3,342.9c6.6,0.7,8.5,4.6,10.3,8.3c8.4,17,14.8,34.8,19.3,53.3c5.7,23.2,8.6,46.8,7.6,70.6
		c-0.9,21.7-2.3,43.5-10.6,64c-1,2.4-2.8,4.5-4.2,6.8c-0.7-0.1-1.3-0.3-2-0.4c-0.1-2.4-0.7-4.8-0.3-7.1c2.1-14.6,4.7-29.1,6.7-43.7
		c2.4-17.7,1.9-35.4,0.1-53.2c-2.8-27.5-10.1-53.7-21.1-79c-1.4-3.2-3.2-6.3-4.2-9.6C619,349.9,618.9,346.7,618.3,342.9z"/>
	<path class="st2" d="M657.4,385.2c-0.5,0.9-1.3,2.4-2.2,3.8c-1.7-1-4.3-1.5-5-3c-4.3-9.7-8-19.7-12.3-29.4
		c-16-36-38.8-67.1-68.4-93.3c-2.1-1.8-3.9-4.2-5-6.7c-1.6-3.5,0-5.2,3.7-4.3c2.2,0.6,4.6,1.5,6.2,2.9c38.7,34,66.3,75.3,82,124.5
		C656.8,381.3,656.9,382.8,657.4,385.2z"/>
	<path class="st4" d="M294.1,718.5c5,0.9,10,1.6,14.9,2.9c30.5,8.1,61.6,12.9,93.2,10.5c18-1.4,35.7-5.3,53.6-8
		c5.3-0.8,10.7-1.2,16-1.8c0.2,0.7,0.5,1.4,0.7,2.1c-3.5,2.1-6.8,5-10.7,6c-12.5,3.3-25,7-37.8,8.4c-16.3,1.9-32.9,2.9-49.2,2.1
		c-17-0.9-33.9-4-50.6-7.1c-8.3-1.5-16.3-5.1-24.3-8.1c-2.5-1-4.6-3.1-6.9-4.7C293.4,720,293.7,719.2,294.1,718.5z"/>
	<path class="st6" d="M170.1,657.9c-6.8-9.2-13.6-18.4-20.3-27.6c-1.2-1.6-2.2-3.5-2.6-5.3c-0.3-1.5,0.7-3.2,1.1-4.9
		c1.7,0.4,3.9,0.3,4.9,1.4c3.8,4.3,7.4,9,10.9,13.6c28.2,37.7,63.7,66.4,106.2,86.5c3.2,1.5,8.1,2.7,6.1,7.4c-2,4.6-6.3,2.2-9.5,0.5
		c-10.2-5.3-20.2-10.7-30.3-16.1c-14.5-11-29.3-21.6-43.4-33.1C184.9,673.5,177.7,665.4,170.1,657.9z"/>
	<path class="st2" d="M262.1,711.4c-2.3-1-4.1-1.7-5.8-2.6c-34.1-18.7-63.2-43.4-86.5-74.6c-2.1-2.8-5-6.3-1.5-9.2
		c4.2-3.4,6.3,1.3,8.6,3.8c10.5,11.3,20.4,23.2,31.4,33.9c15.1,14.8,32.5,26.7,51,37.1c1.9,1.1,4.1,1.9,5.4,3.5c1,1.3,1.4,3.7,1,5.3
		C265.4,709.8,263.4,710.5,262.1,711.4z"/>
	<path class="st5" d="M635.5,564.9c-3,6.9-5.5,13.2-8.4,19.3c-14.5,29.9-33.8,56.3-58.1,78.9c-2.1,1.9-4.3,3.8-6.8,5
		c-1.5,0.7-3.7,0.1-5.6,0.1c0.2-2-0.3-4.6,0.8-5.9c3.6-4.3,7.8-8.2,11.8-12.2c23.7-23.7,42.3-51,55.3-82c0.8-2,1.6-4.1,3-5.7
		c1-1.1,3.4-2.3,4.5-1.8C633.4,561.2,634.3,563.3,635.5,564.9z"/>
	<path class="st4" d="M389.1,159.2c14.2,1.5,31.2,3.1,48.2,5.2c3.1,0.4,6.2,2.2,9,4c2.6,1.6,2.2,3.8-0.8,4.5c-3,0.7-6.3,1.4-9.3,0.9
		c-20.3-3.5-40.7-4.2-61.2-3.7c-7.5,0.2-14.9,1.2-22.3,1.9c-3.6,0.3-7.2,0-7.3-4.5c-0.1-4.4,3.4-5.1,7-5.4
		C363.6,161.2,374.9,160.3,389.1,159.2z"/>
	<path class="st7" d="M599.7,309.8c-1.3,1.5-2.3,3.7-3.4,3.8c-1.8,0.2-4.3-0.6-5.5-1.9c-10.3-10.8-20.2-22-30.7-32.5
		c-6.1-6-13.3-10.9-19.8-16.5c-2.3-1.9-4.6-4.3-2.4-7.7c2.1-3.2,4.2-2.1,7-0.2c15.1,9.8,28.2,21.9,40.1,35.4c4,4.6,7.9,9.3,11.7,14
		C597.8,305.6,598.5,307.5,599.7,309.8z"/>
	<path class="st7" d="M170.1,657.9c7.7,7.5,14.8,15.6,23.1,22.4c14.1,11.5,28.9,22.1,43.4,33.1c0.2,1.6,0.5,3.2,0.8,5.1
		c-5.1,1.4-9.4-0.8-13.2-3.2c-20-12.7-37.9-28-53.9-45.4c-1.3-1.5-2.6-3.1-3.6-4.8C164.3,660.9,165.3,658.9,170.1,657.9z"/>
	<path class="st7" d="M413.3,521.9c-1,3.2-1.5,5.3-2.4,7.2c-0.5,1-1.7,1.6-2.6,2.3c-0.6-1.2-1.8-2.4-1.7-3.4
		c0.5-3.1,1.1-6.3,2.5-9.1c3.2-6.6,1.3-12.8-0.9-20.3c-2.9,4.1-5.3,7.5-7.8,10.9c-0.8-0.6-1.6-1.2-2.4-1.8c0.1-0.9,0-2,0.4-2.8
		c2.7-5.3,4.7-11,8.3-15.6c6.2-7.8,13.2-15,20.1-22.2c0.9-1,3.3-0.5,5-0.7c0.2,1.7,1,3.6,0.5,5.1c-3.3,9.6-6.1,19.5-10.7,28.4
		c-5.2,10.1-4,19.7-1.2,29.8c0.7,2.3,3.4,5.7-0.4,6.8c-3.8,1.1-3.7-3.3-4.6-5.8C414.7,528.3,414.2,525.6,413.3,521.9z M415.1,501.6
		c4.9-8,7.3-15.8,6.1-19.5C411,491.5,410.6,492.9,415.1,501.6z"/>
	<path class="st7" d="M488.3,455.2c2.9,4.3,5.9,8.5,8.5,13c0.8,1.4,0.5,3.6,0.7,5.4c-1.8-0.7-4.3-1-5.2-2.3
		c-5.5-8.1-10.6-16.5-15.7-24.8c-1-1.7-1.2-3.8-1.8-5.8c0.4-0.4,0.9-0.7,1.3-1.1c5.8,3.2,11.6,6.5,18,10.1c-3.1-6.2-6.1-12-9-17.9
		c-5.4-11-8.8-22.5-9.1-34.9c0-1.3,1.1-2.7,1.7-4.1c0.9,1.3,2.5,2.5,2.6,3.8c1.3,20.7,11.9,37.7,21.7,55.1c0.3,0.6,0.9,1.1,1,1.7
		c0.5,2.3,0.8,4.7,1.2,7c-2.8-0.4-5.7-0.2-8.2-1.3c-2.5-1-4.5-3.3-6.8-5C489,454.5,488.6,454.8,488.3,455.2z"/>
	<path class="st5" d="M255.7,281.1c-1.3,2.4-2.1,5.3-3.9,7.2c-12.7,12.3-25.6,24.5-38.5,36.6c-1,0.9-2,1.9-3.2,2.4
		c-1.1,0.4-2.9,0.7-3.6,0.1c-0.8-0.6-1.2-2.5-0.9-3.5c0.7-2.2,1.8-4.3,3.2-6.1c10.7-13.6,23.2-25.3,37.1-35.5
		c2.3-1.7,5.6-1.9,8.4-2.8C254.7,280,255.2,280.6,255.7,281.1z"/>
	<path class="st7" d="M478.7,485.5c-3.2-9.8-6.2-19.7-9.7-29.5c-1.7-4.7-4.5-8.9-6.4-13.5c-0.5-1.3,0.3-3.2,0.5-4.8
		c1.2,0.8,3,1.3,3.7,2.5c7.6,13.9,13.4,28.5,15.9,44.3c0.4,2.4-1.2,5.1-1.8,7.7c-2.7-0.7-6.6-0.5-7.9-2.3
		c-5.4-7.1-10.1-14.6-14.8-22.2c-1.9-3.1-3.3-6.5-4.5-9.9c-0.4-1.2,0.5-2.9,0.8-4.4c1.3,0.7,3.1,1.2,3.7,2.3c2.2,4.2,3.8,8.8,6.1,13
		c2.4,4.5,5.2,8.9,8,13.2c1.2,1.8,3.1,3.1,4.7,4.6C477.6,486.2,478.2,485.9,478.7,485.5z"/>
	<path class="st7" d="M440.2,483c-0.5,6.5-1.2,11.5-1.1,16.6c0,2.4,1,5.2,2.4,7.2c2.4,3.4,5.7,3.1,8.6,0.6c4-3.4,6.7-13.4,4.7-18.3
		c-0.6-1.4-2.4-2.2-3.5-3.4c-0.9-1-2.5-2.6-2.2-3.3c0.4-1.1,2.2-2.6,3.4-2.5c4.7,0.1,6.6,4,7.2,7.7c1.3,7.1,0.6,14.2-3.5,20.6
		c-3.1,5-7.4,6.7-13.1,5.9c-5.2-0.7-7.4-4.7-8.5-8.7c-1.8-6.7-1-13.5,2.4-19.8C437.4,484.9,438.3,484.5,440.2,483z"/>
	<path class="st7" d="M389.9,509.5c1.3,2,3.2,3.8,3.7,5.9c2.6,11.4,4.9,22.9,7.1,34.4c0.4,1.9-0.1,4-0.6,5.9
		c-0.3,1.1-1.5,2.1-2.3,3.1c-0.6-1.1-1.7-2.2-1.9-3.3c-2.1-12-4-24.1-6.1-36.1c-0.5-3-1.7-5.9-2.5-8.9
		C388.2,510.2,389.1,509.9,389.9,509.5z"/>
	<path class="st7" d="M384.2,491.3c1.7,0.9,3.1,1.7,4.6,2.5c-1,1.4-1.7,3.1-3,4.1c-2.1,1.7-4,6.2-7,3.2c-1.5-1.4-0.7-5.8,0-8.7
		c0.5-1.9,2.5-3.4,3.8-5.1c0.4,0.3,0.8,0.5,1.2,0.8C384,489.3,384.2,490.5,384.2,491.3z"/>
	<path class="st7" d="M498.6,282.1c1.9-0.1,3.8-0.3,7.2-0.5c-3.2-3.4-5.5-6-7.9-8.6c2,1,4,1.9,5.8,3.2c2.2,1.6,4.7,3.9,2.5,6.5
		C504.1,285.3,501,284.6,498.6,282.1z"/>
	<path class="st7" d="M481.1,263.7c-4,0.3-14.2-4-17.1-7.3C469.7,258.8,475.4,261.3,481.1,263.7z"/>
	<path class="st7" d="M490.2,268.9c-2.9-1.7-5.9-3.5-8.8-5.2C484.3,265.5,487.3,267.2,490.2,268.9z"/>
</g>
</svg>
